<svg width="32" height="32" viewBox="0 0 32 32" fill="none" xmlns="http://www.w3.org/2000/svg">
<mask id="mask0_32_637" style="mask-type:alpha" maskUnits="userSpaceOnUse" x="0" y="0" width="32" height="32">
<circle cx="16" cy="16" r="16" fill="#FFFBFA"/>
</mask>
<g mask="url(#mask0_32_637)">
<path d="M7.69777 11.0692C8.44895 6.20994 12.8404 2.71973 17.4245 5.07225C18.4646 5.59289 19.8514 6.67273 20.564 7.59831C22.4901 10.0665 22.9909 13.1325 24.9748 15.5429C24.2428 16.1021 23.3568 16.6806 22.2975 17.2398L21.0648 15.5815L21.4885 17.6447C18.4068 19.1295 14.0539 20.3443 8.10225 20.3058C7.37034 16.9313 7.31256 13.6532 7.69777 11.0692Z" fill="#0E2E35"/>
<path d="M6.94686 30.275C9.37373 22.8896 12.0895 23.1981 12.0895 23.1981L9.99008 38.7209C8.48773 38.316 6.54239 37.3904 5.04004 36.9661C5.54082 34.6329 6.34978 32.0876 6.94686 30.275Z" fill="#B5BBF5"/>
<path d="M16.3298 25.8677C16.3298 25.8677 20.8176 25.5785 22.5896 27.526C24.3616 29.4736 18.6603 44.8036 18.3329 47.2718C18.0055 49.74 19.9701 56.2962 19.9701 56.2962C19.9701 56.2962 9.45366 58.4173 6.42971 56.4312C6.42971 56.4312 6.10227 38.6909 6.42971 36.9361C6.75714 35.1814 9.29957 27.931 9.93518 27.2175C10.5901 26.504 16.3298 25.8677 16.3298 25.8677Z" fill="#B5BBF5"/>
<path d="M16.8275 15.8708C16.8275 15.8708 16.8468 16.0058 16.8853 16.2372C17.0779 17.317 17.8484 20.9037 18.3684 21.8871C19.004 23.0827 16.2112 26.8814 13.5532 26.4186C12.7635 26.2836 14.2273 22.9284 14.1503 22.5813C14.0155 21.9064 13.8229 20.9808 13.6495 20.0167C13.5532 19.4767 13.4376 18.9368 13.3413 18.4162C13.0524 16.97 12.8213 15.7744 12.8213 15.7744L16.8275 15.8708Z" fill="#F8B2A2"/>
<path d="M14.1314 6.73077C14.1314 6.73077 16.0189 6.51865 17.2131 8.04201C18.4073 9.56536 19.6785 14.3283 16.7316 16.9122C13.7847 19.4961 10.8763 16.5651 10.4525 13.4798C10.0095 10.3752 9.85545 6.61507 14.1314 6.73077Z" fill="#F8B2A2"/>
<path d="M13.9189 6.22942C13.9189 6.22942 16.4421 10.7416 18.2526 10.9537C20.0632 11.1659 20.2943 13.5569 20.2943 13.5569C20.2943 13.5569 19.6394 8.02273 17.8674 6.96217C16.0762 5.88232 13.9189 6.22942 13.9189 6.22942Z" fill="#0E2E35"/>
<path d="M30.9262 34.5749C30.9262 34.5749 27.7097 26.9582 26.0532 24.5671C23.9731 21.5975 18.5608 21.5204 19.1001 24.1236C19.6201 26.6496 23.0871 35.7705 23.0871 35.7705L30.9262 34.5749Z" fill="#B5BBF5"/>
</g>
</svg>
