<svg width="319" height="68" viewBox="0 0 319 68" fill="none" xmlns="http://www.w3.org/2000/svg">
<rect y="4" width="319" height="64" rx="14" fill="#C65252"/>
<path d="M142.594 32.3752H145.875V40.8979H148.794V32.3752H152.075V29.9889H142.594V32.3752ZM153.19 40.8979H156.151V37.2971H157.174L159.092 40.8979H162.309L160.093 36.8283C161.254 36.269 161.947 35.209 161.947 33.6962C161.947 31.3738 160.322 29.9889 157.898 29.9889H153.19V40.8979ZM156.151 34.996V32.3539H157.195C158.234 32.3539 158.857 32.7587 158.857 33.6962C158.857 34.6284 158.234 34.996 157.195 34.996H156.151ZM169.665 29.9889V36.7218C169.665 37.7392 168.935 38.469 167.918 38.469C166.901 38.469 166.171 37.7392 166.171 36.7218V29.9889H163.209V36.9775C163.209 39.4704 165.095 41.0258 167.918 41.0258C170.72 41.0258 172.627 39.4704 172.627 36.9775V29.9889H169.665ZM174.034 40.8979H181.875V38.5116H176.996V36.6366H181.492V34.2502H176.996V32.3752H181.897V29.9889H174.034V40.8979Z" fill="white"/>
<rect width="319" height="64" rx="14" fill="url(#paint0_linear_1_7)"/>
<defs>
<linearGradient id="paint0_linear_1_7" x1="0" y1="32" x2="319" y2="32" gradientUnits="userSpaceOnUse">
<stop stop-color="#FFA67A"/>
<stop offset="1" stop-color="#FF6065"/>
</linearGradient>
</defs>
</svg>
