<svg width="340" height="69" viewBox="0 0 340 69" fill="none" xmlns="http://www.w3.org/2000/svg">
<rect y="5" width="340" height="64" rx="14" fill="#424A9E"/>
<path d="M153.286 33.3752H156.567V41.8979H159.486V33.3752H162.768V30.9889H153.286V33.3752ZM163.882 41.8979H166.844V38.2971H167.867L169.784 41.8979H173.002L170.786 37.8283C171.947 37.269 172.639 36.209 172.639 34.6962C172.639 32.3738 171.015 30.9889 168.591 30.9889H163.882V41.8979ZM166.844 35.996V33.3539H167.888C168.927 33.3539 169.55 33.7587 169.55 34.6962C169.55 35.6284 168.927 35.996 167.888 35.996H166.844ZM180.358 30.9889V37.7218C180.358 38.7392 179.628 39.469 178.611 39.469C177.593 39.469 176.863 38.7392 176.863 37.7218V30.9889H173.902V37.9775C173.902 40.4704 175.787 42.0258 178.611 42.0258C181.412 42.0258 183.319 40.4704 183.319 37.9775V30.9889H180.358ZM184.727 41.8979H192.568V39.5116H187.689V37.6366H192.184V35.2502H187.689V33.3752H192.589V30.9889H184.727V41.8979Z" fill="white"/>
<rect width="340" height="64" rx="14" fill="#4953BE"/>
</svg>
