<svg width="380" height="812" viewBox="0 0 380 812" fill="none" xmlns="http://www.w3.org/2000/svg">
<g clip-path="url(#clip0_19_5)">
<rect width="380" height="812" fill="#4751C0"/>
<path opacity="0.4" d="M367.381 765.026C404.903 660.641 306.45 680.815 363.923 594.485C458.173 494.321 472.561 673.389 575.704 894.399C678.847 1115.41 517.878 996.85 410.574 911.376C425.858 897.071 330.792 866.816 367.381 765.026Z" fill="#A1A7E3"/>
<mask id="mask0_19_5" style="mask-type:alpha" maskUnits="userSpaceOnUse" x="-34" y="742" width="131" height="123">
<ellipse cx="31.5" cy="803.5" rx="47.5" ry="75.5" transform="rotate(-48.9123 31.5 803.5)" fill="#4953BE"/>
</mask>
<g mask="url(#mask0_19_5)">
<rect width="193.596" height="2.89" transform="matrix(0.798849 -0.601532 0.485994 0.873962 -17.6944 775.248)" fill="white"/>
<rect width="193.596" height="2.89" transform="matrix(0.798849 -0.601532 0.485994 0.873962 -22.4465 766.702)" fill="white"/>
<rect width="193.596" height="2.89" transform="matrix(0.798849 -0.601532 0.485994 0.873962 -27.1984 758.157)" fill="white"/>
<rect width="193.596" height="2.89" transform="matrix(0.798849 -0.601532 0.485994 0.873962 -12.9424 783.794)" fill="white"/>
<rect width="193.596" height="2.89" transform="matrix(0.798849 -0.601532 0.485994 0.873962 -8.19044 792.339)" fill="white"/>
<rect width="193.596" height="2.89" transform="matrix(0.798849 -0.601532 0.485994 0.873962 -3.43834 800.885)" fill="white"/>
<rect width="193.596" height="2.89" transform="matrix(0.798849 -0.601532 0.485994 0.873962 1.31363 809.43)" fill="white"/>
<rect width="193.596" height="2.89" transform="matrix(0.798849 -0.601532 0.485994 0.873962 11.5621 838.683)" fill="white"/>
<rect width="193.596" height="2.89" transform="matrix(0.798849 -0.601532 0.485994 0.873962 6.81001 830.138)" fill="white"/>
<rect width="193.596" height="2.89" transform="matrix(0.798849 -0.601532 0.485994 0.873962 2.05804 821.592)" fill="white"/>
<rect width="193.596" height="2.89" transform="matrix(0.798849 -0.601532 0.485994 0.873962 16.3141 847.229)" fill="white"/>
<rect width="193.596" height="2.89" transform="matrix(0.798849 -0.601532 0.485994 0.873962 21.066 855.775)" fill="white"/>
<rect width="193.596" height="2.89" transform="matrix(0.798849 -0.601532 0.485994 0.873962 25.8181 864.32)" fill="white"/>
<rect width="193.596" height="2.89" transform="matrix(0.798849 -0.601532 0.485994 0.873962 30.5701 872.866)" fill="white"/>
</g>
<mask id="mask1_19_5" style="mask-type:alpha" maskUnits="userSpaceOnUse" x="358" y="62" width="98" height="151">
<ellipse cx="407.122" cy="137.421" rx="47.5" ry="75.5" transform="rotate(8.5989 407.122 137.421)" fill="#4953BE"/>
</mask>
<g mask="url(#mask1_19_5)">
<rect width="193.596" height="2.89" transform="matrix(0.936479 0.350723 -0.47614 0.879369 366.736 139.501)" fill="#FF8686"/>
<rect width="193.596" height="2.89" transform="matrix(0.936479 0.350723 -0.47614 0.879369 371.392 130.903)" fill="#FF8686"/>
<rect width="193.596" height="2.89" transform="matrix(0.936479 0.350723 -0.47614 0.879369 376.047 122.304)" fill="#FF8686"/>
<rect width="193.596" height="2.89" transform="matrix(0.936479 0.350723 -0.47614 0.879369 362.08 148.1)" fill="#FF8686"/>
<rect width="193.596" height="2.89" transform="matrix(0.936479 0.350723 -0.47614 0.879369 357.424 156.698)" fill="#FF8686"/>
<rect width="193.596" height="2.89" transform="matrix(0.936479 0.350723 -0.47614 0.879369 352.769 165.297)" fill="#FF8686"/>
<rect width="193.596" height="2.89" transform="matrix(0.936479 0.350723 -0.47614 0.879369 348.113 173.895)" fill="#FF8686"/>
</g>
<path opacity="0.4" d="M18.2274 165.949C-8.40837 250.991 69.947 231.512 26.6941 302.727C-45.6189 386.274 -63.1432 243.016 -153.311 69.052C-243.478 -104.912 -110.312 -15.115 -21.3272 49.9152C-33.1183 61.9076 44.2011 83.0214 18.2274 165.949Z" fill="#A1A7E3"/>
</g>
<defs>
<clipPath id="clip0_19_5">
<rect width="380" height="812" fill="white"/>
</clipPath>
</defs>
</svg>
