<svg width="396" height="828" viewBox="0 0 396 828" fill="none" xmlns="http://www.w3.org/2000/svg">
<g clip-path="url(#clip0_1_317)">
<rect x="8" y="8" width="380" height="812" rx="30" fill="#4751C0"/>
<path opacity="0.4" d="M301 344C349 244 249 254 315 174C419 84 415 263.6 495 494C575 724.4 427 590 329 494C345.667 481.333 254.193 441.515 301 344Z" fill="#A1A7E3"/>
<path opacity="0.4" d="M93.6525 507.668C40.6686 554.885 140.691 559.677 70.8416 594.692C-37.3394 631.112 -23.9769 538.095 -91.5404 410.261C-159.104 282.426 -18.8657 367.123 73.6286 426.849C56.3837 431.772 145.319 461.625 93.6525 507.668Z" fill="#A1A7E3"/>
<ellipse cx="47.5" cy="75.5" rx="47.5" ry="75.5" transform="matrix(-0.881858 0.471515 0.471515 0.881858 395.776 -64.4773)" fill="#6C74CD"/>
<path opacity="0.8" d="M59.4257 655.12C58.8417 655.12 58.3257 655.04 57.8777 654.88C57.4297 654.712 57.0017 654.444 56.5937 654.076C56.4257 653.932 56.3417 653.768 56.3417 653.584C56.3417 653.44 56.3977 653.312 56.5097 653.2C56.6217 653.08 56.7537 653.02 56.9057 653.02C57.0417 653.02 57.1577 653.064 57.2537 653.152C57.5737 653.448 57.9017 653.668 58.2377 653.812C58.5817 653.948 58.9697 654.016 59.4017 654.016C59.9057 654.016 60.3297 653.9 60.6737 653.668C61.0257 653.436 61.2017 653.144 61.2017 652.792C61.1937 652.376 61.0177 652.056 60.6737 651.832C60.3377 651.6 59.8217 651.408 59.1257 651.256C58.3017 651.088 57.6657 650.812 57.2177 650.428C56.7777 650.044 56.5577 649.512 56.5577 648.832C56.5577 648.36 56.6817 647.948 56.9297 647.596C57.1777 647.236 57.5217 646.96 57.9617 646.768C58.4017 646.576 58.8977 646.48 59.4497 646.48C59.9457 646.48 60.4137 646.56 60.8537 646.72C61.2937 646.88 61.6497 647.092 61.9217 647.356C62.1057 647.516 62.1977 647.688 62.1977 647.872C62.1977 648.016 62.1417 648.144 62.0297 648.256C61.9257 648.368 61.7977 648.424 61.6457 648.424C61.5337 648.424 61.4417 648.392 61.3697 648.328C61.1617 648.12 60.8737 647.944 60.5057 647.8C60.1377 647.656 59.7857 647.584 59.4497 647.584C58.9137 647.584 58.4857 647.696 58.1657 647.92C57.8537 648.136 57.6977 648.424 57.6977 648.784C57.6977 649.176 57.8537 649.476 58.1657 649.684C58.4857 649.892 58.9577 650.068 59.5817 650.212C60.2057 650.348 60.7137 650.508 61.1057 650.692C61.5057 650.876 61.8137 651.132 62.0297 651.46C62.2457 651.788 62.3537 652.216 62.3537 652.744C62.3537 653.208 62.2217 653.62 61.9577 653.98C61.7017 654.34 61.3497 654.62 60.9017 654.82C60.4537 655.02 59.9617 655.12 59.4257 655.12ZM71.0661 648.652C71.2181 648.652 71.3461 648.708 71.4501 648.82C71.5621 648.924 71.6181 649.06 71.6181 649.228C71.6181 649.284 71.6021 649.36 71.5701 649.456L69.7341 654.64C69.6861 654.768 69.6061 654.864 69.4941 654.928C69.3821 654.992 69.2621 655.016 69.1341 655C68.9181 654.984 68.7541 654.864 68.6421 654.64L67.3941 651.376L66.2421 654.64C66.1941 654.752 66.1261 654.84 66.0381 654.904C65.9501 654.96 65.8541 654.992 65.7501 655C65.6301 655.016 65.5101 654.992 65.3901 654.928C65.2781 654.856 65.2021 654.76 65.1621 654.64L63.3021 649.456C63.2781 649.384 63.2661 649.308 63.2661 649.228C63.2661 649.068 63.3181 648.932 63.4221 648.82C63.5261 648.708 63.6621 648.652 63.8301 648.652C64.1021 648.652 64.2781 648.772 64.3581 649.012L65.7861 653.056L66.9261 650.068C67.0221 649.828 67.1981 649.708 67.4541 649.708C67.6941 649.708 67.8581 649.828 67.9461 650.068L69.1101 653.008L70.5141 649.012C70.6021 648.772 70.7861 648.652 71.0661 648.652ZM73.931 654.424C73.931 654.584 73.875 654.72 73.763 654.832C73.659 654.944 73.523 655 73.355 655C73.195 655 73.059 654.944 72.947 654.832C72.843 654.72 72.791 654.584 72.791 654.424V649.228C72.791 649.068 72.843 648.932 72.947 648.82C73.059 648.708 73.195 648.652 73.355 648.652C73.523 648.652 73.659 648.708 73.763 648.82C73.875 648.932 73.931 649.068 73.931 649.228V654.424ZM73.355 647.86C73.123 647.86 72.955 647.82 72.851 647.74C72.755 647.652 72.707 647.516 72.707 647.332V647.14C72.707 646.948 72.759 646.812 72.863 646.732C72.975 646.652 73.143 646.612 73.367 646.612C73.591 646.612 73.751 646.656 73.847 646.744C73.951 646.824 74.003 646.956 74.003 647.14V647.332C74.003 647.524 73.951 647.66 73.847 647.74C73.743 647.82 73.579 647.86 73.355 647.86ZM77.2738 649.828V653.404C77.2738 653.804 77.4538 654.004 77.8138 654.004C77.8698 654.004 77.9458 653.992 78.0418 653.968C78.1378 653.936 78.2138 653.92 78.2698 653.92C78.3738 653.92 78.4618 653.964 78.5338 654.052C78.6058 654.14 78.6418 654.252 78.6418 654.388C78.6418 654.556 78.5458 654.7 78.3538 654.82C78.1618 654.94 77.9458 655 77.7058 655C77.4418 655 77.1978 654.972 76.9738 654.916C76.7578 654.86 76.5618 654.72 76.3858 654.496C76.2178 654.264 76.1338 653.916 76.1338 653.452V649.828H75.4378C75.2858 649.828 75.1578 649.78 75.0538 649.684C74.9578 649.58 74.9098 649.452 74.9098 649.3C74.9098 649.148 74.9578 649.024 75.0538 648.928C75.1578 648.832 75.2858 648.784 75.4378 648.784H76.1338V647.776C76.1338 647.616 76.1858 647.48 76.2898 647.368C76.4018 647.256 76.5418 647.2 76.7098 647.2C76.8698 647.2 77.0018 647.256 77.1058 647.368C77.2178 647.48 77.2738 647.616 77.2738 647.776V648.784H78.2698C78.4218 648.784 78.5458 648.836 78.6418 648.94C78.7458 649.036 78.7978 649.16 78.7978 649.312C78.7978 649.464 78.7458 649.588 78.6418 649.684C78.5458 649.78 78.4218 649.828 78.2698 649.828H77.2738ZM84.1124 653.944C84.2644 653.944 84.3924 653.996 84.4964 654.1C84.6004 654.196 84.6524 654.32 84.6524 654.472C84.6524 654.624 84.6004 654.752 84.4964 654.856C84.3924 654.952 84.2644 655 84.1124 655H80.2364C80.0844 655 79.9564 654.944 79.8524 654.832C79.7564 654.72 79.7084 654.604 79.7084 654.484C79.7164 654.38 79.7324 654.296 79.7564 654.232C79.7804 654.16 79.8244 654.08 79.8884 653.992L83.0324 649.792H80.4284C80.2764 649.792 80.1484 649.74 80.0444 649.636C79.9404 649.532 79.8884 649.404 79.8884 649.252C79.8884 649.1 79.9364 648.976 80.0324 648.88C80.1364 648.784 80.2684 648.736 80.4284 648.736H84.1124C84.2644 648.736 84.3884 648.792 84.4844 648.904C84.5884 649.016 84.6364 649.152 84.6284 649.312C84.6204 649.392 84.6044 649.464 84.5804 649.528C84.5644 649.584 84.5244 649.648 84.4604 649.72L81.2924 653.944H84.1124ZM91.3202 651.616C91.3122 651.76 91.2522 651.884 91.1402 651.988C91.0282 652.084 90.8962 652.132 90.7442 652.132H86.5202C86.5762 652.716 86.7962 653.184 87.1802 653.536C87.5722 653.888 88.0482 654.064 88.6082 654.064C88.9922 654.064 89.3042 654.008 89.5442 653.896C89.7842 653.784 89.9962 653.64 90.1802 653.464C90.3002 653.392 90.4162 653.356 90.5282 653.356C90.6642 653.356 90.7762 653.404 90.8642 653.5C90.9602 653.596 91.0082 653.708 91.0082 653.836C91.0082 654.004 90.9282 654.156 90.7682 654.292C90.5362 654.524 90.2282 654.72 89.8442 654.88C89.4602 655.04 89.0682 655.12 88.6682 655.12C88.0202 655.12 87.4482 654.984 86.9522 654.712C86.4642 654.44 86.0842 654.06 85.8122 653.572C85.5482 653.084 85.4162 652.532 85.4162 651.916C85.4162 651.244 85.5522 650.656 85.8242 650.152C86.1042 649.64 86.4682 649.248 86.9162 648.976C87.3722 648.704 87.8602 648.568 88.3802 648.568C88.8922 648.568 89.3722 648.7 89.8202 648.964C90.2682 649.228 90.6282 649.592 90.9002 650.056C91.1722 650.52 91.3122 651.04 91.3202 651.616ZM88.3802 649.624C87.9322 649.624 87.5442 649.752 87.2162 650.008C86.8882 650.256 86.6722 650.644 86.5682 651.172H90.1082V651.076C90.0682 650.652 89.8762 650.304 89.5322 650.032C89.1962 649.76 88.8122 649.624 88.3802 649.624ZM95.776 648.568C95.984 648.568 96.164 648.624 96.316 648.736C96.468 648.84 96.544 648.972 96.544 649.132C96.544 649.324 96.492 649.472 96.388 649.576C96.292 649.672 96.172 649.72 96.028 649.72C95.956 649.72 95.848 649.696 95.704 649.648C95.536 649.592 95.404 649.564 95.308 649.564C95.06 649.564 94.816 649.652 94.576 649.828C94.344 649.996 94.152 650.232 94 650.536C93.856 650.832 93.784 651.164 93.784 651.532V654.424C93.784 654.584 93.728 654.72 93.616 654.832C93.512 654.944 93.376 655 93.208 655C93.04 655 92.904 654.948 92.8 654.844C92.696 654.732 92.644 654.592 92.644 654.424V649.288C92.644 649.128 92.696 648.992 92.8 648.88C92.912 648.768 93.048 648.712 93.208 648.712C93.376 648.712 93.512 648.768 93.616 648.88C93.728 648.992 93.784 649.128 93.784 649.288V649.9C93.96 649.508 94.224 649.192 94.576 648.952C94.928 648.704 95.328 648.576 95.776 648.568ZM98.837 654.424C98.837 654.584 98.781 654.72 98.669 654.832C98.557 654.944 98.421 655 98.261 655C98.101 655 97.965 654.944 97.853 654.832C97.749 654.72 97.697 654.584 97.697 654.424V646.696C97.697 646.536 97.753 646.4 97.865 646.288C97.977 646.176 98.113 646.12 98.273 646.12C98.433 646.12 98.565 646.176 98.669 646.288C98.781 646.4 98.837 646.536 98.837 646.696V654.424ZM105.736 648.628C105.904 648.628 106.04 648.684 106.144 648.796C106.256 648.9 106.312 649.04 106.312 649.216V654.424C106.312 654.584 106.256 654.72 106.144 654.832C106.04 654.944 105.904 655 105.736 655C105.568 655 105.432 654.948 105.328 654.844C105.224 654.732 105.172 654.592 105.172 654.424V654.112C104.964 654.392 104.68 654.632 104.32 654.832C103.96 655.024 103.572 655.12 103.156 655.12C102.612 655.12 102.116 654.98 101.668 654.7C101.228 654.42 100.88 654.032 100.624 653.536C100.376 653.032 100.252 652.468 100.252 651.844C100.252 651.22 100.376 650.66 100.624 650.164C100.88 649.66 101.228 649.268 101.668 648.988C102.108 648.708 102.592 648.568 103.12 648.568C103.544 648.568 103.936 648.656 104.296 648.832C104.664 649.008 104.956 649.232 105.172 649.504V649.216C105.172 649.048 105.224 648.908 105.328 648.796C105.432 648.684 105.568 648.628 105.736 648.628ZM103.288 654.064C103.664 654.064 103.996 653.968 104.284 653.776C104.58 653.584 104.808 653.32 104.968 652.984C105.136 652.648 105.22 652.268 105.22 651.844C105.22 651.428 105.136 651.052 104.968 650.716C104.808 650.38 104.58 650.116 104.284 649.924C103.996 649.724 103.664 649.624 103.288 649.624C102.912 649.624 102.576 649.72 102.28 649.912C101.992 650.104 101.764 650.368 101.596 650.704C101.436 651.04 101.356 651.42 101.356 651.844C101.356 652.268 101.436 652.648 101.596 652.984C101.764 653.32 101.992 653.584 102.28 653.776C102.576 653.968 102.912 654.064 103.288 654.064ZM111.211 648.568C112.651 648.568 113.371 649.432 113.371 651.16V654.424C113.371 654.584 113.315 654.72 113.203 654.832C113.099 654.944 112.963 655 112.795 655C112.635 655 112.499 654.944 112.387 654.832C112.283 654.72 112.231 654.584 112.231 654.424V651.172C112.231 650.7 112.123 650.324 111.907 650.044C111.691 649.764 111.339 649.624 110.851 649.624C110.531 649.624 110.239 649.696 109.975 649.84C109.719 649.976 109.515 650.164 109.363 650.404C109.219 650.636 109.147 650.892 109.147 651.172V654.424C109.147 654.584 109.091 654.72 108.979 654.832C108.875 654.944 108.739 655 108.571 655C108.403 655 108.267 654.948 108.163 654.844C108.059 654.732 108.007 654.592 108.007 654.424V649.288C108.007 649.128 108.059 648.992 108.163 648.88C108.275 648.768 108.411 648.712 108.571 648.712C108.739 648.712 108.875 648.768 108.979 648.88C109.091 648.992 109.147 649.128 109.147 649.288V649.708C109.355 649.388 109.643 649.12 110.011 648.904C110.387 648.68 110.787 648.568 111.211 648.568ZM120.174 646.12C120.342 646.12 120.478 646.176 120.582 646.288C120.694 646.392 120.75 646.528 120.75 646.696V654.424C120.75 654.584 120.694 654.72 120.582 654.832C120.478 654.944 120.342 655 120.174 655C120.006 655 119.87 654.948 119.766 654.844C119.662 654.732 119.61 654.592 119.61 654.424V654.088C119.41 654.376 119.126 654.62 118.758 654.82C118.398 655.02 118.01 655.12 117.594 655.12C117.05 655.12 116.558 654.98 116.118 654.7C115.678 654.42 115.33 654.032 115.074 653.536C114.818 653.032 114.69 652.468 114.69 651.844C114.69 651.22 114.814 650.66 115.062 650.164C115.318 649.66 115.666 649.268 116.106 648.988C116.546 648.708 117.03 648.568 117.558 648.568C117.982 648.568 118.374 648.656 118.734 648.832C119.094 649.008 119.386 649.236 119.61 649.516V646.696C119.61 646.528 119.662 646.392 119.766 646.288C119.87 646.176 120.006 646.12 120.174 646.12ZM117.726 654.064C118.102 654.064 118.434 653.968 118.722 653.776C119.018 653.584 119.246 653.32 119.406 652.984C119.574 652.648 119.658 652.268 119.658 651.844C119.658 651.428 119.574 651.052 119.406 650.716C119.246 650.372 119.018 650.104 118.722 649.912C118.434 649.72 118.102 649.624 117.726 649.624C117.35 649.624 117.014 649.72 116.718 649.912C116.43 650.104 116.202 650.372 116.034 650.716C115.874 651.052 115.794 651.428 115.794 651.844C115.794 652.268 115.874 652.648 116.034 652.984C116.202 653.32 116.43 653.584 116.718 653.776C117.014 653.968 117.35 654.064 117.726 654.064ZM128.905 648.604C130.313 648.604 131.017 649.476 131.017 651.22V654.424C131.017 654.584 130.961 654.72 130.849 654.832C130.745 654.944 130.609 655 130.441 655C130.281 655 130.145 654.944 130.033 654.832C129.929 654.72 129.877 654.584 129.877 654.424V651.22C129.877 650.18 129.437 649.66 128.557 649.66C128.085 649.66 127.693 649.812 127.381 650.116C127.069 650.412 126.913 650.78 126.913 651.22V654.424C126.913 654.584 126.857 654.72 126.745 654.832C126.641 654.944 126.505 655 126.337 655C126.169 655 126.033 654.948 125.929 654.844C125.825 654.732 125.773 654.592 125.773 654.424V646.696C125.773 646.536 125.825 646.4 125.929 646.288C126.041 646.176 126.177 646.12 126.337 646.12C126.505 646.12 126.641 646.176 126.745 646.288C126.857 646.4 126.913 646.536 126.913 646.696V649.732C127.113 649.42 127.393 649.156 127.753 648.94C128.113 648.716 128.497 648.604 128.905 648.604ZM137.822 648.628C137.99 648.628 138.126 648.684 138.23 648.796C138.342 648.9 138.398 649.04 138.398 649.216V654.424C138.398 654.584 138.342 654.72 138.23 654.832C138.126 654.944 137.99 655 137.822 655C137.654 655 137.518 654.948 137.414 654.844C137.31 654.732 137.258 654.592 137.258 654.424V654.112C137.05 654.392 136.766 654.632 136.406 654.832C136.046 655.024 135.658 655.12 135.242 655.12C134.698 655.12 134.202 654.98 133.754 654.7C133.314 654.42 132.966 654.032 132.71 653.536C132.462 653.032 132.338 652.468 132.338 651.844C132.338 651.22 132.462 650.66 132.71 650.164C132.966 649.66 133.314 649.268 133.754 648.988C134.194 648.708 134.678 648.568 135.206 648.568C135.63 648.568 136.022 648.656 136.382 648.832C136.75 649.008 137.042 649.232 137.258 649.504V649.216C137.258 649.048 137.31 648.908 137.414 648.796C137.518 648.684 137.654 648.628 137.822 648.628ZM135.374 654.064C135.75 654.064 136.082 653.968 136.37 653.776C136.666 653.584 136.894 653.32 137.054 652.984C137.222 652.648 137.306 652.268 137.306 651.844C137.306 651.428 137.222 651.052 137.054 650.716C136.894 650.38 136.666 650.116 136.37 649.924C136.082 649.724 135.75 649.624 135.374 649.624C134.998 649.624 134.662 649.72 134.366 649.912C134.078 650.104 133.85 650.368 133.682 650.704C133.522 651.04 133.442 651.42 133.442 651.844C133.442 652.268 133.522 652.648 133.682 652.984C133.85 653.32 134.078 653.584 134.366 653.776C134.662 653.968 134.998 654.064 135.374 654.064ZM139.733 654.016C139.661 653.904 139.625 653.796 139.625 653.692C139.625 653.532 139.709 653.396 139.877 653.284C139.957 653.228 140.049 653.2 140.153 653.2C140.297 653.2 140.429 653.26 140.549 653.38C140.789 653.652 141.045 653.856 141.317 653.992C141.597 654.128 141.929 654.196 142.313 654.196C142.617 654.188 142.885 654.12 143.117 653.992C143.349 653.856 143.465 653.64 143.465 653.344C143.465 653.072 143.345 652.864 143.105 652.72C142.873 652.576 142.529 652.444 142.073 652.324C141.625 652.204 141.253 652.08 140.957 651.952C140.661 651.816 140.409 651.624 140.201 651.376C140.001 651.12 139.901 650.788 139.901 650.38C139.901 650.02 140.001 649.704 140.201 649.432C140.409 649.16 140.681 648.948 141.017 648.796C141.361 648.644 141.733 648.568 142.133 648.568C142.517 648.568 142.897 648.64 143.273 648.784C143.657 648.928 143.969 649.148 144.209 649.444C144.305 649.556 144.353 649.672 144.353 649.792C144.353 649.92 144.289 650.044 144.161 650.164C144.081 650.236 143.981 650.272 143.861 650.272C143.717 650.272 143.601 650.224 143.513 650.128C143.345 649.936 143.137 649.788 142.889 649.684C142.649 649.58 142.381 649.528 142.085 649.528C141.781 649.528 141.521 649.592 141.305 649.72C141.097 649.84 140.993 650.048 140.993 650.344C141.001 650.624 141.121 650.832 141.353 650.968C141.593 651.104 141.957 651.236 142.445 651.364C142.869 651.476 143.221 651.596 143.501 651.724C143.781 651.852 144.017 652.044 144.209 652.3C144.401 652.548 144.497 652.876 144.497 653.284C144.497 653.66 144.389 653.988 144.173 654.268C143.957 654.54 143.673 654.752 143.321 654.904C142.977 655.048 142.609 655.12 142.217 655.12C141.713 655.12 141.245 655.032 140.813 654.856C140.389 654.68 140.029 654.4 139.733 654.016ZM151.828 647.152C151.564 647.152 151.368 647.232 151.24 647.392C151.12 647.552 151.06 647.748 151.06 647.98V648.82H152.248C152.408 648.82 152.536 648.872 152.632 648.976C152.736 649.072 152.788 649.196 152.788 649.348C152.788 649.5 152.736 649.624 152.632 649.72C152.536 649.816 152.408 649.864 152.248 649.864H151.06V654.424C151.06 654.584 151.004 654.72 150.892 654.832C150.788 654.944 150.652 655 150.484 655C150.324 655 150.188 654.944 150.076 654.832C149.972 654.72 149.92 654.584 149.92 654.424V649.864H149.176C149.024 649.864 148.896 649.816 148.792 649.72C148.688 649.624 148.636 649.5 148.636 649.348C148.636 649.196 148.688 649.072 148.792 648.976C148.896 648.872 149.024 648.82 149.176 648.82H149.92V647.98C149.92 647.42 150.1 646.976 150.46 646.648C150.82 646.312 151.328 646.144 151.984 646.144C152.256 646.144 152.496 646.196 152.704 646.3C152.912 646.396 153.016 646.544 153.016 646.744C153.016 646.896 152.968 647.024 152.872 647.128C152.784 647.224 152.676 647.272 152.548 647.272C152.516 647.272 152.428 647.256 152.284 647.224C152.108 647.176 151.956 647.152 151.828 647.152ZM159.768 651.856C159.768 652.48 159.628 653.04 159.348 653.536C159.068 654.032 158.684 654.42 158.196 654.7C157.716 654.98 157.184 655.12 156.6 655.12C156.016 655.12 155.48 654.98 154.992 654.7C154.512 654.42 154.132 654.032 153.852 653.536C153.572 653.04 153.432 652.48 153.432 651.856C153.432 651.232 153.572 650.668 153.852 650.164C154.132 649.66 154.512 649.268 154.992 648.988C155.48 648.708 156.016 648.568 156.6 648.568C157.184 648.568 157.716 648.708 158.196 648.988C158.684 649.268 159.068 649.66 159.348 650.164C159.628 650.668 159.768 651.232 159.768 651.856ZM158.628 651.856C158.628 651.424 158.536 651.04 158.352 650.704C158.176 650.36 157.932 650.096 157.62 649.912C157.316 649.72 156.976 649.624 156.6 649.624C156.224 649.624 155.88 649.72 155.568 649.912C155.264 650.096 155.02 650.36 154.836 650.704C154.66 651.04 154.572 651.424 154.572 651.856C154.572 652.28 154.66 652.66 154.836 652.996C155.02 653.332 155.264 653.596 155.568 653.788C155.88 653.972 156.224 654.064 156.6 654.064C156.976 654.064 157.316 653.972 157.62 653.788C157.932 653.596 158.176 653.332 158.352 652.996C158.536 652.66 158.628 652.28 158.628 651.856ZM165.773 648.712C165.941 648.712 166.077 648.768 166.181 648.88C166.293 648.992 166.349 649.128 166.349 649.288V652.48C166.349 653.312 166.117 653.96 165.653 654.424C165.197 654.88 164.549 655.108 163.709 655.108C162.877 655.108 162.233 654.88 161.777 654.424C161.321 653.96 161.093 653.312 161.093 652.48V649.288C161.093 649.128 161.145 648.992 161.249 648.88C161.361 648.768 161.497 648.712 161.657 648.712C161.825 648.712 161.961 648.768 162.065 648.88C162.177 648.992 162.233 649.128 162.233 649.288V652.48C162.233 653.528 162.725 654.052 163.709 654.052C164.197 654.052 164.569 653.92 164.825 653.656C165.081 653.392 165.209 653 165.209 652.48V649.288C165.209 649.128 165.261 648.992 165.365 648.88C165.477 648.768 165.613 648.712 165.773 648.712ZM171.186 648.568C171.394 648.568 171.574 648.624 171.726 648.736C171.878 648.84 171.954 648.972 171.954 649.132C171.954 649.324 171.902 649.472 171.798 649.576C171.702 649.672 171.582 649.72 171.438 649.72C171.366 649.72 171.258 649.696 171.114 649.648C170.946 649.592 170.814 649.564 170.718 649.564C170.47 649.564 170.226 649.652 169.986 649.828C169.754 649.996 169.562 650.232 169.41 650.536C169.266 650.832 169.194 651.164 169.194 651.532V654.424C169.194 654.584 169.138 654.72 169.026 654.832C168.922 654.944 168.786 655 168.618 655C168.45 655 168.314 654.948 168.21 654.844C168.106 654.732 168.054 654.592 168.054 654.424V649.288C168.054 649.128 168.106 648.992 168.21 648.88C168.322 648.768 168.458 648.712 168.618 648.712C168.786 648.712 168.922 648.768 169.026 648.88C169.138 648.992 169.194 649.128 169.194 649.288V649.9C169.37 649.508 169.634 649.192 169.986 648.952C170.338 648.704 170.738 648.576 171.186 648.568ZM179.543 648.568C180.983 648.568 181.703 649.432 181.703 651.16V654.424C181.703 654.584 181.647 654.72 181.535 654.832C181.431 654.944 181.295 655 181.127 655C180.967 655 180.831 654.944 180.719 654.832C180.615 654.72 180.563 654.584 180.563 654.424V651.172C180.563 650.7 180.455 650.324 180.239 650.044C180.023 649.764 179.671 649.624 179.183 649.624C178.863 649.624 178.571 649.696 178.307 649.84C178.051 649.976 177.847 650.164 177.695 650.404C177.551 650.636 177.479 650.892 177.479 651.172V654.424C177.479 654.584 177.423 654.72 177.311 654.832C177.207 654.944 177.071 655 176.903 655C176.735 655 176.599 654.948 176.495 654.844C176.391 654.732 176.339 654.592 176.339 654.424V649.288C176.339 649.128 176.391 648.992 176.495 648.88C176.607 648.768 176.743 648.712 176.903 648.712C177.071 648.712 177.207 648.768 177.311 648.88C177.423 648.992 177.479 649.128 177.479 649.288V649.708C177.687 649.388 177.975 649.12 178.343 648.904C178.719 648.68 179.119 648.568 179.543 648.568ZM188.506 648.628C188.674 648.628 188.81 648.684 188.914 648.796C189.026 648.9 189.082 649.04 189.082 649.216V654.424C189.082 654.584 189.026 654.72 188.914 654.832C188.81 654.944 188.674 655 188.506 655C188.338 655 188.202 654.948 188.098 654.844C187.994 654.732 187.942 654.592 187.942 654.424V654.112C187.734 654.392 187.45 654.632 187.09 654.832C186.73 655.024 186.342 655.12 185.926 655.12C185.382 655.12 184.886 654.98 184.438 654.7C183.998 654.42 183.65 654.032 183.394 653.536C183.146 653.032 183.022 652.468 183.022 651.844C183.022 651.22 183.146 650.66 183.394 650.164C183.65 649.66 183.998 649.268 184.438 648.988C184.878 648.708 185.362 648.568 185.89 648.568C186.314 648.568 186.706 648.656 187.066 648.832C187.434 649.008 187.726 649.232 187.942 649.504V649.216C187.942 649.048 187.994 648.908 188.098 648.796C188.202 648.684 188.338 648.628 188.506 648.628ZM186.058 654.064C186.434 654.064 186.766 653.968 187.054 653.776C187.35 653.584 187.578 653.32 187.738 652.984C187.906 652.648 187.99 652.268 187.99 651.844C187.99 651.428 187.906 651.052 187.738 650.716C187.578 650.38 187.35 650.116 187.054 649.924C186.766 649.724 186.434 649.624 186.058 649.624C185.682 649.624 185.346 649.72 185.05 649.912C184.762 650.104 184.534 650.368 184.366 650.704C184.206 651.04 184.126 651.42 184.126 651.844C184.126 652.268 184.206 652.648 184.366 652.984C184.534 653.32 184.762 653.584 185.05 653.776C185.346 653.968 185.682 654.064 186.058 654.064ZM192.481 649.828V653.404C192.481 653.804 192.661 654.004 193.021 654.004C193.077 654.004 193.153 653.992 193.249 653.968C193.345 653.936 193.421 653.92 193.477 653.92C193.581 653.92 193.669 653.964 193.741 654.052C193.813 654.14 193.849 654.252 193.849 654.388C193.849 654.556 193.753 654.7 193.561 654.82C193.369 654.94 193.153 655 192.913 655C192.649 655 192.405 654.972 192.181 654.916C191.965 654.86 191.769 654.72 191.593 654.496C191.425 654.264 191.341 653.916 191.341 653.452V649.828H190.645C190.493 649.828 190.365 649.78 190.261 649.684C190.165 649.58 190.117 649.452 190.117 649.3C190.117 649.148 190.165 649.024 190.261 648.928C190.365 648.832 190.493 648.784 190.645 648.784H191.341V647.776C191.341 647.616 191.393 647.48 191.497 647.368C191.609 647.256 191.749 647.2 191.917 647.2C192.077 647.2 192.209 647.256 192.313 647.368C192.425 647.48 192.481 647.616 192.481 647.776V648.784H193.477C193.629 648.784 193.753 648.836 193.849 648.94C193.953 649.036 194.005 649.16 194.005 649.312C194.005 649.464 193.953 649.588 193.849 649.684C193.753 649.78 193.629 649.828 193.477 649.828H192.481ZM196.415 654.424C196.415 654.584 196.359 654.72 196.247 654.832C196.143 654.944 196.007 655 195.839 655C195.679 655 195.543 654.944 195.431 654.832C195.327 654.72 195.275 654.584 195.275 654.424V649.228C195.275 649.068 195.327 648.932 195.431 648.82C195.543 648.708 195.679 648.652 195.839 648.652C196.007 648.652 196.143 648.708 196.247 648.82C196.359 648.932 196.415 649.068 196.415 649.228V654.424ZM195.839 647.86C195.607 647.86 195.439 647.82 195.335 647.74C195.239 647.652 195.191 647.516 195.191 647.332V647.14C195.191 646.948 195.243 646.812 195.347 646.732C195.459 646.652 195.627 646.612 195.851 646.612C196.075 646.612 196.235 646.656 196.331 646.744C196.435 646.824 196.487 646.956 196.487 647.14V647.332C196.487 647.524 196.435 647.66 196.331 647.74C196.227 647.82 196.063 647.86 195.839 647.86ZM204.006 651.856C204.006 652.48 203.866 653.04 203.586 653.536C203.306 654.032 202.922 654.42 202.434 654.7C201.954 654.98 201.422 655.12 200.838 655.12C200.254 655.12 199.718 654.98 199.23 654.7C198.75 654.42 198.37 654.032 198.09 653.536C197.81 653.04 197.67 652.48 197.67 651.856C197.67 651.232 197.81 650.668 198.09 650.164C198.37 649.66 198.75 649.268 199.23 648.988C199.718 648.708 200.254 648.568 200.838 648.568C201.422 648.568 201.954 648.708 202.434 648.988C202.922 649.268 203.306 649.66 203.586 650.164C203.866 650.668 204.006 651.232 204.006 651.856ZM202.866 651.856C202.866 651.424 202.774 651.04 202.59 650.704C202.414 650.36 202.17 650.096 201.858 649.912C201.554 649.72 201.214 649.624 200.838 649.624C200.462 649.624 200.118 649.72 199.806 649.912C199.502 650.096 199.258 650.36 199.074 650.704C198.898 651.04 198.81 651.424 198.81 651.856C198.81 652.28 198.898 652.66 199.074 652.996C199.258 653.332 199.502 653.596 199.806 653.788C200.118 653.972 200.462 654.064 200.838 654.064C201.214 654.064 201.554 653.972 201.858 653.788C202.17 653.596 202.414 653.332 202.59 652.996C202.774 652.66 202.866 652.28 202.866 651.856ZM208.535 648.568C209.975 648.568 210.695 649.432 210.695 651.16V654.424C210.695 654.584 210.639 654.72 210.527 654.832C210.423 654.944 210.287 655 210.119 655C209.959 655 209.823 654.944 209.711 654.832C209.607 654.72 209.555 654.584 209.555 654.424V651.172C209.555 650.7 209.447 650.324 209.231 650.044C209.015 649.764 208.663 649.624 208.175 649.624C207.855 649.624 207.563 649.696 207.299 649.84C207.043 649.976 206.839 650.164 206.687 650.404C206.543 650.636 206.471 650.892 206.471 651.172V654.424C206.471 654.584 206.415 654.72 206.303 654.832C206.199 654.944 206.063 655 205.895 655C205.727 655 205.591 654.948 205.487 654.844C205.383 654.732 205.331 654.592 205.331 654.424V649.288C205.331 649.128 205.383 648.992 205.487 648.88C205.599 648.768 205.735 648.712 205.895 648.712C206.063 648.712 206.199 648.768 206.303 648.88C206.415 648.992 206.471 649.128 206.471 649.288V649.708C206.679 649.388 206.967 649.12 207.335 648.904C207.711 648.68 208.111 648.568 208.535 648.568ZM217.498 648.628C217.666 648.628 217.802 648.684 217.906 648.796C218.018 648.9 218.074 649.04 218.074 649.216V654.424C218.074 654.584 218.018 654.72 217.906 654.832C217.802 654.944 217.666 655 217.498 655C217.33 655 217.194 654.948 217.09 654.844C216.986 654.732 216.934 654.592 216.934 654.424V654.112C216.726 654.392 216.442 654.632 216.082 654.832C215.722 655.024 215.334 655.12 214.918 655.12C214.374 655.12 213.878 654.98 213.43 654.7C212.99 654.42 212.642 654.032 212.386 653.536C212.138 653.032 212.014 652.468 212.014 651.844C212.014 651.22 212.138 650.66 212.386 650.164C212.642 649.66 212.99 649.268 213.43 648.988C213.87 648.708 214.354 648.568 214.882 648.568C215.306 648.568 215.698 648.656 216.058 648.832C216.426 649.008 216.718 649.232 216.934 649.504V649.216C216.934 649.048 216.986 648.908 217.09 648.796C217.194 648.684 217.33 648.628 217.498 648.628ZM215.05 654.064C215.426 654.064 215.758 653.968 216.046 653.776C216.342 653.584 216.57 653.32 216.73 652.984C216.898 652.648 216.982 652.268 216.982 651.844C216.982 651.428 216.898 651.052 216.73 650.716C216.57 650.38 216.342 650.116 216.046 649.924C215.758 649.724 215.426 649.624 215.05 649.624C214.674 649.624 214.338 649.72 214.042 649.912C213.754 650.104 213.526 650.368 213.358 650.704C213.198 651.04 213.118 651.42 213.118 651.844C213.118 652.268 213.198 652.648 213.358 652.984C213.526 653.32 213.754 653.584 214.042 653.776C214.338 653.968 214.674 654.064 215.05 654.064ZM221.005 654.424C221.005 654.584 220.949 654.72 220.837 654.832C220.725 654.944 220.589 655 220.429 655C220.269 655 220.133 654.944 220.021 654.832C219.917 654.72 219.865 654.584 219.865 654.424V646.696C219.865 646.536 219.921 646.4 220.033 646.288C220.145 646.176 220.281 646.12 220.441 646.12C220.601 646.12 220.733 646.176 220.837 646.288C220.949 646.4 221.005 646.536 221.005 646.696V654.424ZM227.368 654.424C227.368 654.584 227.312 654.72 227.2 654.832C227.088 654.944 226.952 655 226.792 655C226.632 655 226.496 654.944 226.384 654.832C226.28 654.72 226.228 654.584 226.228 654.424V646.696C226.228 646.536 226.284 646.4 226.396 646.288C226.508 646.176 226.644 646.12 226.804 646.12C226.964 646.12 227.096 646.176 227.2 646.288C227.312 646.4 227.368 646.536 227.368 646.696V654.424ZM234.267 648.628C234.435 648.628 234.571 648.684 234.675 648.796C234.787 648.9 234.843 649.04 234.843 649.216V654.424C234.843 654.584 234.787 654.72 234.675 654.832C234.571 654.944 234.435 655 234.267 655C234.099 655 233.963 654.948 233.859 654.844C233.755 654.732 233.703 654.592 233.703 654.424V654.112C233.495 654.392 233.211 654.632 232.851 654.832C232.491 655.024 232.103 655.12 231.687 655.12C231.143 655.12 230.647 654.98 230.199 654.7C229.759 654.42 229.411 654.032 229.155 653.536C228.907 653.032 228.783 652.468 228.783 651.844C228.783 651.22 228.907 650.66 229.155 650.164C229.411 649.66 229.759 649.268 230.199 648.988C230.639 648.708 231.123 648.568 231.651 648.568C232.075 648.568 232.467 648.656 232.827 648.832C233.195 649.008 233.487 649.232 233.703 649.504V649.216C233.703 649.048 233.755 648.908 233.859 648.796C233.963 648.684 234.099 648.628 234.267 648.628ZM231.819 654.064C232.195 654.064 232.527 653.968 232.815 653.776C233.111 653.584 233.339 653.32 233.499 652.984C233.667 652.648 233.751 652.268 233.751 651.844C233.751 651.428 233.667 651.052 233.499 650.716C233.339 650.38 233.111 650.116 232.815 649.924C232.527 649.724 232.195 649.624 231.819 649.624C231.443 649.624 231.107 649.72 230.811 649.912C230.523 650.104 230.295 650.368 230.127 650.704C229.967 651.04 229.887 651.42 229.887 651.844C229.887 652.268 229.967 652.648 230.127 652.984C230.295 653.32 230.523 653.584 230.811 653.776C231.107 653.968 231.443 654.064 231.819 654.064ZM239.743 648.568C241.183 648.568 241.903 649.432 241.903 651.16V654.424C241.903 654.584 241.847 654.72 241.735 654.832C241.631 654.944 241.495 655 241.327 655C241.167 655 241.031 654.944 240.919 654.832C240.815 654.72 240.763 654.584 240.763 654.424V651.172C240.763 650.7 240.655 650.324 240.439 650.044C240.223 649.764 239.871 649.624 239.383 649.624C239.063 649.624 238.771 649.696 238.507 649.84C238.251 649.976 238.047 650.164 237.895 650.404C237.751 650.636 237.679 650.892 237.679 651.172V654.424C237.679 654.584 237.623 654.72 237.511 654.832C237.407 654.944 237.271 655 237.103 655C236.935 655 236.799 654.948 236.695 654.844C236.591 654.732 236.539 654.592 236.539 654.424V649.288C236.539 649.128 236.591 648.992 236.695 648.88C236.807 648.768 236.943 648.712 237.103 648.712C237.271 648.712 237.407 648.768 237.511 648.88C237.623 648.992 237.679 649.128 237.679 649.288V649.708C237.887 649.388 238.175 649.12 238.543 648.904C238.919 648.68 239.319 648.568 239.743 648.568ZM248.861 648.628C249.029 648.628 249.165 648.684 249.269 648.796C249.381 648.9 249.437 649.04 249.437 649.216V654.496C249.437 655.144 249.297 655.684 249.017 656.116C248.745 656.556 248.373 656.88 247.901 657.088C247.429 657.296 246.897 657.4 246.305 657.4C245.985 657.4 245.609 657.344 245.177 657.232C244.753 657.12 244.481 657.004 244.361 656.884C244.113 656.756 243.989 656.596 243.989 656.404C243.989 656.356 244.005 656.292 244.037 656.212C244.125 656.012 244.273 655.912 244.481 655.912C244.585 655.912 244.697 655.936 244.817 655.984C245.457 656.232 245.957 656.356 246.317 656.356C246.957 656.356 247.445 656.2 247.781 655.888C248.125 655.584 248.297 655.164 248.297 654.628V653.98C248.129 654.292 247.845 654.56 247.445 654.784C247.053 655.008 246.637 655.12 246.197 655.12C245.645 655.12 245.141 654.98 244.685 654.7C244.229 654.42 243.869 654.032 243.605 653.536C243.349 653.032 243.221 652.468 243.221 651.844C243.221 651.22 243.349 650.66 243.605 650.164C243.869 649.66 244.225 649.268 244.673 648.988C245.129 648.708 245.629 648.568 246.173 648.568C246.613 648.568 247.021 648.668 247.397 648.868C247.781 649.068 248.081 649.312 248.297 649.6V649.216C248.297 649.048 248.349 648.908 248.453 648.796C248.557 648.684 248.693 648.628 248.861 648.628ZM246.329 654.064C246.721 654.064 247.069 653.972 247.373 653.788C247.677 653.596 247.913 653.332 248.081 652.996C248.257 652.652 248.345 652.268 248.345 651.844C248.345 651.42 248.257 651.04 248.081 650.704C247.913 650.368 247.677 650.104 247.373 649.912C247.069 649.72 246.721 649.624 246.329 649.624C245.945 649.624 245.601 649.72 245.297 649.912C244.993 650.104 244.753 650.372 244.577 650.716C244.409 651.052 244.325 651.428 244.325 651.844C244.325 652.26 244.409 652.64 244.577 652.984C244.753 653.32 244.993 653.584 245.297 653.776C245.601 653.968 245.945 654.064 246.329 654.064ZM255.715 648.712C255.883 648.712 256.019 648.768 256.123 648.88C256.235 648.992 256.291 649.128 256.291 649.288V652.48C256.291 653.312 256.059 653.96 255.595 654.424C255.139 654.88 254.491 655.108 253.651 655.108C252.819 655.108 252.175 654.88 251.719 654.424C251.263 653.96 251.035 653.312 251.035 652.48V649.288C251.035 649.128 251.087 648.992 251.191 648.88C251.303 648.768 251.439 648.712 251.599 648.712C251.767 648.712 251.903 648.768 252.007 648.88C252.119 648.992 252.175 649.128 252.175 649.288V652.48C252.175 653.528 252.667 654.052 253.651 654.052C254.139 654.052 254.511 653.92 254.767 653.656C255.023 653.392 255.151 653 255.151 652.48V649.288C255.151 649.128 255.203 648.992 255.307 648.88C255.419 648.768 255.555 648.712 255.715 648.712ZM263.096 648.628C263.264 648.628 263.4 648.684 263.504 648.796C263.616 648.9 263.672 649.04 263.672 649.216V654.424C263.672 654.584 263.616 654.72 263.504 654.832C263.4 654.944 263.264 655 263.096 655C262.928 655 262.792 654.948 262.688 654.844C262.584 654.732 262.532 654.592 262.532 654.424V654.112C262.324 654.392 262.04 654.632 261.68 654.832C261.32 655.024 260.932 655.12 260.516 655.12C259.972 655.12 259.476 654.98 259.028 654.7C258.588 654.42 258.24 654.032 257.984 653.536C257.736 653.032 257.612 652.468 257.612 651.844C257.612 651.22 257.736 650.66 257.984 650.164C258.24 649.66 258.588 649.268 259.028 648.988C259.468 648.708 259.952 648.568 260.48 648.568C260.904 648.568 261.296 648.656 261.656 648.832C262.024 649.008 262.316 649.232 262.532 649.504V649.216C262.532 649.048 262.584 648.908 262.688 648.796C262.792 648.684 262.928 648.628 263.096 648.628ZM260.648 654.064C261.024 654.064 261.356 653.968 261.644 653.776C261.94 653.584 262.168 653.32 262.328 652.984C262.496 652.648 262.58 652.268 262.58 651.844C262.58 651.428 262.496 651.052 262.328 650.716C262.168 650.38 261.94 650.116 261.644 649.924C261.356 649.724 261.024 649.624 260.648 649.624C260.272 649.624 259.936 649.72 259.64 649.912C259.352 650.104 259.124 650.368 258.956 650.704C258.796 651.04 258.716 651.42 258.716 651.844C258.716 652.268 258.796 652.648 258.956 652.984C259.124 653.32 259.352 653.584 259.64 653.776C259.936 653.968 260.272 654.064 260.648 654.064ZM270.623 648.628C270.791 648.628 270.927 648.684 271.031 648.796C271.143 648.9 271.199 649.04 271.199 649.216V654.496C271.199 655.144 271.059 655.684 270.779 656.116C270.507 656.556 270.135 656.88 269.663 657.088C269.191 657.296 268.659 657.4 268.067 657.4C267.747 657.4 267.371 657.344 266.939 657.232C266.515 657.12 266.243 657.004 266.123 656.884C265.875 656.756 265.751 656.596 265.751 656.404C265.751 656.356 265.767 656.292 265.799 656.212C265.887 656.012 266.035 655.912 266.243 655.912C266.347 655.912 266.459 655.936 266.579 655.984C267.219 656.232 267.719 656.356 268.079 656.356C268.719 656.356 269.207 656.2 269.543 655.888C269.887 655.584 270.059 655.164 270.059 654.628V653.98C269.891 654.292 269.607 654.56 269.207 654.784C268.815 655.008 268.399 655.12 267.959 655.12C267.407 655.12 266.903 654.98 266.447 654.7C265.991 654.42 265.631 654.032 265.367 653.536C265.111 653.032 264.983 652.468 264.983 651.844C264.983 651.22 265.111 650.66 265.367 650.164C265.631 649.66 265.987 649.268 266.435 648.988C266.891 648.708 267.391 648.568 267.935 648.568C268.375 648.568 268.783 648.668 269.159 648.868C269.543 649.068 269.843 649.312 270.059 649.6V649.216C270.059 649.048 270.111 648.908 270.215 648.796C270.319 648.684 270.455 648.628 270.623 648.628ZM268.091 654.064C268.483 654.064 268.831 653.972 269.135 653.788C269.439 653.596 269.675 653.332 269.843 652.996C270.019 652.652 270.107 652.268 270.107 651.844C270.107 651.42 270.019 651.04 269.843 650.704C269.675 650.368 269.439 650.104 269.135 649.912C268.831 649.72 268.483 649.624 268.091 649.624C267.707 649.624 267.363 649.72 267.059 649.912C266.755 650.104 266.515 650.372 266.339 650.716C266.171 651.052 266.087 651.428 266.087 651.844C266.087 652.26 266.171 652.64 266.339 652.984C266.515 653.32 266.755 653.584 267.059 653.776C267.363 653.968 267.707 654.064 268.091 654.064ZM278.176 651.616C278.168 651.76 278.108 651.884 277.996 651.988C277.884 652.084 277.752 652.132 277.6 652.132H273.376C273.432 652.716 273.652 653.184 274.036 653.536C274.428 653.888 274.904 654.064 275.464 654.064C275.848 654.064 276.16 654.008 276.4 653.896C276.64 653.784 276.852 653.64 277.036 653.464C277.156 653.392 277.272 653.356 277.384 653.356C277.52 653.356 277.632 653.404 277.72 653.5C277.816 653.596 277.864 653.708 277.864 653.836C277.864 654.004 277.784 654.156 277.624 654.292C277.392 654.524 277.084 654.72 276.7 654.88C276.316 655.04 275.924 655.12 275.524 655.12C274.876 655.12 274.304 654.984 273.808 654.712C273.32 654.44 272.94 654.06 272.668 653.572C272.404 653.084 272.272 652.532 272.272 651.916C272.272 651.244 272.408 650.656 272.68 650.152C272.96 649.64 273.324 649.248 273.772 648.976C274.228 648.704 274.716 648.568 275.236 648.568C275.748 648.568 276.228 648.7 276.676 648.964C277.124 649.228 277.484 649.592 277.756 650.056C278.028 650.52 278.168 651.04 278.176 651.616ZM275.236 649.624C274.788 649.624 274.4 649.752 274.072 650.008C273.744 650.256 273.528 650.644 273.424 651.172H276.964V651.076C276.924 650.652 276.732 650.304 276.388 650.032C276.052 649.76 275.668 649.624 275.236 649.624ZM279.139 654.016C279.067 653.904 279.031 653.796 279.031 653.692C279.031 653.532 279.115 653.396 279.283 653.284C279.363 653.228 279.455 653.2 279.559 653.2C279.703 653.2 279.835 653.26 279.955 653.38C280.195 653.652 280.451 653.856 280.723 653.992C281.003 654.128 281.335 654.196 281.719 654.196C282.023 654.188 282.291 654.12 282.523 653.992C282.755 653.856 282.871 653.64 282.871 653.344C282.871 653.072 282.751 652.864 282.511 652.72C282.279 652.576 281.935 652.444 281.479 652.324C281.031 652.204 280.659 652.08 280.363 651.952C280.067 651.816 279.815 651.624 279.607 651.376C279.407 651.12 279.307 650.788 279.307 650.38C279.307 650.02 279.407 649.704 279.607 649.432C279.815 649.16 280.087 648.948 280.423 648.796C280.767 648.644 281.139 648.568 281.539 648.568C281.923 648.568 282.303 648.64 282.679 648.784C283.063 648.928 283.375 649.148 283.615 649.444C283.711 649.556 283.759 649.672 283.759 649.792C283.759 649.92 283.695 650.044 283.567 650.164C283.487 650.236 283.387 650.272 283.267 650.272C283.123 650.272 283.007 650.224 282.919 650.128C282.751 649.936 282.543 649.788 282.295 649.684C282.055 649.58 281.787 649.528 281.491 649.528C281.187 649.528 280.927 649.592 280.711 649.72C280.503 649.84 280.399 650.048 280.399 650.344C280.407 650.624 280.527 650.832 280.759 650.968C280.999 651.104 281.363 651.236 281.851 651.364C282.275 651.476 282.627 651.596 282.907 651.724C283.187 651.852 283.423 652.044 283.615 652.3C283.807 652.548 283.903 652.876 283.903 653.284C283.903 653.66 283.795 653.988 283.579 654.268C283.363 654.54 283.079 654.752 282.727 654.904C282.383 655.048 282.015 655.12 281.623 655.12C281.119 655.12 280.651 655.032 280.219 654.856C279.795 654.68 279.435 654.4 279.139 654.016ZM286.658 654.928C286.658 655.128 286.594 655.356 286.466 655.612C286.338 655.876 286.174 656.1 285.974 656.284C285.782 656.468 285.582 656.56 285.374 656.56C285.238 656.56 285.126 656.524 285.038 656.452C284.95 656.388 284.906 656.292 284.906 656.164C284.906 656.052 284.934 655.972 284.99 655.924C285.046 655.884 285.11 655.852 285.182 655.828C285.262 655.804 285.322 655.784 285.362 655.768C285.474 655.712 285.558 655.636 285.614 655.54C285.678 655.452 285.71 655.352 285.71 655.24C285.71 655.152 285.674 655.076 285.602 655.012C285.53 654.948 285.438 654.916 285.326 654.916C285.198 654.916 285.09 654.948 285.002 655.012C284.922 654.972 284.862 654.924 284.822 654.868C284.782 654.804 284.762 654.72 284.762 654.616C284.77 654.424 284.874 654.256 285.074 654.112C285.274 653.96 285.486 653.884 285.71 653.884C286.006 653.884 286.238 653.976 286.406 654.16C286.574 654.344 286.658 654.6 286.658 654.928ZM61.6337 668.896C61.8017 668.896 61.9377 668.952 62.0417 669.064C62.1537 669.176 62.2097 669.308 62.2097 669.46C62.2097 669.62 62.1537 669.752 62.0417 669.856C61.9377 669.952 61.8017 670 61.6337 670H57.4577C57.2977 670 57.1617 669.944 57.0497 669.832C56.9377 669.72 56.8817 669.584 56.8817 669.424V662.176C56.8817 662.016 56.9377 661.88 57.0497 661.768C57.1617 661.656 57.2977 661.6 57.4577 661.6H61.6337C61.8017 661.6 61.9377 661.652 62.0417 661.756C62.1537 661.86 62.2097 661.996 62.2097 662.164C62.2097 662.324 62.1537 662.456 62.0417 662.56C61.9377 662.656 61.8017 662.704 61.6337 662.704H58.0697V665.152H61.0937C61.2617 665.152 61.3977 665.204 61.5017 665.308C61.6137 665.412 61.6697 665.544 61.6697 665.704C61.6697 665.872 61.6137 666.004 61.5017 666.1C61.3977 666.196 61.2617 666.244 61.0937 666.244H58.0697V668.896H61.6337ZM66.7855 663.568C68.2255 663.568 68.9455 664.432 68.9455 666.16V669.424C68.9455 669.584 68.8895 669.72 68.7775 669.832C68.6735 669.944 68.5375 670 68.3695 670C68.2095 670 68.0735 669.944 67.9615 669.832C67.8575 669.72 67.8055 669.584 67.8055 669.424V666.172C67.8055 665.7 67.6975 665.324 67.4815 665.044C67.2655 664.764 66.9135 664.624 66.4255 664.624C66.1055 664.624 65.8135 664.696 65.5495 664.84C65.2935 664.976 65.0895 665.164 64.9375 665.404C64.7935 665.636 64.7215 665.892 64.7215 666.172V669.424C64.7215 669.584 64.6655 669.72 64.5535 669.832C64.4495 669.944 64.3135 670 64.1455 670C63.9775 670 63.8415 669.948 63.7375 669.844C63.6335 669.732 63.5815 669.592 63.5815 669.424V664.288C63.5815 664.128 63.6335 663.992 63.7375 663.88C63.8495 663.768 63.9855 663.712 64.1455 663.712C64.3135 663.712 64.4495 663.768 64.5535 663.88C64.6655 663.992 64.7215 664.128 64.7215 664.288V664.708C64.9295 664.388 65.2175 664.12 65.5855 663.904C65.9615 663.68 66.3615 663.568 66.7855 663.568ZM75.9039 663.628C76.0719 663.628 76.2079 663.684 76.3119 663.796C76.4239 663.9 76.4799 664.04 76.4799 664.216V669.496C76.4799 670.144 76.3399 670.684 76.0599 671.116C75.7879 671.556 75.4159 671.88 74.9439 672.088C74.4719 672.296 73.9399 672.4 73.3479 672.4C73.0279 672.4 72.6519 672.344 72.2199 672.232C71.7959 672.12 71.5239 672.004 71.4039 671.884C71.1559 671.756 71.0319 671.596 71.0319 671.404C71.0319 671.356 71.0479 671.292 71.0799 671.212C71.1679 671.012 71.3159 670.912 71.5239 670.912C71.6279 670.912 71.7399 670.936 71.8599 670.984C72.4999 671.232 72.9999 671.356 73.3599 671.356C73.9999 671.356 74.4879 671.2 74.8239 670.888C75.1679 670.584 75.3399 670.164 75.3399 669.628V668.98C75.1719 669.292 74.8879 669.56 74.4879 669.784C74.0959 670.008 73.6799 670.12 73.2399 670.12C72.6879 670.12 72.1839 669.98 71.7279 669.7C71.2719 669.42 70.9119 669.032 70.6479 668.536C70.3919 668.032 70.2639 667.468 70.2639 666.844C70.2639 666.22 70.3919 665.66 70.6479 665.164C70.9119 664.66 71.2679 664.268 71.7159 663.988C72.1719 663.708 72.6719 663.568 73.2159 663.568C73.6559 663.568 74.0639 663.668 74.4399 663.868C74.8239 664.068 75.1239 664.312 75.3399 664.6V664.216C75.3399 664.048 75.3919 663.908 75.4959 663.796C75.5999 663.684 75.7359 663.628 75.9039 663.628ZM73.3719 669.064C73.7639 669.064 74.1119 668.972 74.4159 668.788C74.7199 668.596 74.9559 668.332 75.1239 667.996C75.2999 667.652 75.3879 667.268 75.3879 666.844C75.3879 666.42 75.2999 666.04 75.1239 665.704C74.9559 665.368 74.7199 665.104 74.4159 664.912C74.1119 664.72 73.7639 664.624 73.3719 664.624C72.9879 664.624 72.6439 664.72 72.3399 664.912C72.0359 665.104 71.7959 665.372 71.6199 665.716C71.4519 666.052 71.3679 666.428 71.3679 666.844C71.3679 667.26 71.4519 667.64 71.6199 667.984C71.7959 668.32 72.0359 668.584 72.3399 668.776C72.6439 668.968 72.9879 669.064 73.3719 669.064ZM79.4073 669.424C79.4073 669.584 79.3513 669.72 79.2393 669.832C79.1273 669.944 78.9913 670 78.8313 670C78.6713 670 78.5353 669.944 78.4233 669.832C78.3193 669.72 78.2673 669.584 78.2673 669.424V661.696C78.2673 661.536 78.3233 661.4 78.4353 661.288C78.5473 661.176 78.6833 661.12 78.8433 661.12C79.0033 661.12 79.1353 661.176 79.2393 661.288C79.3513 661.4 79.4073 661.536 79.4073 661.696V669.424ZM82.2865 669.424C82.2865 669.584 82.2305 669.72 82.1185 669.832C82.0145 669.944 81.8785 670 81.7105 670C81.5505 670 81.4145 669.944 81.3025 669.832C81.1985 669.72 81.1465 669.584 81.1465 669.424V664.228C81.1465 664.068 81.1985 663.932 81.3025 663.82C81.4145 663.708 81.5505 663.652 81.7105 663.652C81.8785 663.652 82.0145 663.708 82.1185 663.82C82.2305 663.932 82.2865 664.068 82.2865 664.228V669.424ZM81.7105 662.86C81.4785 662.86 81.3105 662.82 81.2065 662.74C81.1105 662.652 81.0625 662.516 81.0625 662.332V662.14C81.0625 661.948 81.1145 661.812 81.2185 661.732C81.3305 661.652 81.4985 661.612 81.7225 661.612C81.9465 661.612 82.1065 661.656 82.2025 661.744C82.3065 661.824 82.3585 661.956 82.3585 662.14V662.332C82.3585 662.524 82.3065 662.66 82.2025 662.74C82.0985 662.82 81.9345 662.86 81.7105 662.86ZM83.5652 669.016C83.4932 668.904 83.4572 668.796 83.4572 668.692C83.4572 668.532 83.5412 668.396 83.7092 668.284C83.7892 668.228 83.8812 668.2 83.9852 668.2C84.1292 668.2 84.2612 668.26 84.3812 668.38C84.6212 668.652 84.8772 668.856 85.1492 668.992C85.4292 669.128 85.7612 669.196 86.1452 669.196C86.4492 669.188 86.7172 669.12 86.9492 668.992C87.1812 668.856 87.2972 668.64 87.2972 668.344C87.2972 668.072 87.1772 667.864 86.9372 667.72C86.7052 667.576 86.3612 667.444 85.9052 667.324C85.4572 667.204 85.0852 667.08 84.7892 666.952C84.4932 666.816 84.2412 666.624 84.0332 666.376C83.8332 666.12 83.7332 665.788 83.7332 665.38C83.7332 665.02 83.8332 664.704 84.0332 664.432C84.2412 664.16 84.5132 663.948 84.8492 663.796C85.1932 663.644 85.5652 663.568 85.9652 663.568C86.3492 663.568 86.7292 663.64 87.1052 663.784C87.4892 663.928 87.8012 664.148 88.0412 664.444C88.1372 664.556 88.1852 664.672 88.1852 664.792C88.1852 664.92 88.1212 665.044 87.9932 665.164C87.9132 665.236 87.8132 665.272 87.6932 665.272C87.5492 665.272 87.4332 665.224 87.3452 665.128C87.1772 664.936 86.9692 664.788 86.7212 664.684C86.4812 664.58 86.2132 664.528 85.9172 664.528C85.6132 664.528 85.3532 664.592 85.1372 664.72C84.9292 664.84 84.8252 665.048 84.8252 665.344C84.8332 665.624 84.9532 665.832 85.1852 665.968C85.4252 666.104 85.7892 666.236 86.2772 666.364C86.7012 666.476 87.0532 666.596 87.3332 666.724C87.6132 666.852 87.8492 667.044 88.0412 667.3C88.2332 667.548 88.3292 667.876 88.3292 668.284C88.3292 668.66 88.2212 668.988 88.0052 669.268C87.7892 669.54 87.5052 669.752 87.1532 669.904C86.8092 670.048 86.4412 670.12 86.0492 670.12C85.5452 670.12 85.0772 670.032 84.6452 669.856C84.2212 669.68 83.8612 669.4 83.5652 669.016ZM92.776 663.604C94.184 663.604 94.888 664.476 94.888 666.22V669.424C94.888 669.584 94.832 669.72 94.72 669.832C94.616 669.944 94.48 670 94.312 670C94.152 670 94.016 669.944 93.904 669.832C93.8 669.72 93.748 669.584 93.748 669.424V666.22C93.748 665.18 93.308 664.66 92.428 664.66C91.956 664.66 91.564 664.812 91.252 665.116C90.94 665.412 90.784 665.78 90.784 666.22V669.424C90.784 669.584 90.728 669.72 90.616 669.832C90.512 669.944 90.376 670 90.208 670C90.04 670 89.904 669.948 89.8 669.844C89.696 669.732 89.644 669.592 89.644 669.424V661.696C89.644 661.536 89.696 661.4 89.8 661.288C89.912 661.176 90.048 661.12 90.208 661.12C90.376 661.12 90.512 661.176 90.616 661.288C90.728 661.4 90.784 661.536 90.784 661.696V664.732C90.984 664.42 91.264 664.156 91.624 663.94C91.984 663.716 92.368 663.604 92.776 663.604ZM103.077 663.568C103.621 663.568 104.113 663.708 104.553 663.988C104.993 664.268 105.337 664.656 105.585 665.152C105.841 665.648 105.969 666.208 105.969 666.832C105.969 667.456 105.841 668.02 105.585 668.524C105.337 669.028 104.993 669.42 104.553 669.7C104.113 669.98 103.629 670.12 103.101 670.12C102.685 670.12 102.297 670.028 101.937 669.844C101.577 669.66 101.285 669.432 101.061 669.16V669.508C101.061 669.668 101.005 669.804 100.893 669.916C100.789 670.028 100.653 670.084 100.485 670.084C100.325 670.084 100.189 670.032 100.077 669.928C99.9733 669.816 99.9213 669.676 99.9213 669.508V661.696C99.9213 661.528 99.9733 661.392 100.077 661.288C100.181 661.176 100.317 661.12 100.485 661.12C100.653 661.12 100.789 661.176 100.893 661.288C101.005 661.4 101.061 661.536 101.061 661.696V664.624C101.253 664.336 101.533 664.088 101.901 663.88C102.269 663.672 102.661 663.568 103.077 663.568ZM102.945 669.064C103.313 669.064 103.645 668.968 103.941 668.776C104.237 668.576 104.465 668.308 104.625 667.972C104.793 667.628 104.877 667.248 104.877 666.832C104.877 666.416 104.793 666.04 104.625 665.704C104.465 665.368 104.237 665.104 103.941 664.912C103.645 664.72 103.313 664.624 102.945 664.624C102.569 664.624 102.233 664.72 101.937 664.912C101.641 665.104 101.409 665.368 101.241 665.704C101.081 666.032 101.001 666.408 101.001 666.832C101.001 667.256 101.081 667.636 101.241 667.972C101.409 668.308 101.641 668.576 101.937 668.776C102.233 668.968 102.569 669.064 102.945 669.064ZM112.812 666.616C112.804 666.76 112.744 666.884 112.632 666.988C112.52 667.084 112.388 667.132 112.236 667.132H108.012C108.068 667.716 108.288 668.184 108.672 668.536C109.064 668.888 109.54 669.064 110.1 669.064C110.484 669.064 110.796 669.008 111.036 668.896C111.276 668.784 111.488 668.64 111.672 668.464C111.792 668.392 111.908 668.356 112.02 668.356C112.156 668.356 112.268 668.404 112.356 668.5C112.452 668.596 112.5 668.708 112.5 668.836C112.5 669.004 112.42 669.156 112.26 669.292C112.028 669.524 111.72 669.72 111.336 669.88C110.952 670.04 110.56 670.12 110.16 670.12C109.512 670.12 108.94 669.984 108.444 669.712C107.956 669.44 107.576 669.06 107.304 668.572C107.04 668.084 106.908 667.532 106.908 666.916C106.908 666.244 107.044 665.656 107.316 665.152C107.596 664.64 107.96 664.248 108.408 663.976C108.864 663.704 109.352 663.568 109.872 663.568C110.384 663.568 110.864 663.7 111.312 663.964C111.76 664.228 112.12 664.592 112.392 665.056C112.664 665.52 112.804 666.04 112.812 666.616ZM109.872 664.624C109.424 664.624 109.036 664.752 108.708 665.008C108.38 665.256 108.164 665.644 108.06 666.172H111.6V666.076C111.56 665.652 111.368 665.304 111.024 665.032C110.688 664.76 110.304 664.624 109.872 664.624ZM115.216 669.424C115.216 669.584 115.16 669.72 115.048 669.832C114.944 669.944 114.808 670 114.64 670C114.48 670 114.344 669.944 114.232 669.832C114.128 669.72 114.076 669.584 114.076 669.424V664.228C114.076 664.068 114.128 663.932 114.232 663.82C114.344 663.708 114.48 663.652 114.64 663.652C114.808 663.652 114.944 663.708 115.048 663.82C115.16 663.932 115.216 664.068 115.216 664.228V669.424ZM114.64 662.86C114.408 662.86 114.24 662.82 114.136 662.74C114.04 662.652 113.992 662.516 113.992 662.332V662.14C113.992 661.948 114.044 661.812 114.148 661.732C114.26 661.652 114.428 661.612 114.652 661.612C114.876 661.612 115.036 661.656 115.132 661.744C115.236 661.824 115.288 661.956 115.288 662.14V662.332C115.288 662.524 115.236 662.66 115.132 662.74C115.028 662.82 114.864 662.86 114.64 662.86ZM120.059 663.568C121.499 663.568 122.219 664.432 122.219 666.16V669.424C122.219 669.584 122.163 669.72 122.051 669.832C121.947 669.944 121.811 670 121.643 670C121.483 670 121.347 669.944 121.235 669.832C121.131 669.72 121.079 669.584 121.079 669.424V666.172C121.079 665.7 120.971 665.324 120.755 665.044C120.539 664.764 120.187 664.624 119.699 664.624C119.379 664.624 119.087 664.696 118.823 664.84C118.567 664.976 118.363 665.164 118.211 665.404C118.067 665.636 117.995 665.892 117.995 666.172V669.424C117.995 669.584 117.939 669.72 117.827 669.832C117.723 669.944 117.587 670 117.419 670C117.251 670 117.115 669.948 117.011 669.844C116.907 669.732 116.855 669.592 116.855 669.424V664.288C116.855 664.128 116.907 663.992 117.011 663.88C117.123 663.768 117.259 663.712 117.419 663.712C117.587 663.712 117.723 663.768 117.827 663.88C117.939 663.992 117.995 664.128 117.995 664.288V664.708C118.203 664.388 118.491 664.12 118.859 663.904C119.235 663.68 119.635 663.568 120.059 663.568ZM129.177 663.628C129.345 663.628 129.481 663.684 129.585 663.796C129.697 663.9 129.753 664.04 129.753 664.216V669.496C129.753 670.144 129.613 670.684 129.333 671.116C129.061 671.556 128.689 671.88 128.217 672.088C127.745 672.296 127.213 672.4 126.621 672.4C126.301 672.4 125.925 672.344 125.493 672.232C125.069 672.12 124.797 672.004 124.677 671.884C124.429 671.756 124.305 671.596 124.305 671.404C124.305 671.356 124.321 671.292 124.353 671.212C124.441 671.012 124.589 670.912 124.797 670.912C124.901 670.912 125.013 670.936 125.133 670.984C125.773 671.232 126.273 671.356 126.633 671.356C127.273 671.356 127.761 671.2 128.097 670.888C128.441 670.584 128.613 670.164 128.613 669.628V668.98C128.445 669.292 128.161 669.56 127.761 669.784C127.369 670.008 126.953 670.12 126.513 670.12C125.961 670.12 125.457 669.98 125.001 669.7C124.545 669.42 124.185 669.032 123.921 668.536C123.665 668.032 123.537 667.468 123.537 666.844C123.537 666.22 123.665 665.66 123.921 665.164C124.185 664.66 124.541 664.268 124.989 663.988C125.445 663.708 125.945 663.568 126.489 663.568C126.929 663.568 127.337 663.668 127.713 663.868C128.097 664.068 128.397 664.312 128.613 664.6V664.216C128.613 664.048 128.665 663.908 128.769 663.796C128.873 663.684 129.009 663.628 129.177 663.628ZM126.645 669.064C127.037 669.064 127.385 668.972 127.689 668.788C127.993 668.596 128.229 668.332 128.397 667.996C128.573 667.652 128.661 667.268 128.661 666.844C128.661 666.42 128.573 666.04 128.397 665.704C128.229 665.368 127.993 665.104 127.689 664.912C127.385 664.72 127.037 664.624 126.645 664.624C126.261 664.624 125.917 664.72 125.613 664.912C125.309 665.104 125.069 665.372 124.893 665.716C124.725 666.052 124.641 666.428 124.641 666.844C124.641 667.26 124.725 667.64 124.893 667.984C125.069 668.32 125.309 668.584 125.613 668.776C125.917 668.968 126.261 669.064 126.645 669.064ZM140.725 666.856C140.725 667.48 140.585 668.04 140.305 668.536C140.025 669.032 139.641 669.42 139.153 669.7C138.673 669.98 138.141 670.12 137.557 670.12C136.973 670.12 136.437 669.98 135.949 669.7C135.469 669.42 135.089 669.032 134.809 668.536C134.529 668.04 134.389 667.48 134.389 666.856C134.389 666.232 134.529 665.668 134.809 665.164C135.089 664.66 135.469 664.268 135.949 663.988C136.437 663.708 136.973 663.568 137.557 663.568C138.141 663.568 138.673 663.708 139.153 663.988C139.641 664.268 140.025 664.66 140.305 665.164C140.585 665.668 140.725 666.232 140.725 666.856ZM139.585 666.856C139.585 666.424 139.493 666.04 139.309 665.704C139.133 665.36 138.889 665.096 138.577 664.912C138.273 664.72 137.933 664.624 137.557 664.624C137.181 664.624 136.837 664.72 136.525 664.912C136.221 665.096 135.977 665.36 135.793 665.704C135.617 666.04 135.529 666.424 135.529 666.856C135.529 667.28 135.617 667.66 135.793 667.996C135.977 668.332 136.221 668.596 136.525 668.788C136.837 668.972 137.181 669.064 137.557 669.064C137.933 669.064 138.273 668.972 138.577 668.788C138.889 668.596 139.133 668.332 139.309 667.996C139.493 667.66 139.585 667.28 139.585 666.856ZM145.254 663.568C146.694 663.568 147.414 664.432 147.414 666.16V669.424C147.414 669.584 147.358 669.72 147.246 669.832C147.142 669.944 147.006 670 146.838 670C146.678 670 146.542 669.944 146.43 669.832C146.326 669.72 146.274 669.584 146.274 669.424V666.172C146.274 665.7 146.166 665.324 145.95 665.044C145.734 664.764 145.382 664.624 144.894 664.624C144.574 664.624 144.282 664.696 144.018 664.84C143.762 664.976 143.558 665.164 143.406 665.404C143.262 665.636 143.19 665.892 143.19 666.172V669.424C143.19 669.584 143.134 669.72 143.022 669.832C142.918 669.944 142.782 670 142.614 670C142.446 670 142.31 669.948 142.206 669.844C142.102 669.732 142.05 669.592 142.05 669.424V664.288C142.05 664.128 142.102 663.992 142.206 663.88C142.318 663.768 142.454 663.712 142.614 663.712C142.782 663.712 142.918 663.768 143.022 663.88C143.134 663.992 143.19 664.128 143.19 664.288V664.708C143.398 664.388 143.686 664.12 144.054 663.904C144.43 663.68 144.83 663.568 145.254 663.568ZM154.637 666.616C154.629 666.76 154.569 666.884 154.457 666.988C154.345 667.084 154.213 667.132 154.061 667.132H149.837C149.893 667.716 150.113 668.184 150.497 668.536C150.889 668.888 151.365 669.064 151.925 669.064C152.309 669.064 152.621 669.008 152.861 668.896C153.101 668.784 153.313 668.64 153.497 668.464C153.617 668.392 153.733 668.356 153.845 668.356C153.981 668.356 154.093 668.404 154.181 668.5C154.277 668.596 154.325 668.708 154.325 668.836C154.325 669.004 154.245 669.156 154.085 669.292C153.853 669.524 153.545 669.72 153.161 669.88C152.777 670.04 152.385 670.12 151.985 670.12C151.337 670.12 150.765 669.984 150.269 669.712C149.781 669.44 149.401 669.06 149.129 668.572C148.865 668.084 148.733 667.532 148.733 666.916C148.733 666.244 148.869 665.656 149.141 665.152C149.421 664.64 149.785 664.248 150.233 663.976C150.689 663.704 151.177 663.568 151.697 663.568C152.209 663.568 152.689 663.7 153.137 663.964C153.585 664.228 153.945 664.592 154.217 665.056C154.489 665.52 154.629 666.04 154.637 666.616ZM151.697 664.624C151.249 664.624 150.861 664.752 150.533 665.008C150.205 665.256 149.989 665.644 149.885 666.172H153.425V666.076C153.385 665.652 153.193 665.304 152.849 665.032C152.513 664.76 152.129 664.624 151.697 664.624ZM165.241 666.856C165.241 667.48 165.101 668.04 164.821 668.536C164.541 669.032 164.157 669.42 163.669 669.7C163.189 669.98 162.657 670.12 162.073 670.12C161.489 670.12 160.953 669.98 160.465 669.7C159.985 669.42 159.605 669.032 159.325 668.536C159.045 668.04 158.905 667.48 158.905 666.856C158.905 666.232 159.045 665.668 159.325 665.164C159.605 664.66 159.985 664.268 160.465 663.988C160.953 663.708 161.489 663.568 162.073 663.568C162.657 663.568 163.189 663.708 163.669 663.988C164.157 664.268 164.541 664.66 164.821 665.164C165.101 665.668 165.241 666.232 165.241 666.856ZM164.101 666.856C164.101 666.424 164.009 666.04 163.825 665.704C163.649 665.36 163.405 665.096 163.093 664.912C162.789 664.72 162.449 664.624 162.073 664.624C161.697 664.624 161.353 664.72 161.041 664.912C160.737 665.096 160.493 665.36 160.309 665.704C160.133 666.04 160.045 666.424 160.045 666.856C160.045 667.28 160.133 667.66 160.309 667.996C160.493 668.332 160.737 668.596 161.041 668.788C161.353 668.972 161.697 669.064 162.073 669.064C162.449 669.064 162.789 668.972 163.093 668.788C163.405 668.596 163.649 668.332 163.825 667.996C164.009 667.66 164.101 667.28 164.101 666.856ZM169.254 662.152C168.99 662.152 168.794 662.232 168.666 662.392C168.546 662.552 168.486 662.748 168.486 662.98V663.82H169.674C169.834 663.82 169.962 663.872 170.058 663.976C170.162 664.072 170.214 664.196 170.214 664.348C170.214 664.5 170.162 664.624 170.058 664.72C169.962 664.816 169.834 664.864 169.674 664.864H168.486V669.424C168.486 669.584 168.43 669.72 168.318 669.832C168.214 669.944 168.078 670 167.91 670C167.75 670 167.614 669.944 167.502 669.832C167.398 669.72 167.346 669.584 167.346 669.424V664.864H166.602C166.45 664.864 166.322 664.816 166.218 664.72C166.114 664.624 166.062 664.5 166.062 664.348C166.062 664.196 166.114 664.072 166.218 663.976C166.322 663.872 166.45 663.82 166.602 663.82H167.346V662.98C167.346 662.42 167.526 661.976 167.886 661.648C168.246 661.312 168.754 661.144 169.41 661.144C169.682 661.144 169.922 661.196 170.13 661.3C170.338 661.396 170.442 661.544 170.442 661.744C170.442 661.896 170.394 662.024 170.298 662.128C170.21 662.224 170.102 662.272 169.974 662.272C169.942 662.272 169.854 662.256 169.71 662.224C169.534 662.176 169.382 662.152 169.254 662.152ZM176.274 664.828V668.404C176.274 668.804 176.454 669.004 176.814 669.004C176.87 669.004 176.946 668.992 177.042 668.968C177.138 668.936 177.214 668.92 177.27 668.92C177.374 668.92 177.462 668.964 177.534 669.052C177.606 669.14 177.642 669.252 177.642 669.388C177.642 669.556 177.546 669.7 177.354 669.82C177.162 669.94 176.946 670 176.706 670C176.442 670 176.198 669.972 175.974 669.916C175.758 669.86 175.562 669.72 175.386 669.496C175.218 669.264 175.134 668.916 175.134 668.452V664.828H174.438C174.286 664.828 174.158 664.78 174.054 664.684C173.958 664.58 173.91 664.452 173.91 664.3C173.91 664.148 173.958 664.024 174.054 663.928C174.158 663.832 174.286 663.784 174.438 663.784H175.134V662.776C175.134 662.616 175.186 662.48 175.29 662.368C175.402 662.256 175.542 662.2 175.71 662.2C175.87 662.2 176.002 662.256 176.106 662.368C176.218 662.48 176.274 662.616 176.274 662.776V663.784H177.27C177.422 663.784 177.546 663.836 177.642 663.94C177.746 664.036 177.798 664.16 177.798 664.312C177.798 664.464 177.746 664.588 177.642 664.684C177.546 664.78 177.422 664.828 177.27 664.828H176.274ZM182.26 663.604C183.668 663.604 184.372 664.476 184.372 666.22V669.424C184.372 669.584 184.316 669.72 184.204 669.832C184.1 669.944 183.964 670 183.796 670C183.636 670 183.5 669.944 183.388 669.832C183.284 669.72 183.232 669.584 183.232 669.424V666.22C183.232 665.18 182.792 664.66 181.912 664.66C181.44 664.66 181.048 664.812 180.736 665.116C180.424 665.412 180.268 665.78 180.268 666.22V669.424C180.268 669.584 180.212 669.72 180.1 669.832C179.996 669.944 179.86 670 179.692 670C179.524 670 179.388 669.948 179.284 669.844C179.18 669.732 179.128 669.592 179.128 669.424V661.696C179.128 661.536 179.18 661.4 179.284 661.288C179.396 661.176 179.532 661.12 179.692 661.12C179.86 661.12 179.996 661.176 180.1 661.288C180.212 661.4 180.268 661.536 180.268 661.696V664.732C180.468 664.42 180.748 664.156 181.108 663.94C181.468 663.716 181.852 663.604 182.26 663.604ZM191.598 666.616C191.59 666.76 191.53 666.884 191.418 666.988C191.306 667.084 191.174 667.132 191.022 667.132H186.798C186.854 667.716 187.074 668.184 187.458 668.536C187.85 668.888 188.326 669.064 188.886 669.064C189.27 669.064 189.582 669.008 189.822 668.896C190.062 668.784 190.274 668.64 190.458 668.464C190.578 668.392 190.694 668.356 190.806 668.356C190.942 668.356 191.054 668.404 191.142 668.5C191.238 668.596 191.286 668.708 191.286 668.836C191.286 669.004 191.206 669.156 191.046 669.292C190.814 669.524 190.506 669.72 190.122 669.88C189.738 670.04 189.346 670.12 188.946 670.12C188.298 670.12 187.726 669.984 187.23 669.712C186.742 669.44 186.362 669.06 186.09 668.572C185.826 668.084 185.694 667.532 185.694 666.916C185.694 666.244 185.83 665.656 186.102 665.152C186.382 664.64 186.746 664.248 187.194 663.976C187.65 663.704 188.138 663.568 188.658 663.568C189.17 663.568 189.65 663.7 190.098 663.964C190.546 664.228 190.906 664.592 191.178 665.056C191.45 665.52 191.59 666.04 191.598 666.616ZM188.658 664.624C188.21 664.624 187.822 664.752 187.494 665.008C187.166 665.256 186.95 665.644 186.846 666.172H190.386V666.076C190.346 665.652 190.154 665.304 189.81 665.032C189.474 664.76 189.09 664.624 188.658 664.624ZM200.133 663.604C201.533 663.604 202.233 664.476 202.233 666.22V669.424C202.233 669.592 202.181 669.732 202.077 669.844C201.973 669.948 201.837 670 201.669 670C201.501 670 201.361 669.944 201.249 669.832C201.145 669.72 201.093 669.584 201.093 669.424V666.232C201.093 665.184 200.653 664.66 199.773 664.66C199.461 664.66 199.177 664.732 198.921 664.876C198.673 665.012 198.477 665.2 198.333 665.44C198.197 665.68 198.129 665.944 198.129 666.232V669.424C198.129 669.584 198.073 669.72 197.961 669.832C197.857 669.944 197.721 670 197.553 670C197.385 670 197.249 669.948 197.145 669.844C197.041 669.732 196.989 669.592 196.989 669.424V666.22C196.989 665.748 196.889 665.372 196.689 665.092C196.489 664.804 196.157 664.66 195.693 664.66C195.221 664.66 194.829 664.812 194.517 665.116C194.213 665.412 194.061 665.78 194.061 666.22V669.424C194.061 669.584 194.005 669.72 193.893 669.832C193.789 669.944 193.653 670 193.485 670C193.317 670 193.181 669.948 193.077 669.844C192.973 669.732 192.921 669.592 192.921 669.424V664.288C192.921 664.128 192.973 663.992 193.077 663.88C193.189 663.768 193.325 663.712 193.485 663.712C193.653 663.712 193.789 663.768 193.893 663.88C194.005 663.992 194.061 664.128 194.061 664.288V664.708C194.269 664.396 194.545 664.136 194.889 663.928C195.241 663.712 195.621 663.604 196.029 663.604C197.021 663.604 197.665 664.044 197.961 664.924C198.137 664.588 198.429 664.284 198.837 664.012C199.245 663.74 199.677 663.604 200.133 663.604ZM204.345 669.988C204.153 669.988 204.005 669.936 203.901 669.832C203.805 669.728 203.757 669.576 203.757 669.376V669.148C203.757 668.956 203.805 668.808 203.901 668.704C204.005 668.6 204.153 668.548 204.345 668.548H204.465C204.665 668.548 204.813 668.6 204.909 668.704C205.013 668.808 205.065 668.956 205.065 669.148V669.376C205.065 669.784 204.865 669.988 204.465 669.988H204.345Z" fill="#464FAC"/>
<ellipse opacity="0.5" cx="395.801" cy="831.021" rx="51.9031" ry="75.5" transform="rotate(52.1943 395.801 831.021)" fill="#A1A7E3"/>
<g opacity="0.6">
<mask id="mask0_1_317" style="mask-type:alpha" maskUnits="userSpaceOnUse" x="-76" y="153" width="103" height="147">
<ellipse cx="-24.4999" cy="226.5" rx="47.5" ry="75.5" transform="rotate(17.4943 -24.4999 226.5)" fill="#4953BE"/>
</mask>
<g mask="url(#mask0_1_317)">
<rect width="193.596" height="3.89" transform="matrix(0.870983 0.491313 -0.606392 0.795166 -18.2991 170.11)" fill="#F7A491"/>
<rect width="193.596" height="3.89" transform="matrix(0.870983 0.491313 -0.606392 0.795166 -12.3699 162.335)" fill="#F7A491"/>
<rect width="193.596" height="3.89" transform="matrix(0.870983 0.491313 -0.606392 0.795166 -6.44067 154.56)" fill="#F7A491"/>
<rect width="193.596" height="3.89" transform="matrix(0.870983 0.491313 -0.606392 0.795166 -24.2285 177.885)" fill="#F7A491"/>
<rect width="193.596" height="3.89" transform="matrix(0.870983 0.491313 -0.606392 0.795166 -30.1577 185.66)" fill="#F7A491"/>
<rect width="193.596" height="3.89" transform="matrix(0.870983 0.491313 -0.606392 0.795166 -36.0869 193.435)" fill="#F7A491"/>
<rect width="193.596" height="3.89" transform="matrix(0.870983 0.491313 -0.606392 0.795166 -42.0164 201.21)" fill="#F7A491"/>
<rect width="193.596" height="3.89" transform="matrix(0.870983 0.491313 -0.606392 0.795166 -64.7224 222.31)" fill="#F7A491"/>
<rect width="193.596" height="3.89" transform="matrix(0.870983 0.491313 -0.606392 0.795166 -58.7932 214.535)" fill="#F7A491"/>
<rect width="193.596" height="3.89" transform="matrix(0.870983 0.491313 -0.606392 0.795166 -52.8638 206.76)" fill="#F7A491"/>
<rect width="193.596" height="3.89" transform="matrix(0.870983 0.491313 -0.606392 0.795166 -70.6516 230.085)" fill="#F7A491"/>
<rect width="193.596" height="3.89" transform="matrix(0.870983 0.491313 -0.606392 0.795166 -76.5808 237.861)" fill="#F7A491"/>
<rect width="193.596" height="3.89" transform="matrix(0.870983 0.491313 -0.606392 0.795166 -82.5103 245.636)" fill="#F7A491"/>
<rect width="193.596" height="3.89" transform="matrix(0.870983 0.491313 -0.606392 0.795166 -88.4395 253.411)" fill="#F7A491"/>
</g>
</g>
<g opacity="0.6">
<mask id="mask1_1_317" style="mask-type:alpha" maskUnits="userSpaceOnUse" x="371" y="533" width="103" height="147">
<ellipse cx="422.5" cy="606.5" rx="47.5" ry="75.5" transform="rotate(17.4943 422.5 606.5)" fill="#4953BE"/>
</mask>
<g mask="url(#mask1_1_317)">
<rect width="193.596" height="3.89" transform="matrix(0.870983 0.491313 -0.606392 0.795166 382.278 597.311)" fill="#F7A491"/>
<rect width="193.596" height="3.89" transform="matrix(0.870983 0.491313 -0.606392 0.795166 388.207 589.536)" fill="#F7A491"/>
<rect width="193.596" height="3.89" transform="matrix(0.870983 0.491313 -0.606392 0.795166 376.348 605.086)" fill="#F7A491"/>
<rect width="193.596" height="3.89" transform="matrix(0.870983 0.491313 -0.606392 0.795166 370.419 617.861)" fill="#F7A491"/>
<rect width="193.596" height="3.89" transform="matrix(0.870983 0.491313 -0.606392 0.795166 364.49 625.636)" fill="#F7A491"/>
<rect width="193.596" height="3.89" transform="matrix(0.870983 0.491313 -0.606392 0.795166 358.561 633.411)" fill="#F7A491"/>
</g>
</g>
</g>
<rect x="4" y="4" width="388" height="820" rx="34" stroke="white" stroke-width="8"/>
<defs>
<clipPath id="clip0_1_317">
<rect x="8" y="8" width="380" height="812" rx="30" fill="white"/>
</clipPath>
</defs>
</svg>
