<svg width="380" height="812" viewBox="0 0 380 812" fill="none" xmlns="http://www.w3.org/2000/svg">
<g clip-path="url(#clip0_35_106)">
<rect width="380" height="812" fill="#4751C0"/>
<path opacity="0.4" d="M293.001 336C341.001 236 241.001 246 307.001 166C411.001 76 407.001 255.6 487.001 486C567.001 716.4 419.001 582 321.001 486C337.668 473.333 246.194 433.515 293.001 336Z" fill="#A1A7E3"/>
<path opacity="0.4" d="M85.6527 499.668C32.6689 546.885 132.691 551.677 62.8419 586.692C-45.3391 623.112 -31.9767 530.095 -99.5401 402.261C-167.104 274.426 -26.8655 359.123 65.6289 418.849C48.3839 423.772 137.32 453.625 85.6527 499.668Z" fill="#A1A7E3"/>
<ellipse cx="47.5" cy="75.5" rx="47.5" ry="75.5" transform="matrix(-0.881858 0.471515 0.471515 0.881858 387.777 -72.4773)" fill="#6C74CD"/>
<ellipse opacity="0.5" cx="387.8" cy="823.021" rx="51.9031" ry="75.5" transform="rotate(52.1943 387.8 823.021)" fill="#A1A7E3"/>
<g opacity="0.6">
<mask id="mask0_35_106" style="mask-type:alpha" maskUnits="userSpaceOnUse" x="-84" y="145" width="103" height="147">
<ellipse cx="-32.5006" cy="218.5" rx="47.5" ry="75.5" transform="rotate(17.4943 -32.5006 218.5)" fill="#4953BE"/>
</mask>
<g mask="url(#mask0_35_106)">
<rect width="193.596" height="3.89" transform="matrix(0.870983 0.491313 -0.606392 0.795166 -26.2988 162.11)" fill="#F7A491"/>
<rect width="193.596" height="3.89" transform="matrix(0.870983 0.491313 -0.606392 0.795166 -20.3691 154.335)" fill="#F7A491"/>
<rect width="193.596" height="3.89" transform="matrix(0.870983 0.491313 -0.606392 0.795166 -14.4395 146.56)" fill="#F7A491"/>
<rect width="193.596" height="3.89" transform="matrix(0.870983 0.491313 -0.606392 0.795166 -32.2285 169.885)" fill="#F7A491"/>
<rect width="193.596" height="3.89" transform="matrix(0.870983 0.491313 -0.606392 0.795166 -38.1582 177.66)" fill="#F7A491"/>
<rect width="193.596" height="3.89" transform="matrix(0.870983 0.491313 -0.606392 0.795166 -44.0859 185.435)" fill="#F7A491"/>
<rect width="193.596" height="3.89" transform="matrix(0.870983 0.491313 -0.606392 0.795166 -50.0156 193.21)" fill="#F7A491"/>
<rect width="193.596" height="3.89" transform="matrix(0.870983 0.491313 -0.606392 0.795166 -72.7227 214.31)" fill="#F7A491"/>
<rect width="193.596" height="3.89" transform="matrix(0.870983 0.491313 -0.606392 0.795166 -66.793 206.535)" fill="#F7A491"/>
<rect width="193.596" height="3.89" transform="matrix(0.870983 0.491313 -0.606392 0.795166 -60.8633 198.76)" fill="#F7A491"/>
<rect width="193.596" height="3.89" transform="matrix(0.870983 0.491313 -0.606392 0.795166 -78.6504 222.085)" fill="#F7A491"/>
<rect width="193.596" height="3.89" transform="matrix(0.870983 0.491313 -0.606392 0.795166 -84.5801 229.861)" fill="#F7A491"/>
<rect width="193.596" height="3.89" transform="matrix(0.870983 0.491313 -0.606392 0.795166 -90.5098 237.636)" fill="#F7A491"/>
<rect width="193.596" height="3.89" transform="matrix(0.870983 0.491313 -0.606392 0.795166 -96.4395 245.411)" fill="#F7A491"/>
</g>
</g>
<g opacity="0.6">
<mask id="mask1_35_106" style="mask-type:alpha" maskUnits="userSpaceOnUse" x="363" y="525" width="103" height="147">
<ellipse cx="414.499" cy="598.5" rx="47.5" ry="75.5" transform="rotate(17.4943 414.499 598.5)" fill="#4953BE"/>
</mask>
<g mask="url(#mask1_35_106)">
<rect width="193.596" height="3.89" transform="matrix(0.870983 0.491313 -0.606392 0.795166 374.277 589.311)" fill="#F7A491"/>
<rect width="193.596" height="3.89" transform="matrix(0.870983 0.491313 -0.606392 0.795166 380.207 581.536)" fill="#F7A491"/>
<rect width="193.596" height="3.89" transform="matrix(0.870983 0.491313 -0.606392 0.795166 368.35 597.086)" fill="#F7A491"/>
<rect width="193.596" height="3.89" transform="matrix(0.870983 0.491313 -0.606392 0.795166 362.42 609.861)" fill="#F7A491"/>
<rect width="193.596" height="3.89" transform="matrix(0.870983 0.491313 -0.606392 0.795166 356.49 617.636)" fill="#F7A491"/>
<rect width="193.596" height="3.89" transform="matrix(0.870983 0.491313 -0.606392 0.795166 350.561 625.411)" fill="#F7A491"/>
</g>
</g>
</g>
<defs>
<clipPath id="clip0_35_106">
<rect width="380" height="812" fill="white"/>
</clipPath>
</defs>
</svg>
