<svg width="25" height="25" viewBox="0 0 25 25" fill="none" xmlns="http://www.w3.org/2000/svg">
<g clip-path="url(#clip0_1_2)">
<path d="M12.5 25C19.4036 25 25 19.4036 25 12.5C25 5.59644 19.4036 0 12.5 0C5.59644 0 0 5.59644 0 12.5C0 19.4036 5.59644 25 12.5 25Z" fill="#F7A491"/>
<path d="M12.5 23.1776C6.61212 23.1776 1.84576 18.3878 1.84576 12.5233C1.84576 6.65886 6.61212 1.84578 12.5 1.84578C18.3878 1.84578 23.1542 6.6355 23.1542 12.5C23.1542 18.3645 18.3878 23.1776 12.5 23.1776ZM12.5 2.66354C7.07941 2.66354 2.66352 7.07942 2.66352 12.5C2.66352 17.9205 7.07941 22.3364 12.5 22.3364C17.9205 22.3364 22.3364 17.9205 22.3364 12.5C22.3364 7.07942 17.9205 2.66354 12.5 2.66354Z" fill="#C4886E"/>
<path d="M12.5 5.58409L14.042 10.3738H19.0654L15 13.3177L16.5654 18.0841L12.5 15.1402L8.43457 18.0841L9.99999 13.3177L5.93457 10.3738H10.9579L12.5 5.58409Z" fill="white"/>
</g>
<defs>
<clipPath id="clip0_1_2">
<rect width="25" height="25" fill="white"/>
</clipPath>
</defs>
</svg>
