<svg width="396" height="828" viewBox="0 0 396 828" fill="none" xmlns="http://www.w3.org/2000/svg">
<g clip-path="url(#clip0_1_18)">
<rect x="8" y="8" width="380" height="812" rx="20" fill="#FEEADC"/>
<rect x="39" y="569" width="319" height="64" rx="14" fill="#353C8A"/>
<path d="M181.594 597.375H184.875V605.898H187.794V597.375H191.075V594.989H181.594V597.375ZM192.19 605.898H195.151V602.297H196.174L198.092 605.898H201.309L199.093 601.828C200.254 601.269 200.947 600.209 200.947 598.696C200.947 596.374 199.322 594.989 196.898 594.989H192.19V605.898ZM195.151 599.996V597.354H196.195C197.234 597.354 197.857 597.759 197.857 598.696C197.857 599.628 197.234 599.996 196.195 599.996H195.151ZM208.665 594.989V601.722C208.665 602.739 207.935 603.469 206.918 603.469C205.901 603.469 205.171 602.739 205.171 601.722V594.989H202.209V601.977C202.209 604.47 204.095 606.026 206.918 606.026C209.72 606.026 211.627 604.47 211.627 601.977V594.989H208.665ZM213.034 605.898H220.875V603.512H215.996V601.637H220.492V599.25H215.996V597.375H220.897V594.989H213.034V605.898Z" fill="white"/>
<path fill-rule="evenodd" clip-rule="evenodd" d="M8 9.00244V29.0518H388V9.00244H8Z" fill="black" fill-opacity="0.01"/>
<path fill-rule="evenodd" clip-rule="evenodd" d="M368.348 14.6035H347.197C346.296 14.6035 345.567 15.2954 345.567 16.1571V22.8888C345.567 23.7469 346.297 24.4424 347.197 24.4424H368.348C369.249 24.4424 369.978 23.7506 369.978 22.8888V16.1571C369.978 15.2991 369.248 14.6035 368.348 14.6035ZM346.109 16.1573C346.109 15.5832 346.594 15.1216 347.197 15.1216H368.348C368.949 15.1216 369.436 15.5858 369.436 16.1573V22.8891C369.436 23.4631 368.951 23.9248 368.348 23.9248H347.197C346.596 23.9248 346.109 23.4606 346.109 22.8891V16.1573Z" fill="black"/>
<path fill-rule="evenodd" clip-rule="evenodd" d="M347.079 15.6404C346.803 15.6404 346.579 15.8642 346.579 16.1404V22.9154C346.579 23.1915 346.803 23.4154 347.079 23.4154H355.693V15.6404H347.079Z" fill="black"/>
<path fill-rule="evenodd" clip-rule="evenodd" d="M371.787 19.5231C371.787 20.4336 371.197 21.1868 370.431 21.312V17.7343C371.197 17.8595 371.787 18.6127 371.787 19.5231Z" fill="black"/>
<path d="M316.051 23.756C317.899 23.756 319.166 22.5332 319.166 20.7416C319.166 19.0052 317.979 17.7884 316.285 17.7884C315.463 17.7884 314.833 18.0391 314.4 18.5405H314.301L314.555 15.7095H318.659V14.7251H313.683L313.195 19.7267H314.24C314.604 19.0969 315.272 18.7361 316.081 18.7361C317.25 18.7361 318.053 19.5616 318.053 20.7722C318.053 21.9829 317.256 22.79 316.063 22.79C315.012 22.79 314.246 22.1541 314.147 21.2002H313.053C313.152 22.7227 314.363 23.756 316.051 23.756Z" fill="black"/>
<path d="M323.993 23.756C325.884 23.756 327.207 22.6982 327.207 21.188C327.207 20.0385 326.471 19.1458 325.352 18.9379V18.8401C326.273 18.5894 326.842 17.8373 326.842 16.8712C326.842 15.4955 325.661 14.5172 323.993 14.5172C322.324 14.5172 321.143 15.4955 321.143 16.8712C321.143 17.8312 321.724 18.5955 322.633 18.8401V18.9379C321.514 19.1458 320.779 20.0385 320.779 21.188C320.779 22.6982 322.101 23.756 323.993 23.756ZM323.993 22.8144C322.757 22.8144 321.904 22.1174 321.904 21.1085C321.904 20.0996 322.757 19.4026 323.993 19.4026C325.229 19.4026 326.082 20.0996 326.082 21.1085C326.082 22.1174 325.229 22.8144 323.993 22.8144ZM323.993 18.4732C322.942 18.4732 322.237 17.874 322.237 16.9752C322.237 16.0641 322.936 15.4588 323.993 15.4588C325.05 15.4588 325.748 16.0641 325.748 16.9752C325.748 17.874 325.043 18.4732 323.993 18.4732Z" fill="black"/>
<path d="M339.166 22.9184C338.616 22.9184 338.251 22.3864 338.251 21.5732C338.251 20.76 338.61 20.2342 339.166 20.2342C339.722 20.2342 340.075 20.7478 340.075 21.5732C340.075 22.3803 339.71 22.9184 339.166 22.9184ZM339.166 23.701C340.279 23.701 341.064 22.8205 341.064 21.5732C341.064 20.3259 340.279 19.4515 339.166 19.4515C338.054 19.4515 337.263 20.332 337.263 21.5732C337.263 22.8205 338.054 23.701 339.166 23.701ZM334.005 18.8217C335.118 18.8217 335.903 17.9413 335.903 16.6939C335.903 15.4466 335.118 14.5722 334.005 14.5722C332.893 14.5722 332.102 15.4527 332.102 16.6939C332.102 17.9413 332.893 18.8217 334.005 18.8217ZM333.906 23.5481L336.966 19.4087L340.427 14.7251H339.302L336.175 18.9501L332.769 23.5481H333.906ZM334.005 18.0391C333.455 18.0391 333.091 17.5071 333.091 16.6939C333.091 15.8807 333.449 15.3549 334.005 15.3549C334.562 15.3549 334.914 15.8685 334.914 16.6939C334.914 17.501 334.549 18.0391 334.005 18.0391Z" fill="black"/>
<path opacity="0.45" fill-rule="evenodd" clip-rule="evenodd" d="M302.3 23.9081V20.3411L304.035 22.2102L302.3 23.9081V23.9081V23.9081V23.9081ZM304.115 16.8684L302.3 18.6741V15.2531L304.115 16.8684V16.8684V16.8684V16.8684ZM302.736 19.5393L305.428 16.8684L301.411 13.0123H301.316V18.3754L298.59 15.5474L297.813 16.3497L301.094 19.5393L297.813 22.7283L298.59 23.5306L301.316 20.7026V26.0652H301.49L305.467 22.1995L302.736 19.5393V19.5393Z" fill="black"/>
<path fill-rule="evenodd" clip-rule="evenodd" d="M92.6079 15.8782C95.065 15.8782 97.3042 16.7537 99.0212 18.1894L100.213 16.9163C98.1798 15.2087 95.524 14.0148 92.6079 14.0148C89.6963 14.0148 87.0443 15.2051 85.0133 16.9072L86.2029 18.1821C87.9186 16.7507 90.154 15.8782 92.6079 15.8782V15.8782ZM92.6079 19.5531C94.0805 19.5531 95.4258 20.0703 96.4635 20.9223L97.7246 19.5749C96.3521 18.4353 94.5667 17.6909 92.6079 17.6909C90.6529 17.6909 88.8689 18.4335 87.4976 19.5694L88.7568 20.9187C89.7938 20.0685 91.1372 19.5531 92.6079 19.5531V19.5531ZM95.2017 22.2697C94.4996 21.706 93.5955 21.3157 92.6073 21.3157C91.6209 21.3157 90.7181 21.7054 90.016 22.2667L92.6073 25.0419L95.2017 22.2697V22.2697Z" fill="black"/>
<path d="M72.2561 20.1929V18.9897H68.2571V20.0698H71.0325V20.3091C71.0325 21.9771 69.8362 23.105 68.0725 23.105C66.0901 23.105 64.8596 21.5601 64.8596 19.0718C64.8596 16.6177 66.1106 15.0454 68.0657 15.0454C69.5286 15.0454 70.5198 15.7495 70.9436 17.0825H72.1946C71.8391 15.1274 70.2532 13.9106 68.0657 13.9106C65.3655 13.9106 63.595 15.9546 63.595 19.0718C63.595 22.23 65.3381 24.2397 68.0657 24.2397C70.5881 24.2397 72.2561 22.6265 72.2561 20.1929ZM73.5651 21.4302C73.695 23.1323 75.1374 24.2397 77.2292 24.2397C79.485 24.2397 80.9137 23.0845 80.9137 21.2729C80.9137 19.8237 80.0934 19.0308 78.0495 18.5181L77.0172 18.2446C75.6569 17.896 75.1168 17.4517 75.1168 16.6792C75.1168 15.6812 75.985 15.0249 77.2975 15.0249C78.528 15.0249 79.362 15.6265 79.5329 16.6382H80.7702C80.6676 15.0454 79.2458 13.9106 77.3385 13.9106C75.2536 13.9106 73.8522 15.0454 73.8522 16.7202C73.8522 18.1216 74.6247 18.9282 76.4088 19.3794L77.6735 19.7075C79.0338 20.0493 79.6491 20.5825 79.6491 21.4233C79.6491 22.4009 78.6715 23.1187 77.3454 23.1187C75.944 23.1187 74.9596 22.4624 74.8092 21.4302H73.5651Z" fill="black"/>
<path fill-rule="evenodd" clip-rule="evenodd" d="M50.5599 19.0271C50.5599 20.9648 52.1478 22.5357 54.1066 22.5357C56.0654 22.5357 57.6533 20.9648 57.6533 19.0271C57.6533 17.0893 56.0654 15.5184 54.1066 15.5184C52.1478 15.5184 50.5599 17.0893 50.5599 19.0271ZM57.0084 19.0271C57.0084 20.6125 55.7092 21.8978 54.1066 21.8978C52.504 21.8978 51.2048 20.6125 51.2048 19.0271C51.2048 17.4416 52.504 16.1564 54.1066 16.1564C55.7092 16.1564 57.0084 17.4416 57.0084 19.0271Z" fill="black"/>
<path fill-rule="evenodd" clip-rule="evenodd" d="M45.4933 22.5357C47.4521 22.5357 49.04 20.9648 49.04 19.0271C49.04 17.0893 47.4521 15.5184 45.4933 15.5184C43.5346 15.5184 41.9467 17.0893 41.9467 19.0271C41.9467 20.9648 43.5346 22.5357 45.4933 22.5357Z" fill="black"/>
<path fill-rule="evenodd" clip-rule="evenodd" d="M36.8799 22.5357C38.8387 22.5357 40.4266 20.9648 40.4266 19.0271C40.4266 17.0893 38.8387 15.5184 36.8799 15.5184C34.9211 15.5184 33.3333 17.0893 33.3333 19.0271C33.3333 20.9648 34.9211 22.5357 36.8799 22.5357Z" fill="black"/>
<path fill-rule="evenodd" clip-rule="evenodd" d="M28.2666 22.5357C30.2254 22.5357 31.8133 20.9648 31.8133 19.0271C31.8133 17.0893 30.2254 15.5184 28.2666 15.5184C26.3079 15.5184 24.72 17.0893 24.72 19.0271C24.72 20.9648 26.3079 22.5357 28.2666 22.5357Z" fill="black"/>
<path opacity="0.3" d="M35.6774 112.065C35.5556 113.355 35.0797 114.362 34.2496 115.087C33.4196 115.806 32.3156 116.166 30.9376 116.166C29.9747 116.166 29.1253 115.939 28.3893 115.485C27.6588 115.026 27.0944 114.376 26.6959 113.535C26.2975 112.694 26.09 111.717 26.0734 110.604V109.476C26.0734 108.336 26.2753 107.331 26.6793 106.462C27.0833 105.594 27.6616 104.924 28.4142 104.454C29.1723 103.983 30.0467 103.748 31.0372 103.748C32.3709 103.748 33.4445 104.111 34.2579 104.835C35.0714 105.56 35.5446 106.584 35.6774 107.907H33.5856C33.486 107.038 33.2314 106.413 32.8219 106.031C32.4179 105.643 31.823 105.45 31.0372 105.45C30.1241 105.45 29.4213 105.785 28.9288 106.454C28.4419 107.118 28.1928 108.095 28.1818 109.384V110.455C28.1818 111.761 28.4142 112.757 28.879 113.443C29.3494 114.13 30.0356 114.473 30.9376 114.473C31.7622 114.473 32.382 114.287 32.797 113.917C33.212 113.546 33.4749 112.929 33.5856 112.065H35.6774ZM36.9889 111.426C36.9889 110.546 37.1632 109.755 37.5118 109.052C37.8605 108.344 38.3502 107.802 38.9811 107.425C39.6119 107.043 40.3369 106.853 41.1559 106.853C42.3678 106.853 43.3501 107.243 44.1027 108.023C44.8608 108.803 45.2703 109.838 45.3312 111.127L45.3395 111.601C45.3395 112.486 45.1679 113.277 44.8248 113.975C44.4873 114.672 44.0003 115.211 43.3639 115.593C42.733 115.975 42.0026 116.166 41.1725 116.166C39.9052 116.166 38.8898 115.745 38.1261 114.904C37.368 114.058 36.9889 112.931 36.9889 111.526V111.426ZM39.006 111.601C39.006 112.525 39.1969 113.25 39.5787 113.775C39.9606 114.296 40.4918 114.556 41.1725 114.556C41.8531 114.556 42.3816 114.29 42.7579 113.759C43.1398 113.228 43.3307 112.45 43.3307 111.426C43.3307 110.519 43.1342 109.799 42.7413 109.268C42.354 108.737 41.8255 108.471 41.1559 108.471C40.4974 108.471 39.9744 108.734 39.587 109.26C39.1997 109.78 39.006 110.56 39.006 111.601ZM48.942 107.019L49.0001 107.957C49.631 107.221 50.4943 106.853 51.59 106.853C52.7908 106.853 53.6126 107.312 54.0553 108.23C54.7083 107.312 55.6269 106.853 56.8112 106.853C57.8017 106.853 58.5377 107.126 59.0192 107.674C59.5061 108.222 59.7552 109.03 59.7662 110.098V116H57.7491V110.156C57.7491 109.586 57.6246 109.168 57.3756 108.903C57.1266 108.637 56.7143 108.504 56.1388 108.504C55.6795 108.504 55.3032 108.629 55.0099 108.878C54.7221 109.121 54.5201 109.442 54.4039 109.841L54.4122 116H52.3951V110.09C52.3675 109.033 51.8279 108.504 50.7765 108.504C49.9685 108.504 49.3958 108.834 49.0582 109.492V116H47.0411V107.019H48.942ZM69.7023 111.601C69.7023 112.99 69.3868 114.099 68.756 114.929C68.1251 115.754 67.2784 116.166 66.2159 116.166C65.2309 116.166 64.4423 115.842 63.8502 115.195V119.453H61.8331V107.019H63.6925L63.7755 107.932C64.3676 107.212 65.1728 106.853 66.191 106.853C67.2867 106.853 68.1445 107.262 68.7643 108.081C69.3896 108.895 69.7023 110.026 69.7023 111.476V111.601ZM67.6935 111.426C67.6935 110.53 67.5136 109.819 67.1539 109.293C66.7998 108.767 66.2906 108.504 65.6266 108.504C64.802 108.504 64.2099 108.845 63.8502 109.525V113.51C64.2155 114.207 64.8131 114.556 65.6432 114.556C66.2851 114.556 66.7859 114.298 67.1456 113.784C67.5109 113.264 67.6935 112.478 67.6935 111.426ZM73.5621 116H71.545V103.25H73.5621V116ZM79.7213 116.166C78.443 116.166 77.4054 115.765 76.6085 114.962C75.8172 114.154 75.4215 113.081 75.4215 111.742V111.493C75.4215 110.596 75.5931 109.797 75.9362 109.094C76.2848 108.385 76.7718 107.835 77.3971 107.442C78.0224 107.049 78.7197 106.853 79.4889 106.853C80.7119 106.853 81.6554 107.243 82.3195 108.023C82.9891 108.803 83.3239 109.907 83.3239 111.335V112.148H77.4552C77.5161 112.89 77.7623 113.477 78.194 113.908C78.6311 114.34 79.179 114.556 79.8375 114.556C80.7617 114.556 81.5143 114.182 82.0953 113.435L83.1827 114.473C82.823 115.009 82.3416 115.427 81.7384 115.726C81.1407 116.019 80.4684 116.166 79.7213 116.166ZM79.4806 108.471C78.9272 108.471 78.479 108.665 78.1359 109.052C77.7983 109.44 77.5825 109.979 77.4884 110.671H81.3317V110.521C81.2874 109.846 81.1075 109.337 80.7921 108.994C80.4767 108.646 80.0395 108.471 79.4806 108.471ZM87.4244 104.835V107.019H89.0099V108.513H87.4244V113.526C87.4244 113.869 87.4908 114.118 87.6237 114.273C87.762 114.423 88.0055 114.498 88.3541 114.498C88.5865 114.498 88.8217 114.47 89.0597 114.415V115.975C88.6004 116.102 88.1577 116.166 87.7316 116.166C86.1821 116.166 85.4073 115.311 85.4073 113.601V108.513H83.9298V107.019H85.4073V104.835H87.4244ZM94.5133 116.166C93.235 116.166 92.1974 115.765 91.4005 114.962C90.6092 114.154 90.2135 113.081 90.2135 111.742V111.493C90.2135 110.596 90.3851 109.797 90.7281 109.094C91.0768 108.385 91.5638 107.835 92.1891 107.442C92.8144 107.049 93.5117 106.853 94.2809 106.853C95.5039 106.853 96.4474 107.243 97.1115 108.023C97.781 108.803 98.1158 109.907 98.1158 111.335V112.148H92.2472C92.3081 112.89 92.5543 113.477 92.986 113.908C93.4231 114.34 93.971 114.556 94.6295 114.556C95.5537 114.556 96.3063 114.182 96.8873 113.435L97.9747 114.473C97.615 115.009 97.1336 115.427 96.5304 115.726C95.9327 116.019 95.2604 116.166 94.5133 116.166ZM94.2726 108.471C93.7192 108.471 93.271 108.665 92.9279 109.052C92.5903 109.44 92.3745 109.979 92.2804 110.671H96.1237V110.521C96.0794 109.846 95.8995 109.337 95.5841 108.994C95.2687 108.646 94.8315 108.471 94.2726 108.471ZM108.957 113.56C108.957 113.2 108.807 112.926 108.508 112.738C108.215 112.55 107.725 112.384 107.039 112.24C106.353 112.096 105.78 111.913 105.321 111.692C104.314 111.205 103.81 110.499 103.81 109.575C103.81 108.8 104.137 108.153 104.79 107.633C105.443 107.113 106.273 106.853 107.28 106.853C108.353 106.853 109.22 107.118 109.878 107.649C110.542 108.181 110.874 108.87 110.874 109.716H108.857C108.857 109.329 108.713 109.008 108.425 108.753C108.138 108.493 107.756 108.363 107.28 108.363C106.837 108.363 106.475 108.466 106.193 108.67C105.916 108.875 105.777 109.149 105.777 109.492C105.777 109.802 105.908 110.043 106.168 110.214C106.428 110.386 106.953 110.56 107.745 110.737C108.536 110.909 109.156 111.116 109.604 111.36C110.058 111.598 110.393 111.886 110.609 112.223C110.83 112.561 110.941 112.97 110.941 113.452C110.941 114.26 110.606 114.915 109.936 115.419C109.267 115.917 108.389 116.166 107.305 116.166C106.569 116.166 105.913 116.033 105.338 115.768C104.762 115.502 104.314 115.137 103.993 114.672C103.672 114.207 103.511 113.706 103.511 113.169H105.47C105.498 113.645 105.678 114.013 106.01 114.273C106.342 114.528 106.782 114.655 107.33 114.655C107.861 114.655 108.265 114.556 108.542 114.356C108.818 114.152 108.957 113.886 108.957 113.56ZM118.146 115.12C117.554 115.817 116.712 116.166 115.622 116.166C114.648 116.166 113.909 115.881 113.406 115.311C112.908 114.741 112.659 113.917 112.659 112.837V107.019H114.676V112.812C114.676 113.952 115.149 114.522 116.095 114.522C117.075 114.522 117.736 114.171 118.079 113.468V107.019H120.096V116H118.195L118.146 115.12ZM126.853 108.861C126.588 108.817 126.314 108.795 126.031 108.795C125.107 108.795 124.485 109.149 124.164 109.857V116H122.147V107.019H124.072L124.122 108.023C124.609 107.243 125.284 106.853 126.148 106.853C126.435 106.853 126.673 106.891 126.861 106.969L126.853 108.861ZM131.443 113.443L133.344 107.019H135.428L132.315 116H130.564L127.426 107.019H129.518L131.443 113.443ZM140.533 116.166C139.255 116.166 138.217 115.765 137.42 114.962C136.629 114.154 136.233 113.081 136.233 111.742V111.493C136.233 110.596 136.405 109.797 136.748 109.094C137.096 108.385 137.583 107.835 138.209 107.442C138.834 107.049 139.531 106.853 140.3 106.853C141.523 106.853 142.467 107.243 143.131 108.023C143.801 108.803 144.135 109.907 144.135 111.335V112.148H138.267C138.328 112.89 138.574 113.477 139.005 113.908C139.443 114.34 139.991 114.556 140.649 114.556C141.573 114.556 142.326 114.182 142.907 113.435L143.994 114.473C143.635 115.009 143.153 115.427 142.55 115.726C141.952 116.019 141.28 116.166 140.533 116.166ZM140.292 108.471C139.739 108.471 139.29 108.665 138.947 109.052C138.61 109.44 138.394 109.979 138.3 110.671H142.143V110.521C142.099 109.846 141.919 109.337 141.604 108.994C141.288 108.646 140.851 108.471 140.292 108.471ZM148.734 113.111L150.56 107.019H152.71L149.141 117.361C148.593 118.872 147.663 119.627 146.352 119.627C146.058 119.627 145.735 119.578 145.38 119.478V117.917L145.762 117.942C146.271 117.942 146.653 117.848 146.908 117.66C147.168 117.478 147.373 117.168 147.522 116.73L147.813 115.958L144.658 107.019H146.833L148.734 113.111ZM158.911 113.56C158.911 113.2 158.761 112.926 158.463 112.738C158.169 112.55 157.679 112.384 156.993 112.24C156.307 112.096 155.734 111.913 155.275 111.692C154.268 111.205 153.764 110.499 153.764 109.575C153.764 108.8 154.091 108.153 154.744 107.633C155.397 107.113 156.227 106.853 157.234 106.853C158.308 106.853 159.174 107.118 159.832 107.649C160.496 108.181 160.828 108.87 160.828 109.716H158.811C158.811 109.329 158.667 109.008 158.38 108.753C158.092 108.493 157.71 108.363 157.234 108.363C156.791 108.363 156.429 108.466 156.147 108.67C155.87 108.875 155.732 109.149 155.732 109.492C155.732 109.802 155.862 110.043 156.122 110.214C156.382 110.386 156.908 110.56 157.699 110.737C158.49 110.909 159.11 111.116 159.558 111.36C160.012 111.598 160.347 111.886 160.563 112.223C160.784 112.561 160.895 112.97 160.895 113.452C160.895 114.26 160.56 114.915 159.89 115.419C159.221 115.917 158.344 116.166 157.259 116.166C156.523 116.166 155.867 116.033 155.292 115.768C154.716 115.502 154.268 115.137 153.947 114.672C153.626 114.207 153.465 113.706 153.465 113.169H155.424C155.452 113.645 155.632 114.013 155.964 114.273C156.296 114.528 156.736 114.655 157.284 114.655C157.815 114.655 158.219 114.556 158.496 114.356C158.772 114.152 158.911 113.886 158.911 113.56ZM172.258 116C172.17 115.828 172.092 115.549 172.026 115.162C171.384 115.831 170.598 116.166 169.669 116.166C168.767 116.166 168.031 115.909 167.461 115.394C166.891 114.879 166.606 114.243 166.606 113.485C166.606 112.528 166.96 111.794 167.668 111.285C168.382 110.771 169.4 110.513 170.723 110.513H171.96V109.924C171.96 109.459 171.83 109.088 171.569 108.812C171.309 108.529 170.914 108.388 170.382 108.388C169.923 108.388 169.547 108.504 169.254 108.737C168.96 108.964 168.814 109.254 168.814 109.608H166.797C166.797 109.116 166.96 108.657 167.286 108.23C167.613 107.799 168.055 107.461 168.614 107.218C169.179 106.974 169.807 106.853 170.499 106.853C171.55 106.853 172.388 107.118 173.014 107.649C173.639 108.175 173.96 108.917 173.977 109.874V113.925C173.977 114.733 174.09 115.377 174.317 115.859V116H172.258ZM170.042 114.547C170.441 114.547 170.814 114.451 171.163 114.257C171.517 114.063 171.783 113.803 171.96 113.477V111.783H170.872C170.125 111.783 169.563 111.913 169.187 112.173C168.811 112.433 168.623 112.801 168.623 113.277C168.623 113.665 168.75 113.975 169.005 114.207C169.265 114.434 169.61 114.547 170.042 114.547ZM177.961 107.019L178.019 108.056C178.683 107.254 179.555 106.853 180.634 106.853C182.504 106.853 183.456 107.923 183.489 110.065V116H181.472V110.181C181.472 109.611 181.348 109.191 181.099 108.919C180.855 108.643 180.454 108.504 179.895 108.504C179.082 108.504 178.476 108.872 178.077 109.608V116H176.06V107.019H177.961ZM185.174 111.443C185.174 110.059 185.495 108.95 186.137 108.114C186.779 107.273 187.64 106.853 188.719 106.853C189.671 106.853 190.44 107.185 191.026 107.849V103.25H193.044V116H191.217L191.118 115.07C190.515 115.801 189.709 116.166 188.702 116.166C187.651 116.166 186.799 115.743 186.146 114.896C185.498 114.049 185.174 112.898 185.174 111.443ZM187.192 111.617C187.192 112.53 187.366 113.244 187.714 113.759C188.069 114.268 188.569 114.522 189.217 114.522C190.041 114.522 190.645 114.154 191.026 113.418V109.583C190.656 108.864 190.058 108.504 189.234 108.504C188.581 108.504 188.077 108.764 187.723 109.285C187.369 109.799 187.192 110.577 187.192 111.617ZM203.337 116.166C202.058 116.166 201.021 115.765 200.224 114.962C199.432 114.154 199.037 113.081 199.037 111.742V111.493C199.037 110.596 199.208 109.797 199.551 109.094C199.9 108.385 200.387 107.835 201.012 107.442C201.638 107.049 202.335 106.853 203.104 106.853C204.327 106.853 205.271 107.243 205.935 108.023C206.604 108.803 206.939 109.907 206.939 111.335V112.148H201.07C201.131 112.89 201.378 113.477 201.809 113.908C202.246 114.34 202.794 114.556 203.453 114.556C204.377 114.556 205.13 114.182 205.711 113.435L206.798 114.473C206.438 115.009 205.957 115.427 205.354 115.726C204.756 116.019 204.084 116.166 203.337 116.166ZM203.096 108.471C202.542 108.471 202.094 108.665 201.751 109.052C201.414 109.44 201.198 109.979 201.104 110.671H204.947V110.521C204.903 109.846 204.723 109.337 204.407 108.994C204.092 108.646 203.655 108.471 203.096 108.471ZM213.879 116C213.79 115.828 213.713 115.549 213.646 115.162C213.004 115.831 212.218 116.166 211.289 116.166C210.387 116.166 209.651 115.909 209.081 115.394C208.511 114.879 208.226 114.243 208.226 113.485C208.226 112.528 208.58 111.794 209.288 111.285C210.002 110.771 211.02 110.513 212.343 110.513H213.58V109.924C213.58 109.459 213.45 109.088 213.19 108.812C212.929 108.529 212.534 108.388 212.003 108.388C211.543 108.388 211.167 108.504 210.874 108.737C210.58 108.964 210.434 109.254 210.434 109.608H208.417C208.417 109.116 208.58 108.657 208.906 108.23C209.233 107.799 209.676 107.461 210.234 107.218C210.799 106.974 211.427 106.853 212.119 106.853C213.17 106.853 214.009 107.118 214.634 107.649C215.259 108.175 215.58 108.917 215.597 109.874V113.925C215.597 114.733 215.71 115.377 215.937 115.859V116H213.879ZM211.662 114.547C212.061 114.547 212.434 114.451 212.783 114.257C213.137 114.063 213.403 113.803 213.58 113.477V111.783H212.492C211.745 111.783 211.184 111.913 210.807 112.173C210.431 112.433 210.243 112.801 210.243 113.277C210.243 113.665 210.37 113.975 210.625 114.207C210.885 114.434 211.231 114.547 211.662 114.547ZM222.412 108.861C222.146 108.817 221.872 108.795 221.59 108.795C220.666 108.795 220.043 109.149 219.722 109.857V116H217.705V107.019H219.631L219.681 108.023C220.168 107.243 220.843 106.853 221.706 106.853C221.994 106.853 222.232 106.891 222.42 106.969L222.412 108.861ZM225.558 107.019L225.616 108.056C226.28 107.254 227.151 106.853 228.231 106.853C230.101 106.853 231.053 107.923 231.086 110.065V116H229.069V110.181C229.069 109.611 228.944 109.191 228.695 108.919C228.452 108.643 228.051 108.504 227.492 108.504C226.678 108.504 226.072 108.872 225.674 109.608V116H223.657V107.019H225.558ZM237.577 116V103.914H241.147C242.215 103.914 243.161 104.152 243.985 104.628C244.816 105.104 245.457 105.779 245.911 106.653C246.365 107.528 246.592 108.529 246.592 109.658V110.264C246.592 111.41 246.362 112.417 245.903 113.286C245.449 114.154 244.799 114.824 243.952 115.294C243.111 115.765 242.145 116 241.055 116H237.577ZM239.677 105.607V114.323H241.047C242.148 114.323 242.992 113.98 243.579 113.294C244.171 112.602 244.472 111.612 244.484 110.322V109.65C244.484 108.338 244.199 107.337 243.629 106.645C243.059 105.953 242.231 105.607 241.147 105.607H239.677ZM250.634 116H248.617V107.019H250.634V116ZM248.493 104.686C248.493 104.376 248.59 104.119 248.783 103.914C248.983 103.709 249.265 103.607 249.63 103.607C249.995 103.607 250.277 103.709 250.477 103.914C250.676 104.119 250.776 104.376 250.776 104.686C250.776 104.99 250.676 105.245 250.477 105.45C250.277 105.649 249.995 105.749 249.63 105.749C249.265 105.749 248.983 105.649 248.783 105.45C248.59 105.245 248.493 104.99 248.493 104.686ZM258.205 116C258.116 115.828 258.039 115.549 257.972 115.162C257.33 115.831 256.545 116.166 255.615 116.166C254.713 116.166 253.977 115.909 253.407 115.394C252.837 114.879 252.552 114.243 252.552 113.485C252.552 112.528 252.906 111.794 253.614 111.285C254.328 110.771 255.346 110.513 256.669 110.513H257.906V109.924C257.906 109.459 257.776 109.088 257.516 108.812C257.256 108.529 256.86 108.388 256.329 108.388C255.869 108.388 255.493 108.504 255.2 108.737C254.907 108.964 254.76 109.254 254.76 109.608H252.743C252.743 109.116 252.906 108.657 253.233 108.23C253.559 107.799 254.002 107.461 254.561 107.218C255.125 106.974 255.753 106.853 256.445 106.853C257.496 106.853 258.335 107.118 258.96 107.649C259.585 108.175 259.906 108.917 259.923 109.874V113.925C259.923 114.733 260.036 115.377 260.263 115.859V116H258.205ZM255.988 114.547C256.387 114.547 256.76 114.451 257.109 114.257C257.463 114.063 257.729 113.803 257.906 113.477V111.783H256.818C256.071 111.783 255.51 111.913 255.133 112.173C254.757 112.433 254.569 112.801 254.569 113.277C254.569 113.665 254.696 113.975 254.951 114.207C255.211 114.434 255.557 114.547 255.988 114.547ZM263.932 107.019L263.99 107.957C264.621 107.221 265.484 106.853 266.58 106.853C267.781 106.853 268.603 107.312 269.046 108.23C269.699 107.312 270.617 106.853 271.801 106.853C272.792 106.853 273.528 107.126 274.009 107.674C274.496 108.222 274.745 109.03 274.756 110.098V116H272.739V110.156C272.739 109.586 272.615 109.168 272.366 108.903C272.117 108.637 271.705 108.504 271.129 108.504C270.67 108.504 270.293 108.629 270 108.878C269.712 109.121 269.51 109.442 269.394 109.841L269.402 116H267.385V110.09C267.358 109.033 266.818 108.504 265.767 108.504C264.959 108.504 264.386 108.834 264.048 109.492V116H262.031V107.019H263.932ZM276.45 111.426C276.45 110.546 276.624 109.755 276.973 109.052C277.321 108.344 277.811 107.802 278.442 107.425C279.073 107.043 279.798 106.853 280.617 106.853C281.829 106.853 282.811 107.243 283.564 108.023C284.322 108.803 284.731 109.838 284.792 111.127L284.8 111.601C284.8 112.486 284.629 113.277 284.286 113.975C283.948 114.672 283.461 115.211 282.825 115.593C282.194 115.975 281.464 116.166 280.633 116.166C279.366 116.166 278.351 115.745 277.587 114.904C276.829 114.058 276.45 112.931 276.45 111.526V111.426ZM278.467 111.601C278.467 112.525 278.658 113.25 279.04 113.775C279.422 114.296 279.953 114.556 280.633 114.556C281.314 114.556 281.843 114.29 282.219 113.759C282.601 113.228 282.792 112.45 282.792 111.426C282.792 110.519 282.595 109.799 282.202 109.268C281.815 108.737 281.286 108.471 280.617 108.471C279.958 108.471 279.435 108.734 279.048 109.26C278.661 109.78 278.467 110.56 278.467 111.601ZM288.378 107.019L288.436 108.056C289.1 107.254 289.972 106.853 291.051 106.853C292.921 106.853 293.873 107.923 293.906 110.065V116H291.889V110.181C291.889 109.611 291.765 109.191 291.516 108.919C291.272 108.643 290.871 108.504 290.312 108.504C289.499 108.504 288.893 108.872 288.494 109.608V116H286.477V107.019H288.378ZM295.591 111.443C295.591 110.059 295.912 108.95 296.554 108.114C297.196 107.273 298.057 106.853 299.136 106.853C300.088 106.853 300.857 107.185 301.443 107.849V103.25H303.461V116H301.634L301.535 115.07C300.932 115.801 300.126 116.166 299.119 116.166C298.068 116.166 297.216 115.743 296.563 114.896C295.915 114.049 295.591 112.898 295.591 111.443ZM297.609 111.617C297.609 112.53 297.783 113.244 298.131 113.759C298.486 114.268 298.986 114.522 299.634 114.522C300.458 114.522 301.062 114.154 301.443 113.418V109.583C301.073 108.864 300.475 108.504 299.651 108.504C298.998 108.504 298.494 108.764 298.14 109.285C297.786 109.799 297.609 110.577 297.609 111.617ZM310.599 113.56C310.599 113.2 310.45 112.926 310.151 112.738C309.858 112.55 309.368 112.384 308.682 112.24C307.996 112.096 307.423 111.913 306.964 111.692C305.956 111.205 305.453 110.499 305.453 109.575C305.453 108.8 305.779 108.153 306.432 107.633C307.085 107.113 307.915 106.853 308.922 106.853C309.996 106.853 310.862 107.118 311.521 107.649C312.185 108.181 312.517 108.87 312.517 109.716H310.5C310.5 109.329 310.356 109.008 310.068 108.753C309.78 108.493 309.398 108.363 308.922 108.363C308.48 108.363 308.117 108.466 307.835 108.67C307.558 108.875 307.42 109.149 307.42 109.492C307.42 109.802 307.55 110.043 307.81 110.214C308.07 110.386 308.596 110.56 309.387 110.737C310.179 110.909 310.798 111.116 311.247 111.36C311.7 111.598 312.035 111.886 312.251 112.223C312.472 112.561 312.583 112.97 312.583 113.452C312.583 114.26 312.248 114.915 311.579 115.419C310.909 115.917 310.032 116.166 308.947 116.166C308.211 116.166 307.556 116.033 306.98 115.768C306.405 115.502 305.956 115.137 305.635 114.672C305.314 114.207 305.154 113.706 305.154 113.169H307.113C307.141 113.645 307.32 114.013 307.652 114.273C307.984 114.528 308.424 114.655 308.972 114.655C309.504 114.655 309.908 114.556 310.184 114.356C310.461 114.152 310.599 113.886 310.599 113.56Z" fill="black"/>
<path d="M175.746 428.323H170.98L169.91 431.292H168.363L172.707 419.917H174.02L178.371 431.292H176.832L175.746 428.323ZM171.434 427.088H175.301L173.363 421.768L171.434 427.088ZM181.496 420.792V422.838H183.074V423.956H181.496V429.198C181.496 429.536 181.566 429.792 181.707 429.963C181.848 430.13 182.087 430.213 182.426 430.213C182.592 430.213 182.822 430.182 183.113 430.12V431.292C182.733 431.396 182.363 431.448 182.004 431.448C181.358 431.448 180.871 431.252 180.543 430.862C180.215 430.471 180.051 429.917 180.051 429.198V423.956H178.512V422.838H180.051V420.792H181.496ZM190.184 423.862C190.824 423.075 191.658 422.682 192.684 422.682C194.47 422.682 195.371 423.69 195.387 425.706V431.292H193.941V425.698C193.936 425.088 193.796 424.638 193.52 424.346C193.249 424.055 192.824 423.909 192.246 423.909C191.777 423.909 191.366 424.034 191.012 424.284C190.658 424.534 190.382 424.862 190.184 425.268V431.292H188.738V419.292H190.184V423.862ZM197.168 426.987C197.168 426.159 197.329 425.414 197.652 424.752C197.98 424.091 198.434 423.581 199.012 423.221C199.595 422.862 200.259 422.682 201.004 422.682C202.155 422.682 203.085 423.081 203.793 423.877C204.507 424.674 204.863 425.734 204.863 427.057V427.159C204.863 427.982 204.704 428.721 204.387 429.377C204.074 430.028 203.624 430.536 203.035 430.901C202.452 431.265 201.78 431.448 201.02 431.448C199.874 431.448 198.944 431.049 198.23 430.252C197.522 429.456 197.168 428.401 197.168 427.088V426.987ZM198.621 427.159C198.621 428.096 198.837 428.849 199.27 429.417C199.707 429.984 200.29 430.268 201.02 430.268C201.754 430.268 202.337 429.982 202.77 429.409C203.202 428.831 203.418 428.023 203.418 426.987C203.418 426.06 203.197 425.31 202.754 424.737C202.316 424.159 201.733 423.87 201.004 423.87C200.29 423.87 199.715 424.153 199.277 424.721C198.84 425.289 198.621 426.101 198.621 427.159ZM208.035 422.838L208.074 423.776C208.694 423.047 209.53 422.682 210.582 422.682C211.764 422.682 212.569 423.135 212.996 424.042C213.277 423.635 213.642 423.307 214.09 423.057C214.543 422.807 215.077 422.682 215.691 422.682C217.546 422.682 218.488 423.664 218.52 425.627V431.292H217.074V425.713C217.074 425.109 216.936 424.659 216.66 424.362C216.384 424.06 215.921 423.909 215.27 423.909C214.733 423.909 214.288 424.07 213.934 424.393C213.579 424.711 213.374 425.14 213.316 425.682V431.292H211.863V425.752C211.863 424.523 211.262 423.909 210.059 423.909C209.111 423.909 208.462 424.312 208.113 425.12V431.292H206.668V422.838H208.035ZM224.215 431.448C223.069 431.448 222.137 431.073 221.418 430.323C220.699 429.568 220.34 428.56 220.34 427.299V427.034C220.34 426.195 220.499 425.448 220.816 424.792C221.139 424.13 221.587 423.614 222.16 423.245C222.738 422.87 223.363 422.682 224.035 422.682C225.134 422.682 225.988 423.044 226.598 423.768C227.207 424.492 227.512 425.528 227.512 426.877V427.479H221.785C221.806 428.312 222.048 428.987 222.512 429.502C222.98 430.013 223.574 430.268 224.293 430.268C224.803 430.268 225.236 430.164 225.59 429.956C225.944 429.747 226.254 429.471 226.52 429.127L227.402 429.815C226.694 430.903 225.632 431.448 224.215 431.448ZM224.035 423.87C223.452 423.87 222.962 424.083 222.566 424.51C222.171 424.932 221.926 425.526 221.832 426.292H226.066V426.182C226.025 425.448 225.827 424.88 225.473 424.479C225.118 424.073 224.639 423.87 224.035 423.87Z" fill="white"/>
<g clip-path="url(#clip1_1_18)">
<rect x="8" y="8" width="407" height="812" rx="20" fill="white"/>
<path d="M175.746 428.323H170.98L169.91 431.292H168.363L172.707 419.917H174.02L178.371 431.292H176.832L175.746 428.323ZM171.434 427.088H175.301L173.363 421.768L171.434 427.088ZM181.496 420.792V422.838H183.074V423.956H181.496V429.198C181.496 429.536 181.566 429.792 181.707 429.963C181.848 430.13 182.087 430.213 182.426 430.213C182.592 430.213 182.822 430.182 183.113 430.12V431.292C182.733 431.396 182.363 431.448 182.004 431.448C181.358 431.448 180.871 431.252 180.543 430.862C180.215 430.471 180.051 429.917 180.051 429.198V423.956H178.512V422.838H180.051V420.792H181.496ZM190.184 423.862C190.824 423.075 191.658 422.682 192.684 422.682C194.47 422.682 195.371 423.69 195.387 425.706V431.292H193.941V425.698C193.936 425.088 193.796 424.638 193.52 424.346C193.249 424.055 192.824 423.909 192.246 423.909C191.777 423.909 191.366 424.034 191.012 424.284C190.658 424.534 190.382 424.862 190.184 425.268V431.292H188.738V419.292H190.184V423.862ZM197.168 426.987C197.168 426.159 197.329 425.414 197.652 424.752C197.98 424.091 198.434 423.581 199.012 423.221C199.595 422.862 200.259 422.682 201.004 422.682C202.155 422.682 203.085 423.081 203.793 423.877C204.507 424.674 204.863 425.734 204.863 427.057V427.159C204.863 427.982 204.704 428.721 204.387 429.377C204.074 430.028 203.624 430.536 203.035 430.901C202.452 431.265 201.78 431.448 201.02 431.448C199.874 431.448 198.944 431.049 198.23 430.252C197.522 429.456 197.168 428.401 197.168 427.088V426.987ZM198.621 427.159C198.621 428.096 198.837 428.849 199.27 429.417C199.707 429.984 200.29 430.268 201.02 430.268C201.754 430.268 202.337 429.982 202.77 429.409C203.202 428.831 203.418 428.023 203.418 426.987C203.418 426.06 203.197 425.31 202.754 424.737C202.316 424.159 201.733 423.87 201.004 423.87C200.29 423.87 199.715 424.153 199.277 424.721C198.84 425.289 198.621 426.101 198.621 427.159ZM208.035 422.838L208.074 423.776C208.694 423.047 209.53 422.682 210.582 422.682C211.764 422.682 212.569 423.135 212.996 424.042C213.277 423.635 213.642 423.307 214.09 423.057C214.543 422.807 215.077 422.682 215.691 422.682C217.546 422.682 218.488 423.664 218.52 425.627V431.292H217.074V425.713C217.074 425.109 216.936 424.659 216.66 424.362C216.384 424.06 215.921 423.909 215.27 423.909C214.733 423.909 214.288 424.07 213.934 424.393C213.579 424.711 213.374 425.14 213.316 425.682V431.292H211.863V425.752C211.863 424.523 211.262 423.909 210.059 423.909C209.111 423.909 208.462 424.312 208.113 425.12V431.292H206.668V422.838H208.035ZM224.215 431.448C223.069 431.448 222.137 431.073 221.418 430.323C220.699 429.568 220.34 428.56 220.34 427.299V427.034C220.34 426.195 220.499 425.448 220.816 424.792C221.139 424.13 221.587 423.614 222.16 423.245C222.738 422.87 223.363 422.682 224.035 422.682C225.134 422.682 225.988 423.044 226.598 423.768C227.207 424.492 227.512 425.528 227.512 426.877V427.479H221.785C221.806 428.312 222.048 428.987 222.512 429.502C222.98 430.013 223.574 430.268 224.293 430.268C224.803 430.268 225.236 430.164 225.59 429.956C225.944 429.747 226.254 429.471 226.52 429.127L227.402 429.815C226.694 430.903 225.632 431.448 224.215 431.448ZM224.035 423.87C223.452 423.87 222.962 424.083 222.566 424.51C222.171 424.932 221.926 425.526 221.832 426.292H226.066V426.182C226.025 425.448 225.827 424.88 225.473 424.479C225.118 424.073 224.639 423.87 224.035 423.87Z" fill="white"/>
<ellipse cx="402.488" cy="824.977" rx="47.5" ry="75.5" transform="rotate(28.1327 402.488 824.977)" fill="#FF7878"/>
</g>
<rect x="6.5" y="6.5" width="410" height="815" rx="21.5" stroke="black" stroke-width="3"/>
<path d="M389.988 446.938C451.746 354.797 351.341 350.448 428.065 280.667C543.827 206.402 514.28 383.6 560.639 623.047C606.999 862.494 479.656 708.38 396.333 599.397C414.634 589.234 329.766 536.79 389.988 446.938Z" fill="#4953BE" fill-opacity="0.31"/>
<ellipse cx="28.5" cy="24.5" rx="47.5" ry="75.5" transform="rotate(28.1327 28.5 24.5)" fill="#C7CAEB"/>
<path d="M70.7176 765.699C102.145 793.103 113.646 831.347 96.4047 851.12C79.1637 870.892 39.71 864.705 8.28238 837.301C-23.1452 809.897 -34.6457 771.653 -17.4047 751.88C-0.163718 732.108 39.29 738.295 70.7176 765.699Z" fill="#C7CAEB"/>
<mask id="mask0_1_18" style="mask-type:alpha" maskUnits="userSpaceOnUse" x="-26" y="740" width="131" height="123">
<ellipse cx="39.5" cy="801.5" rx="47.5" ry="75.5" transform="rotate(-48.9123 39.5 801.5)" fill="#4953BE"/>
</mask>
<g mask="url(#mask0_1_18)">
<rect width="193.596" height="2.89" transform="matrix(0.798849 -0.601532 0.485994 0.873962 -9.69446 773.248)" fill="white"/>
<rect width="193.596" height="2.89" transform="matrix(0.798849 -0.601532 0.485994 0.873962 -14.4465 764.702)" fill="white"/>
<rect width="193.596" height="2.89" transform="matrix(0.798849 -0.601532 0.485994 0.873962 -19.1985 756.157)" fill="white"/>
<rect width="193.596" height="2.89" transform="matrix(0.798849 -0.601532 0.485994 0.873962 -4.9425 781.793)" fill="white"/>
<rect width="193.596" height="2.89" transform="matrix(0.798849 -0.601532 0.485994 0.873962 -0.19043 790.339)" fill="white"/>
<rect width="193.596" height="2.89" transform="matrix(0.798849 -0.601532 0.485994 0.873962 4.56165 798.885)" fill="white"/>
<rect width="193.596" height="2.89" transform="matrix(0.798849 -0.601532 0.485994 0.873962 9.3136 807.43)" fill="white"/>
<rect width="193.596" height="2.89" transform="matrix(0.798849 -0.601532 0.485994 0.873962 19.562 836.683)" fill="white"/>
<rect width="193.596" height="2.89" transform="matrix(0.798849 -0.601532 0.485994 0.873962 14.8099 828.138)" fill="white"/>
<rect width="193.596" height="2.89" transform="matrix(0.798849 -0.601532 0.485994 0.873962 10.058 819.592)" fill="white"/>
<rect width="193.596" height="2.89" transform="matrix(0.798849 -0.601532 0.485994 0.873962 24.3141 845.229)" fill="white"/>
<rect width="193.596" height="2.89" transform="matrix(0.798849 -0.601532 0.485994 0.873962 29.066 853.774)" fill="white"/>
<rect width="193.596" height="2.89" transform="matrix(0.798849 -0.601532 0.485994 0.873962 33.8181 862.32)" fill="white"/>
<rect width="193.596" height="2.89" transform="matrix(0.798849 -0.601532 0.485994 0.873962 38.5701 870.865)" fill="white"/>
</g>
<g opacity="0.6">
<mask id="mask1_1_18" style="mask-type:alpha" maskUnits="userSpaceOnUse" x="355" y="68" width="103" height="147">
<ellipse cx="406.5" cy="141.5" rx="47.5" ry="75.5" transform="rotate(17.4943 406.5 141.5)" fill="#4953BE"/>
</mask>
<g mask="url(#mask1_1_18)">
<rect width="193.596" height="3.89" transform="matrix(0.870983 0.491313 -0.606392 0.795166 388.984 116.21)" fill="#FF9393"/>
<rect width="193.596" height="3.89" transform="matrix(0.870983 0.491313 -0.606392 0.795166 366.278 137.311)" fill="#FF9393"/>
<rect width="193.596" height="3.89" transform="matrix(0.870983 0.491313 -0.606392 0.795166 372.207 129.535)" fill="#FF9393"/>
<rect width="193.596" height="3.89" transform="matrix(0.870983 0.491313 -0.606392 0.795166 378.136 121.76)" fill="#FF9393"/>
<rect width="193.596" height="3.89" transform="matrix(0.870983 0.491313 -0.606392 0.795166 360.348 145.086)" fill="#FF9393"/>
<rect width="193.596" height="3.89" transform="matrix(0.870983 0.491313 -0.606392 0.795166 354.419 152.861)" fill="#FF9393"/>
<rect width="193.596" height="3.89" transform="matrix(0.870983 0.491313 -0.606392 0.795166 348.49 160.636)" fill="#FF9393"/>
<rect width="193.596" height="3.89" transform="matrix(0.870983 0.491313 -0.606392 0.795166 342.561 168.411)" fill="#FF9393"/>
</g>
</g>
</g>
<rect x="4" y="4" width="388" height="820" rx="24" stroke="white" stroke-width="8"/>
<defs>
<clipPath id="clip0_1_18">
<rect x="8" y="8" width="380" height="812" rx="20" fill="white"/>
</clipPath>
<clipPath id="clip1_1_18">
<rect x="8" y="8" width="407" height="812" rx="20" fill="white"/>
</clipPath>
</defs>
</svg>
