<svg width="380" height="812" viewBox="0 0 380 812" fill="none" xmlns="http://www.w3.org/2000/svg">
<g clip-path="url(#clip0_35_235)">
<rect width="380" height="812" fill="#FEEADC"/>
<rect x="31" y="561" width="319" height="64" rx="14" fill="#353C8A"/>
<path d="M173.593 589.375V586.989H183.074V589.375H179.793V597.898H176.874V589.375H173.593ZM184.189 597.898V586.989H188.898C189.707 586.989 190.416 587.136 191.023 587.431C191.63 587.726 192.103 588.15 192.44 588.704C192.777 589.258 192.946 589.922 192.946 590.696C192.946 591.477 192.772 592.136 192.424 592.672C192.079 593.209 191.595 593.614 190.97 593.887C190.348 594.16 189.622 594.297 188.791 594.297H185.979V591.996H188.194C188.543 591.996 188.839 591.953 189.084 591.868C189.333 591.779 189.523 591.639 189.654 591.447C189.789 591.256 189.856 591.005 189.856 590.696C189.856 590.384 189.789 590.13 189.654 589.935C189.523 589.736 189.333 589.59 189.084 589.498C188.839 589.402 188.543 589.354 188.194 589.354H187.15V597.898H184.189ZM190.581 592.891L193.308 597.898H190.091L187.427 592.891H190.581ZM200.664 586.989H203.626V593.977C203.626 594.808 203.427 595.528 203.029 596.135C202.635 596.739 202.085 597.205 201.378 597.536C200.671 597.862 199.851 598.026 198.917 598.026C197.976 598.026 197.152 597.862 196.446 597.536C195.739 597.205 195.188 596.739 194.794 596.135C194.404 595.528 194.208 594.808 194.208 593.977V586.989H197.17V593.722C197.17 594.059 197.245 594.361 197.394 594.627C197.543 594.89 197.749 595.096 198.012 595.245C198.278 595.394 198.58 595.469 198.917 595.469C199.258 595.469 199.56 595.394 199.823 595.245C200.085 595.096 200.291 594.89 200.441 594.627C200.59 594.361 200.664 594.059 200.664 593.722V586.989ZM205.034 597.898V586.989H212.896V589.375H207.995V591.25H212.491V593.637H207.995V595.512H212.874V597.898H205.034Z" fill="white"/>
<path fill-rule="evenodd" clip-rule="evenodd" d="M0 1.00244V21.0518H380V1.00244H0Z" fill="black" fill-opacity="0.01"/>
<path fill-rule="evenodd" clip-rule="evenodd" d="M360.348 6.60352H339.197C338.296 6.60352 337.566 7.29537 337.566 8.15709V14.8888C337.566 15.7469 338.297 16.4424 339.197 16.4424H360.348C361.248 16.4424 361.978 15.7506 361.978 14.8888V8.15709C361.978 7.29907 361.248 6.60352 360.348 6.60352ZM338.109 8.1573C338.109 7.58323 338.594 7.12157 339.197 7.12157H360.348C360.949 7.12157 361.436 7.58576 361.436 8.1573V14.8891C361.436 15.4631 360.951 15.9248 360.348 15.9248H339.197C338.596 15.9248 338.109 15.4606 338.109 14.8891V8.1573Z" fill="black"/>
<path fill-rule="evenodd" clip-rule="evenodd" d="M339.078 7.64038C338.802 7.64038 338.578 7.86424 338.578 8.14038V14.9154C338.578 15.1915 338.802 15.4154 339.078 15.4154H347.692V7.64038H339.078Z" fill="black"/>
<path fill-rule="evenodd" clip-rule="evenodd" d="M363.786 11.5233C363.786 12.4337 363.196 13.1869 362.43 13.3122V9.73438C363.196 9.85965 363.786 10.6128 363.786 11.5233Z" fill="black"/>
<path d="M308.05 15.7562C309.898 15.7562 311.165 14.5333 311.165 12.7418C311.165 11.0053 309.979 9.78853 308.285 9.78853C307.463 9.78853 306.833 10.0392 306.4 10.5406H306.301L306.555 7.70964H310.659V6.72522H305.683L305.195 11.7268H306.239C306.604 11.097 307.272 10.7363 308.081 10.7363C309.249 10.7363 310.053 11.5617 310.053 12.7723C310.053 13.983 309.256 14.7901 308.063 14.7901C307.012 14.7901 306.246 14.1542 306.147 13.2003H305.053C305.152 14.7228 306.363 15.7562 308.05 15.7562Z" fill="black"/>
<path d="M315.992 15.7562C317.884 15.7562 319.206 14.6984 319.206 13.1881C319.206 12.0386 318.471 11.1459 317.352 10.938V10.8402C318.273 10.5895 318.842 9.83744 318.842 8.87137C318.842 7.49563 317.661 6.51733 315.992 6.51733C314.324 6.51733 313.143 7.49563 313.143 8.87137C313.143 9.83133 313.724 10.5956 314.633 10.8402V10.938C313.514 11.1459 312.779 12.0386 312.779 13.1881C312.779 14.6984 314.101 15.7562 315.992 15.7562ZM315.992 14.8145C314.756 14.8145 313.903 14.1175 313.903 13.1086C313.903 12.0998 314.756 11.4027 315.992 11.4027C317.229 11.4027 318.082 12.0998 318.082 13.1086C318.082 14.1175 317.229 14.8145 315.992 14.8145ZM315.992 10.4733C314.942 10.4733 314.237 9.87413 314.237 8.97531C314.237 8.06427 314.936 7.45895 315.992 7.45895C317.049 7.45895 317.748 8.06427 317.748 8.97531C317.748 9.87413 317.043 10.4733 315.992 10.4733Z" fill="black"/>
<path d="M331.166 14.9185C330.616 14.9185 330.251 14.3865 330.251 13.5733C330.251 12.7601 330.61 12.2343 331.166 12.2343C331.722 12.2343 332.074 12.7479 332.074 13.5733C332.074 14.3804 331.71 14.9185 331.166 14.9185ZM331.166 15.7011C332.278 15.7011 333.063 14.8207 333.063 13.5733C333.063 12.326 332.278 11.4516 331.166 11.4516C330.053 11.4516 329.262 12.3321 329.262 13.5733C329.262 14.8207 330.053 15.7011 331.166 15.7011ZM326.005 10.8219C327.118 10.8219 327.903 9.94139 327.903 8.69405C327.903 7.44672 327.118 6.57236 326.005 6.57236C324.893 6.57236 324.101 7.45283 324.101 8.69405C324.101 9.94139 324.893 10.8219 326.005 10.8219ZM325.906 15.5483L328.966 11.4088L332.427 6.72522H331.302L328.175 10.9503L324.769 15.5483H325.906ZM326.005 10.0392C325.455 10.0392 325.09 9.50726 325.09 8.69405C325.09 7.88084 325.449 7.355 326.005 7.355C326.561 7.355 326.914 7.86861 326.914 8.69405C326.914 9.50115 326.549 10.0392 326.005 10.0392Z" fill="black"/>
<path opacity="0.45" fill-rule="evenodd" clip-rule="evenodd" d="M294.299 15.908V12.341L296.034 14.21L294.299 15.908V15.908V15.908V15.908ZM296.114 8.86824L294.299 10.674V7.25294L296.114 8.86824V8.86824V8.86824V8.86824ZM294.735 11.5391L297.428 8.86824L293.41 5.01221H293.316V10.3753L290.589 7.54729L289.812 8.34962L293.093 11.5391L289.812 14.7282L290.589 15.5305L293.316 12.7025V18.0651H293.489L297.467 14.1994L294.735 11.5391V11.5391Z" fill="black"/>
<path fill-rule="evenodd" clip-rule="evenodd" d="M84.6083 7.87833C87.0653 7.87833 89.3046 8.75386 91.0215 10.1895L92.2137 8.9164C90.1802 7.20885 87.5243 6.01489 84.6083 6.01489C81.6967 6.01489 79.0446 7.20522 77.0137 8.90733L78.2033 10.1823C79.9189 8.75084 82.1544 7.87833 84.6083 7.87833V7.87833ZM84.6083 11.5532C86.0809 11.5532 87.4262 12.0705 88.4638 12.9224L89.725 11.575C88.3524 10.4354 86.5671 9.69102 84.6083 9.69102C82.6533 9.69102 80.8692 10.4336 79.4979 11.5696L80.7572 12.9188C81.7942 12.0687 83.1376 11.5532 84.6083 11.5532V11.5532ZM87.2021 14.2699C86.5 13.7061 85.5959 13.3158 84.6077 13.3158C83.6213 13.3158 82.7185 13.7055 82.0164 14.2668L84.6077 17.0421L87.2021 14.2699V14.2699Z" fill="black"/>
<path d="M64.2568 28.1929V26.9897H60.2578V28.0698H63.0332V28.3091C63.0332 29.9771 61.8369 31.105 60.0732 31.105C58.0908 31.105 56.8604 29.5601 56.8604 27.0718C56.8604 24.6177 58.1113 23.0454 60.0664 23.0454C61.5293 23.0454 62.5205 23.7495 62.9443 25.0825H64.1953C63.8398 23.1274 62.2539 21.9106 60.0664 21.9106C57.3662 21.9106 55.5957 23.9546 55.5957 27.0718C55.5957 30.23 57.3389 32.2397 60.0664 32.2397C62.5889 32.2397 64.2568 30.6265 64.2568 28.1929ZM65.5658 29.4302C65.6957 31.1323 67.1381 32.2397 69.2299 32.2397C71.4857 32.2397 72.9145 31.0845 72.9145 29.2729C72.9145 27.8237 72.0941 27.0308 70.0502 26.5181L69.018 26.2446C67.6576 25.896 67.1176 25.4517 67.1176 24.6792C67.1176 23.6812 67.9857 23.0249 69.2982 23.0249C70.5287 23.0249 71.3627 23.6265 71.5336 24.6382H72.7709C72.6684 23.0454 71.2465 21.9106 69.3393 21.9106C67.2543 21.9106 65.8529 23.0454 65.8529 24.7202C65.8529 26.1216 66.6254 26.9282 68.4096 27.3794L69.6742 27.7075C71.0346 28.0493 71.6498 28.5825 71.6498 29.4233C71.6498 30.4009 70.6723 31.1187 69.3461 31.1187C67.9447 31.1187 66.9604 30.4624 66.81 29.4302H65.5658Z" fill="black"/>
<path fill-rule="evenodd" clip-rule="evenodd" d="M42.5605 11.0272C42.5605 12.965 44.1484 14.5358 46.1072 14.5358C48.066 14.5358 49.6539 12.965 49.6539 11.0272C49.6539 9.08943 48.066 7.51855 46.1072 7.51855C44.1484 7.51855 42.5605 9.08943 42.5605 11.0272ZM49.009 11.0272C49.009 12.6126 47.7098 13.8979 46.1072 13.8979C44.5046 13.8979 43.2054 12.6126 43.2054 11.0272C43.2054 9.44175 44.5046 8.15649 46.1072 8.15649C47.7098 8.15649 49.009 9.44175 49.009 11.0272Z" fill="black"/>
<path fill-rule="evenodd" clip-rule="evenodd" d="M37.4939 14.5358C39.4527 14.5358 41.0406 12.965 41.0406 11.0272C41.0406 9.08943 39.4527 7.51855 37.4939 7.51855C35.5352 7.51855 33.9473 9.08943 33.9473 11.0272C33.9473 12.965 35.5352 14.5358 37.4939 14.5358Z" fill="black"/>
<path fill-rule="evenodd" clip-rule="evenodd" d="M28.8807 14.5358C30.8394 14.5358 32.4273 12.965 32.4273 11.0272C32.4273 9.08943 30.8394 7.51855 28.8807 7.51855C26.9219 7.51855 25.334 9.08943 25.334 11.0272C25.334 12.965 26.9219 14.5358 28.8807 14.5358Z" fill="black"/>
<path fill-rule="evenodd" clip-rule="evenodd" d="M20.2674 14.5358C22.2261 14.5358 23.814 12.965 23.814 11.0272C23.814 9.08943 22.2261 7.51855 20.2674 7.51855C18.3086 7.51855 16.7207 9.08943 16.7207 11.0272C16.7207 12.965 18.3086 14.5358 20.2674 14.5358Z" fill="black"/>
<path opacity="0.3" d="M25.5938 104.065H27.6689C27.6025 104.857 27.3812 105.562 27.0049 106.182C26.6286 106.796 26.1001 107.281 25.4194 107.635C24.7388 107.989 23.9115 108.166 22.9375 108.166C22.1904 108.166 21.5181 108.033 20.9204 107.768C20.3228 107.496 19.8109 107.115 19.3848 106.622C18.9587 106.124 18.6322 105.524 18.4053 104.821C18.1839 104.118 18.0732 103.332 18.0732 102.463V101.459C18.0732 100.59 18.1867 99.8044 18.4136 99.1016C18.646 98.3988 18.978 97.7983 19.4097 97.3003C19.8413 96.7967 20.3587 96.4121 20.9619 96.1465C21.5706 95.8809 22.2541 95.748 23.0122 95.748C23.9751 95.748 24.7886 95.9251 25.4526 96.2793C26.1167 96.6335 26.6313 97.1232 26.9966 97.7485C27.3674 98.3739 27.5942 99.0905 27.6772 99.8984H25.6021C25.5467 99.3783 25.425 98.9328 25.2368 98.562C25.0542 98.1912 24.783 97.909 24.4233 97.7153C24.0636 97.5161 23.5933 97.4165 23.0122 97.4165C22.5363 97.4165 22.1213 97.505 21.7671 97.6821C21.4129 97.8592 21.1169 98.1193 20.8789 98.4624C20.641 98.8055 20.4611 99.2288 20.3394 99.7324C20.2231 100.23 20.165 100.8 20.165 101.442V102.463C20.165 103.072 20.2176 103.625 20.3228 104.124C20.4334 104.616 20.5994 105.039 20.8208 105.394C21.0477 105.748 21.3354 106.022 21.6841 106.215C22.0327 106.409 22.4505 106.506 22.9375 106.506C23.5296 106.506 24.0083 106.412 24.3735 106.224C24.7443 106.035 25.0238 105.762 25.2119 105.402C25.4056 105.037 25.5329 104.591 25.5938 104.065ZM28.9805 103.609V103.418C28.9805 102.771 29.0745 102.17 29.2627 101.617C29.4508 101.058 29.722 100.574 30.0762 100.164C30.4359 99.749 30.873 99.4281 31.3877 99.2012C31.9079 98.9688 32.4945 98.8525 33.1475 98.8525C33.806 98.8525 34.3926 98.9688 34.9072 99.2012C35.4274 99.4281 35.8674 99.749 36.2271 100.164C36.5868 100.574 36.8607 101.058 37.0488 101.617C37.237 102.17 37.3311 102.771 37.3311 103.418V103.609C37.3311 104.256 37.237 104.857 37.0488 105.41C36.8607 105.964 36.5868 106.448 36.2271 106.863C35.8674 107.272 35.4302 107.593 34.9155 107.826C34.4009 108.053 33.8171 108.166 33.1641 108.166C32.5055 108.166 31.9162 108.053 31.396 107.826C30.8813 107.593 30.4442 107.272 30.0845 106.863C29.7248 106.448 29.4508 105.964 29.2627 105.41C29.0745 104.857 28.9805 104.256 28.9805 103.609ZM30.981 103.418V103.609C30.981 104.013 31.0225 104.395 31.1055 104.754C31.1885 105.114 31.3185 105.43 31.4956 105.701C31.6727 105.972 31.8996 106.185 32.1763 106.34C32.453 106.495 32.7822 106.572 33.1641 106.572C33.5348 106.572 33.8558 106.495 34.127 106.34C34.4036 106.185 34.6305 105.972 34.8076 105.701C34.9847 105.43 35.1147 105.114 35.1978 104.754C35.2863 104.395 35.3306 104.013 35.3306 103.609V103.418C35.3306 103.02 35.2863 102.643 35.1978 102.289C35.1147 101.929 34.9819 101.611 34.7993 101.334C34.6222 101.058 34.3953 100.842 34.1187 100.687C33.8475 100.527 33.5238 100.446 33.1475 100.446C32.7712 100.446 32.4447 100.527 32.168 100.687C31.8968 100.842 31.6727 101.058 31.4956 101.334C31.3185 101.611 31.1885 101.929 31.1055 102.289C31.0225 102.643 30.981 103.02 30.981 103.418ZM41.0083 100.845V108H39.0078V99.0186H40.8921L41.0083 100.845ZM40.6846 103.177L40.0039 103.169C40.0039 102.549 40.0814 101.976 40.2363 101.451C40.3913 100.925 40.6182 100.468 40.917 100.081C41.2158 99.6882 41.5866 99.3866 42.0293 99.1763C42.4775 98.9604 42.995 98.8525 43.5815 98.8525C43.991 98.8525 44.3646 98.9134 44.7021 99.0352C45.0452 99.1514 45.3413 99.3368 45.5903 99.5913C45.8449 99.8459 46.0386 100.172 46.1714 100.571C46.3097 100.969 46.3789 101.451 46.3789 102.015V108H44.3784V102.189C44.3784 101.752 44.312 101.409 44.1792 101.16C44.0519 100.911 43.8665 100.734 43.623 100.629C43.3851 100.518 43.1001 100.463 42.7681 100.463C42.3918 100.463 42.0708 100.535 41.8052 100.679C41.5451 100.823 41.332 101.019 41.166 101.268C41 101.517 40.8783 101.805 40.8008 102.131C40.7233 102.458 40.6846 102.806 40.6846 103.177ZM46.2544 102.646L45.3164 102.854C45.3164 102.311 45.3911 101.799 45.5405 101.318C45.6955 100.831 45.9196 100.405 46.2129 100.04C46.5117 99.6688 46.8797 99.3783 47.3169 99.168C47.7541 98.9577 48.2549 98.8525 48.8193 98.8525C49.2786 98.8525 49.6882 98.9162 50.0479 99.0435C50.4131 99.1652 50.723 99.3589 50.9775 99.6245C51.2321 99.8901 51.4258 100.236 51.5586 100.662C51.6914 101.083 51.7578 101.592 51.7578 102.189V108H49.749V102.181C49.749 101.727 49.6826 101.376 49.5498 101.127C49.4225 100.878 49.2399 100.706 49.002 100.612C48.764 100.513 48.479 100.463 48.147 100.463C47.8371 100.463 47.5632 100.521 47.3252 100.637C47.0928 100.748 46.8963 100.906 46.7358 101.11C46.5754 101.31 46.4536 101.539 46.3706 101.799C46.2931 102.059 46.2544 102.342 46.2544 102.646ZM55.8252 100.745V111.453H53.8247V99.0186H55.6675L55.8252 100.745ZM61.6772 103.426V103.601C61.6772 104.254 61.5998 104.86 61.4448 105.418C61.2954 105.972 61.0713 106.456 60.7725 106.871C60.4792 107.281 60.1167 107.599 59.6851 107.826C59.2534 108.053 58.7554 108.166 58.1909 108.166C57.632 108.166 57.1423 108.064 56.7217 107.859C56.3066 107.649 55.9552 107.353 55.6675 106.971C55.3797 106.589 55.1473 106.141 54.9702 105.626C54.7987 105.106 54.6769 104.536 54.605 103.916V103.244C54.6769 102.585 54.7987 101.987 54.9702 101.451C55.1473 100.914 55.3797 100.452 55.6675 100.064C55.9552 99.6771 56.3066 99.3783 56.7217 99.168C57.1367 98.9577 57.6209 98.8525 58.1743 98.8525C58.7388 98.8525 59.2396 98.9632 59.6768 99.1846C60.1139 99.4004 60.4819 99.7103 60.7808 100.114C61.0796 100.513 61.3037 100.994 61.4531 101.559C61.6025 102.118 61.6772 102.74 61.6772 103.426ZM59.6768 103.601V103.426C59.6768 103.011 59.638 102.627 59.5605 102.272C59.4831 101.913 59.3613 101.597 59.1953 101.326C59.0293 101.055 58.8162 100.845 58.5562 100.695C58.3016 100.54 57.9945 100.463 57.6348 100.463C57.2806 100.463 56.9762 100.524 56.7217 100.646C56.4671 100.762 56.2541 100.925 56.0825 101.135C55.911 101.346 55.7782 101.592 55.6841 101.874C55.59 102.151 55.5236 102.452 55.4849 102.779V104.389C55.5513 104.788 55.6647 105.153 55.8252 105.485C55.9857 105.817 56.2126 106.083 56.5059 106.282C56.8047 106.475 57.1865 106.572 57.6514 106.572C58.0111 106.572 58.3182 106.495 58.5728 106.34C58.8273 106.185 59.0348 105.972 59.1953 105.701C59.3613 105.424 59.4831 105.106 59.5605 104.746C59.638 104.386 59.6768 104.005 59.6768 103.601ZM65.5205 95.25V108H63.5117V95.25H65.5205ZM71.6714 108.166C71.0073 108.166 70.4069 108.058 69.8701 107.842C69.3389 107.621 68.8851 107.314 68.5088 106.921C68.138 106.528 67.853 106.066 67.6538 105.535C67.4546 105.003 67.355 104.431 67.355 103.816V103.484C67.355 102.782 67.4574 102.145 67.6621 101.575C67.8669 101.005 68.1519 100.518 68.5171 100.114C68.8823 99.7048 69.314 99.3921 69.812 99.1763C70.3101 98.9604 70.8496 98.8525 71.4307 98.8525C72.0726 98.8525 72.6343 98.9604 73.1157 99.1763C73.5972 99.3921 73.9956 99.6965 74.311 100.089C74.632 100.477 74.87 100.939 75.0249 101.476C75.1854 102.012 75.2656 102.604 75.2656 103.252V104.107H68.3262V102.671H73.29V102.513C73.279 102.153 73.207 101.816 73.0742 101.5C72.9469 101.185 72.7505 100.931 72.4849 100.737C72.2192 100.543 71.8651 100.446 71.4224 100.446C71.0903 100.446 70.7943 100.518 70.5342 100.662C70.2796 100.8 70.0666 101.002 69.895 101.268C69.7235 101.534 69.5907 101.855 69.4966 102.231C69.408 102.602 69.3638 103.02 69.3638 103.484V103.816C69.3638 104.209 69.4163 104.575 69.5215 104.912C69.6322 105.244 69.7926 105.535 70.0029 105.784C70.2132 106.033 70.4678 106.229 70.7666 106.373C71.0654 106.511 71.4058 106.581 71.7876 106.581C72.269 106.581 72.6979 106.484 73.0742 106.29C73.4505 106.096 73.777 105.822 74.0537 105.468L75.1079 106.489C74.9142 106.771 74.6624 107.043 74.3525 107.303C74.0426 107.557 73.6636 107.765 73.2153 107.925C72.7726 108.086 72.258 108.166 71.6714 108.166ZM80.9434 99.0186V100.479H75.8799V99.0186H80.9434ZM77.3408 96.8188H79.3413V105.518C79.3413 105.795 79.38 106.008 79.4575 106.157C79.5405 106.301 79.654 106.398 79.7979 106.448C79.9417 106.498 80.1105 106.522 80.3042 106.522C80.4425 106.522 80.5754 106.514 80.7026 106.498C80.8299 106.481 80.9323 106.464 81.0098 106.448L81.0181 107.975C80.8521 108.025 80.6584 108.069 80.437 108.108C80.2212 108.147 79.9722 108.166 79.6899 108.166C79.2306 108.166 78.8239 108.086 78.4697 107.925C78.1156 107.759 77.8389 107.491 77.6396 107.12C77.4404 106.749 77.3408 106.257 77.3408 105.643V96.8188ZM86.4468 108.166C85.7827 108.166 85.1823 108.058 84.6455 107.842C84.1143 107.621 83.6605 107.314 83.2842 106.921C82.9134 106.528 82.6284 106.066 82.4292 105.535C82.23 105.003 82.1304 104.431 82.1304 103.816V103.484C82.1304 102.782 82.2327 102.145 82.4375 101.575C82.6423 101.005 82.9272 100.518 83.2925 100.114C83.6577 99.7048 84.0894 99.3921 84.5874 99.1763C85.0854 98.9604 85.625 98.8525 86.2061 98.8525C86.848 98.8525 87.4097 98.9604 87.8911 99.1763C88.3726 99.3921 88.771 99.6965 89.0864 100.089C89.4074 100.477 89.6453 100.939 89.8003 101.476C89.9608 102.012 90.041 102.604 90.041 103.252V104.107H83.1016V102.671H88.0654V102.513C88.0544 102.153 87.9824 101.816 87.8496 101.5C87.7223 101.185 87.5259 100.931 87.2603 100.737C86.9946 100.543 86.6405 100.446 86.1978 100.446C85.8657 100.446 85.5697 100.518 85.3096 100.662C85.055 100.8 84.842 101.002 84.6704 101.268C84.4989 101.534 84.366 101.855 84.272 102.231C84.1834 102.602 84.1392 103.02 84.1392 103.484V103.816C84.1392 104.209 84.1917 104.575 84.2969 104.912C84.4076 105.244 84.568 105.535 84.7783 105.784C84.9886 106.033 85.2432 106.229 85.542 106.373C85.8408 106.511 86.1812 106.581 86.563 106.581C87.0444 106.581 87.4733 106.484 87.8496 106.29C88.2259 106.096 88.5524 105.822 88.8291 105.468L89.8833 106.489C89.6896 106.771 89.4378 107.043 89.1279 107.303C88.818 107.557 88.439 107.765 87.9907 107.925C87.548 108.086 87.0334 108.166 86.4468 108.166ZM100.874 105.568C100.874 105.369 100.824 105.189 100.724 105.028C100.625 104.862 100.434 104.713 100.151 104.58C99.8747 104.447 99.4652 104.326 98.9229 104.215C98.4469 104.11 98.0098 103.985 97.6113 103.841C97.2184 103.692 96.8809 103.512 96.5986 103.302C96.3164 103.091 96.0978 102.842 95.9429 102.555C95.7879 102.267 95.7104 101.935 95.7104 101.559C95.7104 101.193 95.7907 100.847 95.9512 100.521C96.1117 100.194 96.3413 99.9067 96.6401 99.6577C96.939 99.4087 97.3014 99.2122 97.7275 99.0684C98.1592 98.9245 98.6406 98.8525 99.1719 98.8525C99.9245 98.8525 100.569 98.9798 101.106 99.2344C101.648 99.4834 102.063 99.8237 102.351 100.255C102.639 100.681 102.783 101.163 102.783 101.7H100.782C100.782 101.462 100.721 101.24 100.6 101.036C100.483 100.825 100.306 100.657 100.068 100.529C99.8304 100.396 99.5316 100.33 99.1719 100.33C98.8288 100.33 98.5438 100.385 98.3169 100.496C98.0955 100.601 97.9295 100.74 97.8188 100.911C97.7137 101.083 97.6611 101.271 97.6611 101.476C97.6611 101.625 97.6888 101.761 97.7441 101.882C97.805 101.999 97.9046 102.106 98.043 102.206C98.1813 102.3 98.3695 102.389 98.6074 102.472C98.8509 102.555 99.1553 102.635 99.5205 102.712C100.207 102.856 100.796 103.042 101.289 103.269C101.787 103.49 102.168 103.778 102.434 104.132C102.7 104.48 102.833 104.923 102.833 105.46C102.833 105.858 102.747 106.224 102.575 106.556C102.409 106.882 102.166 107.167 101.845 107.411C101.524 107.649 101.139 107.834 100.691 107.967C100.248 108.1 99.7502 108.166 99.1968 108.166C98.3833 108.166 97.6943 108.022 97.1299 107.734C96.5654 107.441 96.1366 107.068 95.8433 106.614C95.5555 106.154 95.4116 105.679 95.4116 105.186H97.3457C97.3678 105.557 97.4702 105.853 97.6528 106.074C97.841 106.29 98.0734 106.448 98.3501 106.547C98.6323 106.641 98.9229 106.688 99.2217 106.688C99.5814 106.688 99.883 106.641 100.126 106.547C100.37 106.448 100.555 106.315 100.683 106.149C100.81 105.977 100.874 105.784 100.874 105.568ZM109.988 105.883V99.0186H111.997V108H110.104L109.988 105.883ZM110.27 104.016L110.942 103.999C110.942 104.602 110.876 105.158 110.743 105.667C110.61 106.171 110.406 106.611 110.129 106.987C109.852 107.358 109.498 107.649 109.066 107.859C108.635 108.064 108.117 108.166 107.514 108.166C107.077 108.166 106.676 108.102 106.311 107.975C105.945 107.848 105.63 107.651 105.364 107.386C105.104 107.12 104.902 106.774 104.758 106.348C104.614 105.922 104.542 105.413 104.542 104.821V99.0186H106.543V104.837C106.543 105.164 106.582 105.438 106.659 105.659C106.737 105.875 106.842 106.049 106.975 106.182C107.107 106.315 107.262 106.409 107.439 106.464C107.617 106.52 107.805 106.547 108.004 106.547C108.574 106.547 109.022 106.437 109.349 106.215C109.681 105.988 109.916 105.684 110.054 105.302C110.198 104.92 110.27 104.492 110.27 104.016ZM116.056 100.729V108H114.055V99.0186H115.964L116.056 100.729ZM118.803 98.9604L118.787 100.82C118.665 100.798 118.532 100.781 118.388 100.77C118.25 100.759 118.111 100.753 117.973 100.753C117.63 100.753 117.328 100.803 117.068 100.903C116.808 100.997 116.59 101.135 116.413 101.318C116.241 101.495 116.108 101.711 116.014 101.965C115.92 102.22 115.865 102.505 115.848 102.82L115.392 102.854C115.392 102.289 115.447 101.766 115.558 101.285C115.668 100.803 115.834 100.38 116.056 100.015C116.283 99.6494 116.565 99.3644 116.902 99.1597C117.245 98.9549 117.641 98.8525 118.089 98.8525C118.211 98.8525 118.341 98.8636 118.479 98.8857C118.623 98.9079 118.731 98.9328 118.803 98.9604ZM123.128 106.415L125.328 99.0186H127.403L124.282 108H122.987L123.128 106.415ZM121.443 99.0186L123.684 106.448L123.792 108H122.497L119.359 99.0186H121.443ZM132.483 108.166C131.819 108.166 131.218 108.058 130.682 107.842C130.15 107.621 129.697 107.314 129.32 106.921C128.95 106.528 128.665 106.066 128.465 105.535C128.266 105.003 128.167 104.431 128.167 103.816V103.484C128.167 102.782 128.269 102.145 128.474 101.575C128.678 101.005 128.963 100.518 129.329 100.114C129.694 99.7048 130.125 99.3921 130.624 99.1763C131.122 98.9604 131.661 98.8525 132.242 98.8525C132.884 98.8525 133.446 98.9604 133.927 99.1763C134.409 99.3921 134.807 99.6965 135.123 100.089C135.444 100.477 135.681 100.939 135.836 101.476C135.997 102.012 136.077 102.604 136.077 103.252V104.107H129.138V102.671H134.102V102.513C134.09 102.153 134.019 101.816 133.886 101.5C133.758 101.185 133.562 100.931 133.296 100.737C133.031 100.543 132.677 100.446 132.234 100.446C131.902 100.446 131.606 100.518 131.346 100.662C131.091 100.8 130.878 101.002 130.707 101.268C130.535 101.534 130.402 101.855 130.308 102.231C130.22 102.602 130.175 103.02 130.175 103.484V103.816C130.175 104.209 130.228 104.575 130.333 104.912C130.444 105.244 130.604 105.535 130.814 105.784C131.025 106.033 131.279 106.229 131.578 106.373C131.877 106.511 132.217 106.581 132.599 106.581C133.081 106.581 133.509 106.484 133.886 106.29C134.262 106.096 134.589 105.822 134.865 105.468L135.919 106.489C135.726 106.771 135.474 107.043 135.164 107.303C134.854 107.557 134.475 107.765 134.027 107.925C133.584 108.086 133.069 108.166 132.483 108.166ZM140.128 107.021L142.568 99.0186H144.71L141.107 109.37C141.024 109.591 140.917 109.832 140.784 110.092C140.651 110.352 140.477 110.598 140.261 110.831C140.05 111.069 139.788 111.259 139.472 111.403C139.157 111.553 138.775 111.627 138.327 111.627C138.15 111.627 137.978 111.611 137.812 111.578C137.652 111.55 137.499 111.52 137.355 111.486L137.347 109.959C137.403 109.965 137.469 109.97 137.546 109.976C137.629 109.981 137.696 109.984 137.746 109.984C138.078 109.984 138.354 109.942 138.576 109.859C138.797 109.782 138.977 109.655 139.115 109.478C139.259 109.3 139.381 109.062 139.48 108.764L140.128 107.021ZM138.75 99.0186L140.883 105.742L141.24 107.851L139.854 108.208L136.592 99.0186H138.75ZM150.894 105.568C150.894 105.369 150.844 105.189 150.745 105.028C150.645 104.862 150.454 104.713 150.172 104.58C149.895 104.447 149.486 104.326 148.943 104.215C148.467 104.11 148.03 103.985 147.632 103.841C147.239 103.692 146.901 103.512 146.619 103.302C146.337 103.091 146.118 102.842 145.963 102.555C145.808 102.267 145.731 101.935 145.731 101.559C145.731 101.193 145.811 100.847 145.972 100.521C146.132 100.194 146.362 99.9067 146.661 99.6577C146.959 99.4087 147.322 99.2122 147.748 99.0684C148.18 98.9245 148.661 98.8525 149.192 98.8525C149.945 98.8525 150.59 98.9798 151.126 99.2344C151.669 99.4834 152.084 99.8237 152.372 100.255C152.659 100.681 152.803 101.163 152.803 101.7H150.803C150.803 101.462 150.742 101.24 150.62 101.036C150.504 100.825 150.327 100.657 150.089 100.529C149.851 100.396 149.552 100.33 149.192 100.33C148.849 100.33 148.564 100.385 148.337 100.496C148.116 100.601 147.95 100.74 147.839 100.911C147.734 101.083 147.682 101.271 147.682 101.476C147.682 101.625 147.709 101.761 147.765 101.882C147.826 101.999 147.925 102.106 148.063 102.206C148.202 102.3 148.39 102.389 148.628 102.472C148.871 102.555 149.176 102.635 149.541 102.712C150.227 102.856 150.817 103.042 151.309 103.269C151.807 103.49 152.189 103.778 152.455 104.132C152.72 104.48 152.853 104.923 152.853 105.46C152.853 105.858 152.767 106.224 152.596 106.556C152.43 106.882 152.186 107.167 151.865 107.411C151.544 107.649 151.16 107.834 150.711 107.967C150.269 108.1 149.771 108.166 149.217 108.166C148.404 108.166 147.715 108.022 147.15 107.734C146.586 107.441 146.157 107.068 145.864 106.614C145.576 106.154 145.432 105.679 145.432 105.186H147.366C147.388 105.557 147.491 105.853 147.673 106.074C147.861 106.29 148.094 106.448 148.371 106.547C148.653 106.641 148.943 106.688 149.242 106.688C149.602 106.688 149.903 106.641 150.147 106.547C150.39 106.448 150.576 106.315 150.703 106.149C150.83 105.977 150.894 105.784 150.894 105.568ZM163.901 106.199V101.916C163.901 101.595 163.843 101.318 163.727 101.085C163.611 100.853 163.434 100.673 163.196 100.546C162.963 100.419 162.67 100.355 162.316 100.355C161.989 100.355 161.707 100.41 161.469 100.521C161.231 100.632 161.046 100.781 160.913 100.969C160.78 101.157 160.714 101.37 160.714 101.608H158.722C158.722 101.254 158.807 100.911 158.979 100.579C159.151 100.247 159.4 99.951 159.726 99.6909C160.053 99.4308 160.443 99.2261 160.896 99.0767C161.35 98.9272 161.859 98.8525 162.424 98.8525C163.099 98.8525 163.697 98.966 164.217 99.1929C164.743 99.4198 165.155 99.7629 165.454 100.222C165.758 100.676 165.91 101.246 165.91 101.932V105.925C165.91 106.334 165.938 106.702 165.993 107.029C166.054 107.35 166.14 107.629 166.25 107.867V108H164.2C164.106 107.784 164.031 107.51 163.976 107.178C163.926 106.841 163.901 106.514 163.901 106.199ZM164.192 102.538L164.208 103.775H162.772C162.402 103.775 162.075 103.811 161.793 103.883C161.511 103.949 161.276 104.049 161.087 104.182C160.899 104.314 160.758 104.475 160.664 104.663C160.57 104.851 160.523 105.064 160.523 105.302C160.523 105.54 160.578 105.759 160.689 105.958C160.8 106.152 160.96 106.304 161.17 106.415C161.386 106.525 161.646 106.581 161.951 106.581C162.36 106.581 162.717 106.498 163.021 106.332C163.331 106.16 163.575 105.952 163.752 105.709C163.929 105.46 164.023 105.225 164.034 105.003L164.682 105.892C164.615 106.118 164.502 106.362 164.341 106.622C164.181 106.882 163.971 107.131 163.71 107.369C163.456 107.602 163.149 107.792 162.789 107.942C162.435 108.091 162.025 108.166 161.561 108.166C160.974 108.166 160.451 108.05 159.992 107.817C159.532 107.579 159.173 107.261 158.913 106.863C158.653 106.459 158.522 106.002 158.522 105.493C158.522 105.017 158.611 104.597 158.788 104.231C158.971 103.861 159.236 103.551 159.585 103.302C159.939 103.053 160.371 102.865 160.88 102.737C161.389 102.604 161.97 102.538 162.623 102.538H164.192ZM169.986 100.936V108H167.985V99.0186H169.87L169.986 100.936ZM169.629 103.177L168.981 103.169C168.987 102.533 169.076 101.949 169.247 101.417C169.424 100.886 169.668 100.43 169.978 100.048C170.293 99.666 170.669 99.3727 171.106 99.168C171.544 98.9577 172.031 98.8525 172.567 98.8525C172.999 98.8525 173.389 98.9134 173.738 99.0352C174.092 99.1514 174.394 99.3423 174.643 99.6079C174.897 99.8735 175.091 100.219 175.224 100.646C175.356 101.066 175.423 101.583 175.423 102.198V108H173.414V102.189C173.414 101.758 173.35 101.417 173.223 101.168C173.101 100.914 172.922 100.734 172.684 100.629C172.451 100.518 172.161 100.463 171.812 100.463C171.469 100.463 171.162 100.535 170.891 100.679C170.619 100.823 170.39 101.019 170.202 101.268C170.019 101.517 169.878 101.805 169.778 102.131C169.679 102.458 169.629 102.806 169.629 103.177ZM182.943 106.141V95.25H184.952V108H183.134L182.943 106.141ZM177.1 103.609V103.435C177.1 102.754 177.18 102.134 177.34 101.575C177.501 101.011 177.733 100.527 178.038 100.123C178.342 99.7131 178.713 99.4004 179.15 99.1846C179.587 98.9632 180.08 98.8525 180.627 98.8525C181.17 98.8525 181.646 98.9577 182.055 99.168C182.465 99.3783 182.813 99.6799 183.101 100.073C183.389 100.46 183.618 100.925 183.79 101.467C183.962 102.004 184.083 102.602 184.155 103.26V103.816C184.083 104.458 183.962 105.045 183.79 105.576C183.618 106.107 183.389 106.567 183.101 106.954C182.813 107.341 182.462 107.64 182.047 107.851C181.637 108.061 181.159 108.166 180.611 108.166C180.069 108.166 179.579 108.053 179.142 107.826C178.71 107.599 178.342 107.281 178.038 106.871C177.733 106.462 177.501 105.98 177.34 105.427C177.18 104.868 177.1 104.262 177.1 103.609ZM179.1 103.435V103.609C179.1 104.018 179.136 104.4 179.208 104.754C179.285 105.109 179.404 105.421 179.565 105.692C179.725 105.958 179.933 106.168 180.188 106.323C180.448 106.473 180.757 106.547 181.117 106.547C181.571 106.547 181.944 106.448 182.238 106.249C182.531 106.049 182.761 105.781 182.927 105.443C183.098 105.1 183.215 104.718 183.275 104.298V102.795C183.242 102.469 183.173 102.165 183.068 101.882C182.968 101.6 182.833 101.354 182.661 101.144C182.49 100.928 182.277 100.762 182.022 100.646C181.773 100.524 181.477 100.463 181.134 100.463C180.769 100.463 180.459 100.54 180.204 100.695C179.95 100.85 179.739 101.063 179.573 101.334C179.413 101.606 179.294 101.921 179.216 102.281C179.139 102.64 179.1 103.025 179.1 103.435ZM195.237 108.166C194.573 108.166 193.972 108.058 193.436 107.842C192.904 107.621 192.451 107.314 192.074 106.921C191.703 106.528 191.418 106.066 191.219 105.535C191.02 105.003 190.92 104.431 190.92 103.816V103.484C190.92 102.782 191.023 102.145 191.228 101.575C191.432 101.005 191.717 100.518 192.083 100.114C192.448 99.7048 192.879 99.3921 193.377 99.1763C193.875 98.9604 194.415 98.8525 194.996 98.8525C195.638 98.8525 196.2 98.9604 196.681 99.1763C197.163 99.3921 197.561 99.6965 197.876 100.089C198.197 100.477 198.435 100.939 198.59 101.476C198.751 102.012 198.831 102.604 198.831 103.252V104.107H191.892V102.671H196.855V102.513C196.844 102.153 196.772 101.816 196.64 101.5C196.512 101.185 196.316 100.931 196.05 100.737C195.785 100.543 195.431 100.446 194.988 100.446C194.656 100.446 194.36 100.518 194.1 100.662C193.845 100.8 193.632 101.002 193.46 101.268C193.289 101.534 193.156 101.855 193.062 102.231C192.973 102.602 192.929 103.02 192.929 103.484V103.816C192.929 104.209 192.982 104.575 193.087 104.912C193.198 105.244 193.358 105.535 193.568 105.784C193.779 106.033 194.033 106.229 194.332 106.373C194.631 106.511 194.971 106.581 195.353 106.581C195.834 106.581 196.263 106.484 196.64 106.29C197.016 106.096 197.342 105.822 197.619 105.468L198.673 106.489C198.48 106.771 198.228 107.043 197.918 107.303C197.608 107.557 197.229 107.765 196.781 107.925C196.338 108.086 195.823 108.166 195.237 108.166ZM205.455 106.199V101.916C205.455 101.595 205.397 101.318 205.281 101.085C205.165 100.853 204.987 100.673 204.75 100.546C204.517 100.419 204.224 100.355 203.87 100.355C203.543 100.355 203.261 100.41 203.023 100.521C202.785 100.632 202.6 100.781 202.467 100.969C202.334 101.157 202.268 101.37 202.268 101.608H200.275C200.275 101.254 200.361 100.911 200.533 100.579C200.704 100.247 200.953 99.951 201.28 99.6909C201.606 99.4308 201.996 99.2261 202.45 99.0767C202.904 98.9272 203.413 98.8525 203.978 98.8525C204.653 98.8525 205.25 98.966 205.771 99.1929C206.296 99.4198 206.708 99.7629 207.007 100.222C207.312 100.676 207.464 101.246 207.464 101.932V105.925C207.464 106.334 207.492 106.702 207.547 107.029C207.608 107.35 207.694 107.629 207.804 107.867V108H205.754C205.66 107.784 205.585 107.51 205.53 107.178C205.48 106.841 205.455 106.514 205.455 106.199ZM205.746 102.538L205.762 103.775H204.326C203.955 103.775 203.629 103.811 203.347 103.883C203.064 103.949 202.829 104.049 202.641 104.182C202.453 104.314 202.312 104.475 202.218 104.663C202.124 104.851 202.077 105.064 202.077 105.302C202.077 105.54 202.132 105.759 202.243 105.958C202.353 106.152 202.514 106.304 202.724 106.415C202.94 106.525 203.2 106.581 203.504 106.581C203.914 106.581 204.271 106.498 204.575 106.332C204.885 106.16 205.129 105.952 205.306 105.709C205.483 105.46 205.577 105.225 205.588 105.003L206.235 105.892C206.169 106.118 206.056 106.362 205.895 106.622C205.735 106.882 205.524 107.131 205.264 107.369C205.01 107.602 204.702 107.792 204.343 107.942C203.989 108.091 203.579 108.166 203.114 108.166C202.528 108.166 202.005 108.05 201.545 107.817C201.086 107.579 200.726 107.261 200.466 106.863C200.206 106.459 200.076 106.002 200.076 105.493C200.076 105.017 200.165 104.597 200.342 104.231C200.524 103.861 200.79 103.551 201.139 103.302C201.493 103.053 201.924 102.865 202.434 102.737C202.943 102.604 203.524 102.538 204.177 102.538H205.746ZM211.564 100.729V108H209.564V99.0186H211.473L211.564 100.729ZM214.312 98.9604L214.295 100.82C214.174 100.798 214.041 100.781 213.897 100.77C213.759 100.759 213.62 100.753 213.482 100.753C213.139 100.753 212.837 100.803 212.577 100.903C212.317 100.997 212.098 101.135 211.921 101.318C211.75 101.495 211.617 101.711 211.523 101.965C211.429 102.22 211.374 102.505 211.357 102.82L210.9 102.854C210.9 102.289 210.956 101.766 211.066 101.285C211.177 100.803 211.343 100.38 211.564 100.015C211.791 99.6494 212.074 99.3644 212.411 99.1597C212.754 98.9549 213.15 98.8525 213.598 98.8525C213.72 98.8525 213.85 98.8636 213.988 98.8857C214.132 98.9079 214.24 98.9328 214.312 98.9604ZM217.549 100.936V108H215.549V99.0186H217.433L217.549 100.936ZM217.192 103.177L216.545 103.169C216.55 102.533 216.639 101.949 216.811 101.417C216.988 100.886 217.231 100.43 217.541 100.048C217.856 99.666 218.233 99.3727 218.67 99.168C219.107 98.9577 219.594 98.8525 220.131 98.8525C220.562 98.8525 220.953 98.9134 221.301 99.0352C221.655 99.1514 221.957 99.3423 222.206 99.6079C222.461 99.8735 222.654 100.219 222.787 100.646C222.92 101.066 222.986 101.583 222.986 102.198V108H220.978V102.189C220.978 101.758 220.914 101.417 220.787 101.168C220.665 100.914 220.485 100.734 220.247 100.629C220.015 100.518 219.724 100.463 219.375 100.463C219.032 100.463 218.725 100.535 218.454 100.679C218.183 100.823 217.953 101.019 217.765 101.268C217.583 101.517 217.441 101.805 217.342 102.131C217.242 102.458 217.192 102.806 217.192 103.177ZM232.972 108H230.391L230.407 106.348H232.972C233.719 106.348 234.345 106.185 234.848 105.858C235.357 105.532 235.739 105.064 235.994 104.456C236.254 103.847 236.384 103.122 236.384 102.281V101.625C236.384 100.972 236.309 100.394 236.16 99.8901C236.016 99.3866 235.8 98.9632 235.512 98.6201C235.23 98.277 234.881 98.0169 234.466 97.8398C234.057 97.6628 233.584 97.5742 233.047 97.5742H230.341V95.9141H233.047C233.849 95.9141 234.583 96.0496 235.247 96.3208C235.911 96.5864 236.483 96.971 236.965 97.4746C237.452 97.9782 237.825 98.5814 238.085 99.2842C238.346 99.987 238.476 100.773 238.476 101.642V102.281C238.476 103.15 238.346 103.935 238.085 104.638C237.825 105.341 237.452 105.944 236.965 106.448C236.478 106.946 235.897 107.33 235.222 107.602C234.552 107.867 233.802 108 232.972 108ZM231.544 95.9141V108H229.461V95.9141H231.544ZM242.51 99.0186V108H240.501V99.0186H242.51ZM240.368 96.6611C240.368 96.3568 240.468 96.105 240.667 95.9058C240.872 95.701 241.154 95.5986 241.514 95.5986C241.868 95.5986 242.147 95.701 242.352 95.9058C242.557 96.105 242.659 96.3568 242.659 96.6611C242.659 96.96 242.557 97.209 242.352 97.4082C242.147 97.6074 241.868 97.707 241.514 97.707C241.154 97.707 240.872 97.6074 240.667 97.4082C240.468 97.209 240.368 96.96 240.368 96.6611ZM249.765 106.199V101.916C249.765 101.595 249.707 101.318 249.59 101.085C249.474 100.853 249.297 100.673 249.059 100.546C248.827 100.419 248.533 100.355 248.179 100.355C247.853 100.355 247.57 100.41 247.333 100.521C247.095 100.632 246.909 100.781 246.776 100.969C246.644 101.157 246.577 101.37 246.577 101.608H244.585C244.585 101.254 244.671 100.911 244.842 100.579C245.014 100.247 245.263 99.951 245.589 99.6909C245.916 99.4308 246.306 99.2261 246.76 99.0767C247.214 98.9272 247.723 98.8525 248.287 98.8525C248.962 98.8525 249.56 98.966 250.08 99.1929C250.606 99.4198 251.018 99.7629 251.317 100.222C251.621 100.676 251.773 101.246 251.773 101.932V105.925C251.773 106.334 251.801 106.702 251.856 107.029C251.917 107.35 252.003 107.629 252.114 107.867V108H250.063C249.969 107.784 249.895 107.51 249.839 107.178C249.79 106.841 249.765 106.514 249.765 106.199ZM250.055 102.538L250.072 103.775H248.636C248.265 103.775 247.938 103.811 247.656 103.883C247.374 103.949 247.139 104.049 246.951 104.182C246.763 104.314 246.621 104.475 246.527 104.663C246.433 104.851 246.386 105.064 246.386 105.302C246.386 105.54 246.442 105.759 246.552 105.958C246.663 106.152 246.823 106.304 247.034 106.415C247.25 106.525 247.51 106.581 247.814 106.581C248.223 106.581 248.58 106.498 248.885 106.332C249.195 106.16 249.438 105.952 249.615 105.709C249.792 105.46 249.886 105.225 249.897 105.003L250.545 105.892C250.479 106.118 250.365 106.362 250.205 106.622C250.044 106.882 249.834 107.131 249.574 107.369C249.319 107.602 249.012 107.792 248.652 107.942C248.298 108.091 247.889 108.166 247.424 108.166C246.837 108.166 246.314 108.05 245.855 107.817C245.396 107.579 245.036 107.261 244.776 106.863C244.516 106.459 244.386 106.002 244.386 105.493C244.386 105.017 244.474 104.597 244.651 104.231C244.834 103.861 245.1 103.551 245.448 103.302C245.802 103.053 246.234 102.865 246.743 102.737C247.252 102.604 247.833 102.538 248.486 102.538H250.055ZM255.866 100.845V108H253.865V99.0186H255.75L255.866 100.845ZM255.542 103.177L254.861 103.169C254.861 102.549 254.939 101.976 255.094 101.451C255.249 100.925 255.476 100.468 255.774 100.081C256.073 99.6882 256.444 99.3866 256.887 99.1763C257.335 98.9604 257.852 98.8525 258.439 98.8525C258.848 98.8525 259.222 98.9134 259.56 99.0352C259.903 99.1514 260.199 99.3368 260.448 99.5913C260.702 99.8459 260.896 100.172 261.029 100.571C261.167 100.969 261.236 101.451 261.236 102.015V108H259.236V102.189C259.236 101.752 259.169 101.409 259.037 101.16C258.909 100.911 258.724 100.734 258.48 100.629C258.243 100.518 257.958 100.463 257.625 100.463C257.249 100.463 256.928 100.535 256.663 100.679C256.403 100.823 256.189 101.019 256.023 101.268C255.857 101.517 255.736 101.805 255.658 102.131C255.581 102.458 255.542 102.806 255.542 103.177ZM261.112 102.646L260.174 102.854C260.174 102.311 260.249 101.799 260.398 101.318C260.553 100.831 260.777 100.405 261.07 100.04C261.369 99.6688 261.737 99.3783 262.174 99.168C262.611 98.9577 263.112 98.8525 263.677 98.8525C264.136 98.8525 264.546 98.9162 264.905 99.0435C265.271 99.1652 265.58 99.3589 265.835 99.6245C266.09 99.8901 266.283 100.236 266.416 100.662C266.549 101.083 266.615 101.592 266.615 102.189V108H264.606V102.181C264.606 101.727 264.54 101.376 264.407 101.127C264.28 100.878 264.097 100.706 263.859 100.612C263.621 100.513 263.336 100.463 263.004 100.463C262.694 100.463 262.421 100.521 262.183 100.637C261.95 100.748 261.754 100.906 261.593 101.11C261.433 101.31 261.311 101.539 261.228 101.799C261.151 102.059 261.112 102.342 261.112 102.646ZM268.292 103.609V103.418C268.292 102.771 268.386 102.17 268.574 101.617C268.762 101.058 269.034 100.574 269.388 100.164C269.747 99.749 270.185 99.4281 270.699 99.2012C271.219 98.9688 271.806 98.8525 272.459 98.8525C273.118 98.8525 273.704 98.9688 274.219 99.2012C274.739 99.4281 275.179 99.749 275.539 100.164C275.898 100.574 276.172 101.058 276.36 101.617C276.549 102.17 276.643 102.771 276.643 103.418V103.609C276.643 104.256 276.549 104.857 276.36 105.41C276.172 105.964 275.898 106.448 275.539 106.863C275.179 107.272 274.742 107.593 274.227 107.826C273.712 108.053 273.129 108.166 272.476 108.166C271.817 108.166 271.228 108.053 270.708 107.826C270.193 107.593 269.756 107.272 269.396 106.863C269.036 106.448 268.762 105.964 268.574 105.41C268.386 104.857 268.292 104.256 268.292 103.609ZM270.292 103.418V103.609C270.292 104.013 270.334 104.395 270.417 104.754C270.5 105.114 270.63 105.43 270.807 105.701C270.984 105.972 271.211 106.185 271.488 106.34C271.764 106.495 272.094 106.572 272.476 106.572C272.846 106.572 273.167 106.495 273.438 106.34C273.715 106.185 273.942 105.972 274.119 105.701C274.296 105.43 274.426 105.114 274.509 104.754C274.598 104.395 274.642 104.013 274.642 103.609V103.418C274.642 103.02 274.598 102.643 274.509 102.289C274.426 101.929 274.293 101.611 274.111 101.334C273.934 101.058 273.707 100.842 273.43 100.687C273.159 100.527 272.835 100.446 272.459 100.446C272.083 100.446 271.756 100.527 271.479 100.687C271.208 100.842 270.984 101.058 270.807 101.334C270.63 101.611 270.5 101.929 270.417 102.289C270.334 102.643 270.292 103.02 270.292 103.418ZM280.303 100.936V108H278.303V99.0186H280.187L280.303 100.936ZM279.946 103.177L279.299 103.169C279.304 102.533 279.393 101.949 279.564 101.417C279.742 100.886 279.985 100.43 280.295 100.048C280.61 99.666 280.987 99.3727 281.424 99.168C281.861 98.9577 282.348 98.8525 282.885 98.8525C283.316 98.8525 283.707 98.9134 284.055 99.0352C284.409 99.1514 284.711 99.3423 284.96 99.6079C285.215 99.8735 285.408 100.219 285.541 100.646C285.674 101.066 285.74 101.583 285.74 102.198V108H283.731V102.189C283.731 101.758 283.668 101.417 283.541 101.168C283.419 100.914 283.239 100.734 283.001 100.629C282.769 100.518 282.478 100.463 282.129 100.463C281.786 100.463 281.479 100.535 281.208 100.679C280.937 100.823 280.707 101.019 280.519 101.268C280.336 101.517 280.195 101.805 280.096 102.131C279.996 102.458 279.946 102.806 279.946 103.177ZM293.261 106.141V95.25H295.27V108H293.452L293.261 106.141ZM287.417 103.609V103.435C287.417 102.754 287.497 102.134 287.658 101.575C287.818 101.011 288.051 100.527 288.355 100.123C288.659 99.7131 289.03 99.4004 289.467 99.1846C289.904 98.9632 290.397 98.8525 290.945 98.8525C291.487 98.8525 291.963 98.9577 292.373 99.168C292.782 99.3783 293.131 99.6799 293.418 100.073C293.706 100.46 293.936 100.925 294.107 101.467C294.279 102.004 294.401 102.602 294.473 103.26V103.816C294.401 104.458 294.279 105.045 294.107 105.576C293.936 106.107 293.706 106.567 293.418 106.954C293.131 107.341 292.779 107.64 292.364 107.851C291.955 108.061 291.476 108.166 290.928 108.166C290.386 108.166 289.896 108.053 289.459 107.826C289.027 107.599 288.659 107.281 288.355 106.871C288.051 106.462 287.818 105.98 287.658 105.427C287.497 104.868 287.417 104.262 287.417 103.609ZM289.417 103.435V103.609C289.417 104.018 289.453 104.4 289.525 104.754C289.603 105.109 289.722 105.421 289.882 105.692C290.043 105.958 290.25 106.168 290.505 106.323C290.765 106.473 291.075 106.547 291.435 106.547C291.888 106.547 292.262 106.448 292.555 106.249C292.848 106.049 293.078 105.781 293.244 105.443C293.416 105.1 293.532 104.718 293.593 104.298V102.795C293.56 102.469 293.49 102.165 293.385 101.882C293.286 101.6 293.15 101.354 292.979 101.144C292.807 100.928 292.594 100.762 292.339 100.646C292.09 100.524 291.794 100.463 291.451 100.463C291.086 100.463 290.776 100.54 290.521 100.695C290.267 100.85 290.057 101.063 289.891 101.334C289.73 101.606 289.611 101.921 289.534 102.281C289.456 102.64 289.417 103.025 289.417 103.435ZM302.4 105.568C302.4 105.369 302.35 105.189 302.25 105.028C302.151 104.862 301.96 104.713 301.678 104.58C301.401 104.447 300.992 104.326 300.449 104.215C299.973 104.11 299.536 103.985 299.138 103.841C298.745 103.692 298.407 103.512 298.125 103.302C297.843 103.091 297.624 102.842 297.469 102.555C297.314 102.267 297.237 101.935 297.237 101.559C297.237 101.193 297.317 100.847 297.478 100.521C297.638 100.194 297.868 99.9067 298.167 99.6577C298.465 99.4087 298.828 99.2122 299.254 99.0684C299.686 98.9245 300.167 98.8525 300.698 98.8525C301.451 98.8525 302.096 98.9798 302.632 99.2344C303.175 99.4834 303.59 99.8237 303.877 100.255C304.165 100.681 304.309 101.163 304.309 101.7H302.309C302.309 101.462 302.248 101.24 302.126 101.036C302.01 100.825 301.833 100.657 301.595 100.529C301.357 100.396 301.058 100.33 300.698 100.33C300.355 100.33 300.07 100.385 299.843 100.496C299.622 100.601 299.456 100.74 299.345 100.911C299.24 101.083 299.188 101.271 299.188 101.476C299.188 101.625 299.215 101.761 299.271 101.882C299.331 101.999 299.431 102.106 299.569 102.206C299.708 102.3 299.896 102.389 300.134 102.472C300.377 102.555 300.682 102.635 301.047 102.712C301.733 102.856 302.322 103.042 302.815 103.269C303.313 103.49 303.695 103.778 303.96 104.132C304.226 104.48 304.359 104.923 304.359 105.46C304.359 105.858 304.273 106.224 304.102 106.556C303.936 106.882 303.692 107.167 303.371 107.411C303.05 107.649 302.666 107.834 302.217 107.967C301.775 108.1 301.277 108.166 300.723 108.166C299.91 108.166 299.221 108.022 298.656 107.734C298.092 107.441 297.663 107.068 297.37 106.614C297.082 106.154 296.938 105.679 296.938 105.186H298.872C298.894 105.557 298.997 105.853 299.179 106.074C299.367 106.29 299.6 106.448 299.876 106.547C300.159 106.641 300.449 106.688 300.748 106.688C301.108 106.688 301.409 106.641 301.653 106.547C301.896 106.448 302.082 106.315 302.209 106.149C302.336 105.977 302.4 105.784 302.4 105.568Z" fill="black"/>
<path d="M174.529 420.376L172.49 426.292H171.257L173.826 419.467H174.613L174.529 420.376ZM176.235 426.292L174.191 420.376L174.102 419.467H174.895L177.473 426.292H176.235ZM176.137 423.76V424.693H172.424V423.76H176.137ZM180.653 421.22V422.045H177.794V421.22H180.653ZM178.619 419.977H179.748V424.89C179.748 425.046 179.77 425.167 179.814 425.251C179.861 425.332 179.925 425.387 180.006 425.415C180.087 425.443 180.183 425.457 180.292 425.457C180.37 425.457 180.445 425.452 180.517 425.443C180.589 425.434 180.647 425.424 180.69 425.415L180.695 426.277C180.601 426.306 180.492 426.331 180.367 426.352C180.245 426.374 180.104 426.385 179.945 426.385C179.686 426.385 179.456 426.34 179.256 426.249C179.056 426.156 178.9 426.004 178.787 425.795C178.675 425.585 178.619 425.307 178.619 424.96V419.977ZM185.607 419.092V426.292H184.482V419.092H185.607ZM185.41 423.568L185.045 423.563C185.048 423.213 185.096 422.89 185.19 422.593C185.287 422.296 185.421 422.038 185.593 421.82C185.768 421.598 185.977 421.427 186.221 421.309C186.465 421.187 186.735 421.126 187.032 421.126C187.282 421.126 187.507 421.16 187.707 421.229C187.91 421.298 188.085 421.409 188.232 421.562C188.379 421.712 188.49 421.909 188.565 422.152C188.643 422.393 188.682 422.687 188.682 423.034V426.292H187.548V423.024C187.548 422.781 187.512 422.587 187.44 422.443C187.371 422.299 187.27 422.196 187.135 422.134C187.001 422.068 186.837 422.035 186.643 422.035C186.44 422.035 186.26 422.076 186.104 422.157C185.951 422.238 185.823 422.349 185.72 422.49C185.616 422.631 185.538 422.793 185.485 422.977C185.435 423.162 185.41 423.359 185.41 423.568ZM189.898 423.812V423.704C189.898 423.338 189.951 422.999 190.058 422.687C190.164 422.371 190.317 422.098 190.517 421.867C190.72 421.632 190.967 421.451 191.258 421.323C191.551 421.192 191.883 421.126 192.251 421.126C192.623 421.126 192.954 421.192 193.245 421.323C193.539 421.451 193.787 421.632 193.99 421.867C194.193 422.098 194.348 422.371 194.454 422.687C194.561 422.999 194.614 423.338 194.614 423.704V423.812C194.614 424.177 194.561 424.517 194.454 424.829C194.348 425.142 194.193 425.415 193.99 425.649C193.787 425.881 193.54 426.062 193.25 426.193C192.959 426.321 192.629 426.385 192.261 426.385C191.889 426.385 191.556 426.321 191.262 426.193C190.972 426.062 190.725 425.881 190.522 425.649C190.318 425.415 190.164 425.142 190.058 424.829C189.951 424.517 189.898 424.177 189.898 423.812ZM191.028 423.704V423.812C191.028 424.04 191.051 424.256 191.098 424.459C191.145 424.662 191.218 424.84 191.318 424.993C191.418 425.146 191.547 425.267 191.703 425.354C191.859 425.442 192.045 425.485 192.261 425.485C192.47 425.485 192.651 425.442 192.804 425.354C192.961 425.267 193.089 425.146 193.189 424.993C193.289 424.84 193.362 424.662 193.409 424.459C193.459 424.256 193.484 424.04 193.484 423.812V423.704C193.484 423.479 193.459 423.267 193.409 423.067C193.362 422.863 193.287 422.684 193.184 422.527C193.084 422.371 192.956 422.249 192.8 422.162C192.647 422.071 192.464 422.026 192.251 422.026C192.039 422.026 191.854 422.071 191.698 422.162C191.545 422.249 191.418 422.371 191.318 422.527C191.218 422.684 191.145 422.863 191.098 423.067C191.051 423.267 191.028 423.479 191.028 423.704ZM196.978 422.251V426.292H195.849V421.22H196.913L196.978 422.251ZM196.796 423.568L196.411 423.563C196.411 423.213 196.455 422.89 196.542 422.593C196.63 422.296 196.758 422.038 196.927 421.82C197.096 421.598 197.305 421.427 197.555 421.309C197.808 421.187 198.1 421.126 198.431 421.126C198.663 421.126 198.874 421.16 199.064 421.229C199.258 421.295 199.425 421.399 199.566 421.543C199.71 421.687 199.819 421.871 199.894 422.096C199.972 422.321 200.011 422.593 200.011 422.912V426.292H198.881V423.01C198.881 422.763 198.844 422.57 198.769 422.429C198.697 422.288 198.592 422.188 198.455 422.129C198.321 422.067 198.16 422.035 197.972 422.035C197.76 422.035 197.578 422.076 197.428 422.157C197.281 422.238 197.161 422.349 197.067 422.49C196.974 422.631 196.905 422.793 196.861 422.977C196.817 423.162 196.796 423.359 196.796 423.568ZM199.941 423.268L199.411 423.385C199.411 423.079 199.453 422.79 199.538 422.518C199.625 422.243 199.752 422.002 199.917 421.796C200.086 421.587 200.294 421.423 200.541 421.304C200.788 421.185 201.071 421.126 201.389 421.126C201.649 421.126 201.88 421.162 202.083 421.234C202.289 421.302 202.464 421.412 202.608 421.562C202.752 421.712 202.861 421.907 202.936 422.148C203.011 422.385 203.049 422.673 203.049 423.01V426.292H201.914V423.006C201.914 422.749 201.877 422.551 201.802 422.41C201.73 422.27 201.627 422.173 201.492 422.12C201.358 422.063 201.197 422.035 201.01 422.035C200.835 422.035 200.68 422.068 200.546 422.134C200.414 422.196 200.303 422.285 200.213 422.401C200.122 422.513 200.053 422.643 200.006 422.79C199.963 422.937 199.941 423.096 199.941 423.268ZM206.735 426.385C206.36 426.385 206.021 426.324 205.718 426.202C205.418 426.077 205.162 425.904 204.949 425.682C204.74 425.46 204.579 425.199 204.466 424.899C204.354 424.599 204.298 424.276 204.298 423.929V423.742C204.298 423.345 204.355 422.985 204.471 422.663C204.587 422.342 204.748 422.067 204.954 421.838C205.16 421.607 205.404 421.431 205.685 421.309C205.966 421.187 206.271 421.126 206.599 421.126C206.962 421.126 207.279 421.187 207.551 421.309C207.823 421.431 208.048 421.602 208.226 421.824C208.407 422.043 208.541 422.304 208.629 422.607C208.719 422.91 208.765 423.245 208.765 423.61V424.093H204.846V423.282H207.649V423.193C207.643 422.99 207.602 422.799 207.527 422.621C207.455 422.443 207.344 422.299 207.194 422.19C207.044 422.081 206.844 422.026 206.594 422.026C206.407 422.026 206.24 422.067 206.093 422.148C205.949 422.226 205.829 422.34 205.732 422.49C205.635 422.64 205.56 422.821 205.507 423.034C205.457 423.243 205.432 423.479 205.432 423.742V423.929C205.432 424.151 205.462 424.357 205.521 424.548C205.584 424.735 205.674 424.899 205.793 425.04C205.912 425.181 206.055 425.292 206.224 425.373C206.393 425.451 206.585 425.49 206.801 425.49C207.073 425.49 207.315 425.435 207.527 425.326C207.74 425.217 207.924 425.062 208.08 424.862L208.676 425.438C208.566 425.598 208.424 425.751 208.249 425.898C208.074 426.042 207.86 426.159 207.607 426.249C207.357 426.34 207.066 426.385 206.735 426.385Z" fill="white"/>
<g clip-path="url(#clip1_35_235)">
<rect width="407" height="812" rx="20" fill="white"/>
<path d="M167.746 420.323H162.98L161.91 423.292H160.363L164.707 411.917H166.02L170.371 423.292H168.832L167.746 420.323ZM163.434 419.088H167.301L165.363 413.768L163.434 419.088ZM173.496 412.792V414.838H175.074V415.956H173.496V421.198C173.496 421.536 173.566 421.792 173.707 421.963C173.848 422.13 174.087 422.213 174.426 422.213C174.592 422.213 174.822 422.182 175.113 422.12V423.292C174.733 423.396 174.363 423.448 174.004 423.448C173.358 423.448 172.871 423.252 172.543 422.862C172.215 422.471 172.051 421.917 172.051 421.198V415.956H170.512V414.838H172.051V412.792H173.496ZM182.184 415.862C182.824 415.075 183.658 414.682 184.684 414.682C186.47 414.682 187.371 415.69 187.387 417.706V423.292H185.941V417.698C185.936 417.088 185.796 416.638 185.52 416.346C185.249 416.055 184.824 415.909 184.246 415.909C183.777 415.909 183.366 416.034 183.012 416.284C182.658 416.534 182.382 416.862 182.184 417.268V423.292H180.738V411.292H182.184V415.862ZM189.168 418.987C189.168 418.159 189.329 417.414 189.652 416.752C189.98 416.091 190.434 415.581 191.012 415.221C191.595 414.862 192.259 414.682 193.004 414.682C194.155 414.682 195.085 415.081 195.793 415.877C196.507 416.674 196.863 417.734 196.863 419.057V419.159C196.863 419.982 196.704 420.721 196.387 421.377C196.074 422.028 195.624 422.536 195.035 422.901C194.452 423.265 193.78 423.448 193.02 423.448C191.874 423.448 190.944 423.049 190.23 422.252C189.522 421.456 189.168 420.401 189.168 419.088V418.987ZM190.621 419.159C190.621 420.096 190.837 420.849 191.27 421.417C191.707 421.984 192.29 422.268 193.02 422.268C193.754 422.268 194.337 421.982 194.77 421.409C195.202 420.831 195.418 420.023 195.418 418.987C195.418 418.06 195.197 417.31 194.754 416.737C194.316 416.159 193.733 415.87 193.004 415.87C192.29 415.87 191.715 416.153 191.277 416.721C190.84 417.289 190.621 418.101 190.621 419.159ZM200.035 414.838L200.074 415.776C200.694 415.047 201.53 414.682 202.582 414.682C203.764 414.682 204.569 415.135 204.996 416.042C205.277 415.635 205.642 415.307 206.09 415.057C206.543 414.807 207.077 414.682 207.691 414.682C209.546 414.682 210.488 415.664 210.52 417.627V423.292H209.074V417.713C209.074 417.109 208.936 416.659 208.66 416.362C208.384 416.06 207.921 415.909 207.27 415.909C206.733 415.909 206.288 416.07 205.934 416.393C205.579 416.711 205.374 417.14 205.316 417.682V423.292H203.863V417.752C203.863 416.523 203.262 415.909 202.059 415.909C201.111 415.909 200.462 416.312 200.113 417.12V423.292H198.668V414.838H200.035ZM216.215 423.448C215.069 423.448 214.137 423.073 213.418 422.323C212.699 421.568 212.34 420.56 212.34 419.299V419.034C212.34 418.195 212.499 417.448 212.816 416.792C213.139 416.13 213.587 415.614 214.16 415.245C214.738 414.87 215.363 414.682 216.035 414.682C217.134 414.682 217.988 415.044 218.598 415.768C219.207 416.492 219.512 417.528 219.512 418.877V419.479H213.785C213.806 420.312 214.048 420.987 214.512 421.502C214.98 422.013 215.574 422.268 216.293 422.268C216.803 422.268 217.236 422.164 217.59 421.956C217.944 421.747 218.254 421.471 218.52 421.127L219.402 421.815C218.694 422.903 217.632 423.448 216.215 423.448ZM216.035 415.87C215.452 415.87 214.962 416.083 214.566 416.51C214.171 416.932 213.926 417.526 213.832 418.292H218.066V418.182C218.025 417.448 217.827 416.88 217.473 416.479C217.118 416.073 216.639 415.87 216.035 415.87Z" fill="white"/>
<ellipse cx="394.488" cy="816.977" rx="47.5" ry="75.5" transform="rotate(28.1327 394.488 816.977)" fill="#FF7878"/>
</g>
<rect x="-1.5" y="-1.5" width="410" height="815" rx="21.5" stroke="black" stroke-width="3"/>
<ellipse cx="20.4998" cy="16.5" rx="47.5" ry="75.5" transform="rotate(28.1327 20.4998 16.5)" fill="#C7CAEB"/>
<path d="M62.717 757.699C94.1446 785.103 105.645 823.347 88.4041 843.12C71.1631 862.892 31.7094 856.705 0.281769 829.301C-31.1458 801.897 -42.6464 763.653 -25.4053 743.88C-8.16433 724.108 31.2894 730.295 62.717 757.699Z" fill="#C7CAEB"/>
<mask id="mask0_35_235" style="mask-type:alpha" maskUnits="userSpaceOnUse" x="-34" y="732" width="131" height="123">
<ellipse cx="31.4993" cy="793.5" rx="47.5" ry="75.5" transform="rotate(-48.9123 31.4993 793.5)" fill="#4953BE"/>
</mask>
<g mask="url(#mask0_35_235)">
<rect width="193.596" height="2.89" transform="matrix(0.798849 -0.601532 0.485994 0.873962 -17.6953 765.248)" fill="white"/>
<rect width="193.596" height="2.89" transform="matrix(0.798849 -0.601532 0.485994 0.873962 -22.4473 756.702)" fill="white"/>
<rect width="193.596" height="2.89" transform="matrix(0.798849 -0.601532 0.485994 0.873962 -27.1992 748.157)" fill="white"/>
<rect width="193.596" height="2.89" transform="matrix(0.798849 -0.601532 0.485994 0.873962 -12.9434 773.793)" fill="white"/>
<rect width="193.596" height="2.89" transform="matrix(0.798849 -0.601532 0.485994 0.873962 -8.19141 782.339)" fill="white"/>
<rect width="193.596" height="2.89" transform="matrix(0.798849 -0.601532 0.485994 0.873962 -3.43945 790.885)" fill="white"/>
<rect width="193.596" height="2.89" transform="matrix(0.798849 -0.601532 0.485994 0.873962 1.3125 799.43)" fill="white"/>
<rect width="193.596" height="2.89" transform="matrix(0.798849 -0.601532 0.485994 0.873962 11.5605 828.683)" fill="white"/>
<rect width="193.596" height="2.89" transform="matrix(0.798849 -0.601532 0.485994 0.873962 6.80859 820.138)" fill="white"/>
<rect width="193.596" height="2.89" transform="matrix(0.798849 -0.601532 0.485994 0.873962 2.05664 811.592)" fill="white"/>
<rect width="193.596" height="2.89" transform="matrix(0.798849 -0.601532 0.485994 0.873962 16.3125 837.229)" fill="white"/>
<rect width="193.596" height="2.89" transform="matrix(0.798849 -0.601532 0.485994 0.873962 21.0645 845.774)" fill="white"/>
<rect width="193.596" height="2.89" transform="matrix(0.798849 -0.601532 0.485994 0.873962 25.8164 854.32)" fill="white"/>
<rect width="193.596" height="2.89" transform="matrix(0.798849 -0.601532 0.485994 0.873962 30.5703 862.865)" fill="white"/>
</g>
<g opacity="0.6">
<mask id="mask1_35_235" style="mask-type:alpha" maskUnits="userSpaceOnUse" x="347" y="60" width="103" height="147">
<ellipse cx="398.499" cy="133.5" rx="47.5" ry="75.5" transform="rotate(17.4943 398.499 133.5)" fill="#4953BE"/>
</mask>
<g mask="url(#mask1_35_235)">
<rect width="193.596" height="3.89" transform="matrix(0.870983 0.491313 -0.606392 0.795166 380.984 108.21)" fill="#FF9393"/>
<rect width="193.596" height="3.89" transform="matrix(0.870983 0.491313 -0.606392 0.795166 358.277 129.31)" fill="#FF9393"/>
<rect width="193.596" height="3.89" transform="matrix(0.870983 0.491313 -0.606392 0.795166 364.207 121.535)" fill="#FF9393"/>
<rect width="193.596" height="3.89" transform="matrix(0.870983 0.491313 -0.606392 0.795166 370.137 113.76)" fill="#FF9393"/>
<rect width="193.596" height="3.89" transform="matrix(0.870983 0.491313 -0.606392 0.795166 352.35 137.085)" fill="#FF9393"/>
<rect width="193.596" height="3.89" transform="matrix(0.870983 0.491313 -0.606392 0.795166 346.42 144.861)" fill="#FF9393"/>
<rect width="193.596" height="3.89" transform="matrix(0.870983 0.491313 -0.606392 0.795166 340.49 152.636)" fill="#FF9393"/>
<rect width="193.596" height="3.89" transform="matrix(0.870983 0.491313 -0.606392 0.795166 334.561 160.411)" fill="#FF9393"/>
</g>
</g>
</g>
<defs>
<clipPath id="clip0_35_235">
<rect width="380" height="812" fill="white"/>
</clipPath>
<clipPath id="clip1_35_235">
<rect width="407" height="812" rx="20" fill="white"/>
</clipPath>
</defs>
</svg>
