<svg width="24" height="27" viewBox="0 0 24 27" fill="none" xmlns="http://www.w3.org/2000/svg">
<path d="M8.56337 13.6496C1.27617 10.2298 -0.564337 6.63065 0.138946 4.39055C0.707557 2.6134 2.75755 1.76216 5.37616 2.24005L5.032 4.1516C3.46083 3.86785 2.23383 4.21134 1.99441 4.98791C1.60536 6.19756 3.26631 9.03503 9.38636 11.9024L8.56337 13.6496Z" fill="#F7A491"/>
<path d="M15.4316 13.6497L14.6086 11.8875C20.7287 9.02017 22.3896 6.1827 22.0006 4.97305C21.7462 4.19648 20.5341 3.86793 18.963 4.13674L18.6188 2.22519C21.2374 1.76223 23.2874 2.61347 23.856 4.37569C24.5743 6.63073 22.7338 10.2298 15.4316 13.6497Z" fill="#F7A491"/>
<path d="M12.9028 11.1707H11.1072V21.2063H12.9028V11.1707Z" fill="#F7A491"/>
<path d="M2.39844 0L7.12689 12.8134C7.87506 14.8444 9.82031 16.2034 11.99 16.2034C14.1597 16.2034 16.105 14.8594 16.8531 12.8134L21.5816 0H2.39844Z" fill="#F7A491"/>
<path d="M13.0524 21.2063H10.9426C9.02723 21.2063 7.48599 22.7445 7.48599 24.6561H16.509C16.509 22.7445 14.9677 21.2063 13.0524 21.2063Z" fill="#F7A491"/>
<path d="M17.0254 26.4302V24.6381L6.96995 24.6381V26.4302H17.0254Z" fill="#FF7C7C"/>
<path d="M12.0049 2.07585L13.0823 5.39121H16.5688L13.7407 7.43717L14.833 10.7525L12.0049 8.70656L9.17684 10.7525L10.2542 7.43717L7.42612 5.39121H10.9276L12.0049 2.07585Z" fill="#FFFBFA"/>
</svg>
